<?xml version="1.0" encoding="UTF-8" standalone="no"?>
<!DOCTYPE svg PUBLIC "-//W3C//DTD SVG 1.0//EN" "http://www.w3.org/TR/2001/REC-SVG-20010904/DTD/svg10.dtd">
<svg version="1.0" xmlns="http://www.w3.org/2000/svg" width="700.000000pt" height="700.000000pt" viewBox="0 0 700.000000 700.000000" preserveAspectRatio="xMidYMid meet">
<g transform="translate(0.000000,700.000000) scale(0.100000,-0.100000)" fill="#000000" stroke="none">
<path d="M442 6563 c-12 -5 -7 -6114 6 -6121 13 -9 2600 -7 2608 1 9 8 9 6105 1 6114 -6 6 -2597 11 -2615 6z" />
<path d="M3968 6562 c-18 -2 -28 -9 -29 -20 -4 -108 0 -6094 5 -6099 4 -5 2525 -8 2606 -4 13 1 15 347 14 3056 0 1680 -4 3058 -7 3062 -7 6 -2535 11 -2589 5z" />
</g>
</svg>
