<?xml version="1.0" encoding="UTF-8" standalone="no"?>
<svg width="320" height="167" fill="none" xmlns="http://www.w3.org/2000/svg">
<path d="M-316.605 96.532c-21.286 24.956-37.935 36.192-57.747 30.915-16.567-4.412-27.547-40.085-33.816-52.63-9.626-19.205-4.029-41.351 8.396-59.605 5.484-7.786 14.775-16.091 26.08-14.62 7.164.951 12.537 5.71 16.231 10.64 8.283 11.074 15.447 20.417 34.028 20.936 11.194.26 22.052-2.595 32.574-5.623 10.521-2.942 21.267-6.056 32.349-6.143 44.774-.346 61.9 38.065 79.25 62.894 16.231 23.098 41.304 50.695 76.564 52.425 30.894 1.471 64.474-18.773 84.399-35.296 22.499-18.6 45.67-38.757 71.302-55.28 85.056-54.828 93.69 17.128 145.628 33.652 30.447 9.69 52.722.865 70.743-19.724 14.888-16.956 25.074-37.286 46.342-49.484C330.269 1.11 355.343-.62 363.514 12.01c6.828 10.64-.285 84.224-10.023 93.481-18.092 20.073-25.05-26.695-61.951-12.594-22.387 14.015-49.364 24.656-78.131 26.04-56.192 2.682-94.275-49.202-165.44-15.053-27.087 12.997-44.999 23.531-65.147 37.805-20.26 14.274-45.67 27.424-72.758 24.569-26.64-2.768-46.341-19.724-67.273-32.787-44.998-28.116-129.468-72.028-159.396-36.94z" fill="url(#paint0_linear)" />
<defs>
<linearGradient id="paint0_linear" x1="-23.411" y1="5.658" x2="-23.411" y2="179.177" gradientUnits="userSpaceOnUse">
<stop offset="0" stop-color="#E2ECFF" />
<stop offset="1" stop-color="#F3F7FF" stop-opacity="0" />
</linearGradient>
</defs>
</svg>
