<?xml version="1.0" standalone="no"?>
<!DOCTYPE svg PUBLIC "-//W3C//DTD SVG 1.1//EN" "http://www.w3.org/Graphics/SVG/1.1/DTD/svg11.dtd" >
<svg xmlns="http://www.w3.org/2000/svg" xmlns:xlink="http://www.w3.org/1999/xlink" version="1.1">
<metadata>
Created by FontForge 20170731 at Fri Jan  1 02:30:17 1904
 By Aleksey,,,
Masachika Yamasaki
</metadata>
<defs>
<font id="Basicdots" horiz-adv-x="512" >
  <font-face 
    font-family="Basicdots"
    font-weight="400"
    font-stretch="normal"
    units-per-em="1024"
    panose-1="2 11 6 0 0 0 0 0 0 0"
    ascent="819"
    descent="-205"
    x-height="621"
    cap-height="879"
    bbox="0 -128 620 879"
    underline-thickness="48"
    underline-position="-168"
    unicode-range="U+0020-2219"
  />
<missing-glyph 
d="M206 400v100h100v-100h-100z" />
    <glyph glyph-name=".notdef" 
d="M206 400v100h100v-100h-100z" />
    <glyph glyph-name="glyph1" horiz-adv-x="0" 
 />
    <glyph glyph-name="nonmarkingreturn" horiz-adv-x="341" 
 />
    <glyph glyph-name="space" unicode=" " horiz-adv-x="384" 
 />
    <glyph glyph-name="exclam" unicode="!" horiz-adv-x="231" 
d="M103 699q-3 -20 -17.5 -34.5t-33.5 -17.5q-23 3 -37.5 17.5t-14.5 34.5q0 22 14.5 36.5t37.5 14.5q19 0 33.5 -14.5t17.5 -36.5zM103 569q-3 -19 -17.5 -33.5t-33.5 -17.5q-23 3 -37.5 17.5t-14.5 33.5q0 23 14.5 37.5t37.5 14.5q19 0 33.5 -14.5t17.5 -37.5zM103 440
q-3 -19 -17.5 -33.5t-33.5 -18.5q-23 4 -37.5 18.5t-14.5 33.5q0 23 14.5 37.5t37.5 14.5q19 0 33.5 -14.5t17.5 -37.5zM103 311q-3 -20 -17.5 -34t-33.5 -17q-23 3 -37.5 17t-14.5 34q0 22 14.5 37t37.5 15q19 0 33.5 -15t17.5 -37zM103 828q-3 -20 -17.5 -34.5
t-33.5 -17.5q-23 3 -37.5 17.5t-14.5 34.5q0 22 14.5 36.5t37.5 14.5q19 0 33.5 -14.5t17.5 -36.5zM103 53q-3 -19 -17.5 -33.5t-33.5 -17.5q-23 3 -37.5 17.5t-14.5 33.5q0 23 14.5 37.5t37.5 14.5q19 0 33.5 -14.5t17.5 -37.5z" />
    <glyph glyph-name="quotedbl" unicode="&#x22;" horiz-adv-x="490" 
d="M103 699q-3 -20 -17.5 -34.5t-33.5 -17.5q-23 3 -37.5 17.5t-14.5 34.5q0 22 14.5 36.5t37.5 14.5q19 0 33.5 -14.5t17.5 -36.5zM362 699q-3 -20 -17.5 -34.5t-34.5 -17.5q-22 3 -37 17.5t-15 34.5q0 22 15 36.5t37 14.5q20 0 34.5 -14.5t17.5 -36.5zM103 828
q-3 -20 -17.5 -34.5t-33.5 -17.5q-23 3 -37.5 17.5t-14.5 34.5q0 22 14.5 36.5t37.5 14.5q19 0 33.5 -14.5t17.5 -36.5zM362 828q-3 -20 -17.5 -34.5t-34.5 -17.5q-22 3 -37 17.5t-15 34.5q0 22 15 36.5t37 14.5q20 0 34.5 -14.5t17.5 -36.5z" />
    <glyph glyph-name="numbersign" unicode="#" horiz-adv-x="748" 
d="M103 569q-3 -19 -17.5 -33.5t-33.5 -17.5q-23 3 -37.5 17.5t-14.5 33.5q0 23 14.5 37.5t37.5 14.5q19 0 33.5 -14.5t17.5 -37.5zM103 311q-3 -20 -17.5 -34t-33.5 -17q-23 3 -37.5 17t-14.5 34q0 22 14.5 37t37.5 15q19 0 33.5 -15t17.5 -37zM233 311q-4 -20 -18.5 -34
t-33.5 -17q-23 3 -37.5 17t-14.5 34q0 22 14.5 37t37.5 15q19 0 33.5 -15t18.5 -37zM362 311q-3 -20 -17.5 -34t-34.5 -17q-22 3 -37 17t-15 34q0 22 15 37t37 15q20 0 34.5 -15t17.5 -37zM491 311q-3 -20 -17.5 -34t-34.5 -17q-22 3 -36.5 17t-14.5 34q0 22 14.5 37
t36.5 15q20 0 34.5 -15t17.5 -37zM620 311q-3 -20 -17.5 -34t-33.5 -17q-23 3 -37.5 17t-14.5 34q0 22 14.5 37t37.5 15q19 0 33.5 -15t17.5 -37zM233 440q-4 -19 -18.5 -33.5t-33.5 -18.5q-23 4 -37.5 18.5t-14.5 33.5q0 23 14.5 37.5t37.5 14.5q19 0 33.5 -14.5
t18.5 -37.5zM491 440q-3 -19 -17.5 -33.5t-34.5 -18.5q-22 4 -36.5 18.5t-14.5 33.5q0 23 14.5 37.5t36.5 14.5q20 0 34.5 -14.5t17.5 -37.5zM233 569q-4 -19 -18.5 -33.5t-33.5 -17.5q-23 3 -37.5 17.5t-14.5 33.5q0 23 14.5 37.5t37.5 14.5q19 0 33.5 -14.5t18.5 -37.5z
M362 569q-3 -19 -17.5 -33.5t-34.5 -17.5q-22 3 -37 17.5t-15 33.5q0 23 15 37.5t37 14.5q20 0 34.5 -14.5t17.5 -37.5zM491 569q-3 -19 -17.5 -33.5t-34.5 -17.5q-22 3 -36.5 17.5t-14.5 33.5q0 23 14.5 37.5t36.5 14.5q20 0 34.5 -14.5t17.5 -37.5zM620 569
q-3 -19 -17.5 -33.5t-33.5 -17.5q-23 3 -37.5 17.5t-14.5 33.5q0 23 14.5 37.5t37.5 14.5q19 0 33.5 -14.5t17.5 -37.5zM233 699q-4 -20 -18.5 -34.5t-33.5 -17.5q-23 3 -37.5 17.5t-14.5 34.5q0 22 14.5 36.5t37.5 14.5q19 0 33.5 -14.5t18.5 -36.5zM491 699
q-3 -20 -17.5 -34.5t-34.5 -17.5q-22 3 -36.5 17.5t-14.5 34.5q0 22 14.5 36.5t36.5 14.5q20 0 34.5 -14.5t17.5 -36.5zM233 183q-4 -20 -18.5 -34.5t-33.5 -17.5q-23 3 -37.5 17.5t-14.5 34.5q0 22 14.5 36.5t37.5 14.5q19 0 33.5 -14.5t18.5 -36.5zM491 183
q-3 -20 -17.5 -34.5t-34.5 -17.5q-22 3 -36.5 17.5t-14.5 34.5q0 22 14.5 36.5t36.5 14.5q20 0 34.5 -14.5t17.5 -36.5z" />
    <glyph glyph-name="dollar" unicode="$" horiz-adv-x="748" 
d="M103 699q-3 -20 -17.5 -34.5t-33.5 -17.5q-23 3 -37.5 17.5t-14.5 34.5q0 22 14.5 36.5t37.5 14.5q19 0 33.5 -14.5t17.5 -36.5zM103 569q-3 -19 -17.5 -33.5t-33.5 -17.5q-23 3 -37.5 17.5t-14.5 33.5q0 23 14.5 37.5t37.5 14.5q19 0 33.5 -14.5t17.5 -37.5zM362 311
q-3 -20 -17.5 -34t-34.5 -17q-22 3 -37 17t-15 34q0 22 15 37t37 15q20 0 34.5 -15t17.5 -37zM620 311q-3 -20 -17.5 -34t-33.5 -17q-23 3 -37.5 17t-14.5 34q0 22 14.5 37t37.5 15q19 0 33.5 -15t17.5 -37zM233 440q-4 -19 -18.5 -33.5t-33.5 -18.5q-23 4 -37.5 18.5
t-14.5 33.5q0 23 14.5 37.5t37.5 14.5q19 0 33.5 -14.5t18.5 -37.5zM362 440q-3 -19 -17.5 -33.5t-34.5 -18.5q-22 4 -37 18.5t-15 33.5q0 23 15 37.5t37 14.5q20 0 34.5 -14.5t17.5 -37.5zM491 440q-3 -19 -17.5 -33.5t-34.5 -18.5q-22 4 -36.5 18.5t-14.5 33.5
q0 23 14.5 37.5t36.5 14.5q20 0 34.5 -14.5t17.5 -37.5zM362 569q-3 -19 -17.5 -33.5t-34.5 -17.5q-22 3 -37 17.5t-15 33.5q0 23 15 37.5t37 14.5q20 0 34.5 -14.5t17.5 -37.5zM362 699q-3 -20 -17.5 -34.5t-34.5 -17.5q-22 3 -37 17.5t-15 34.5q0 22 15 36.5t37 14.5
q20 0 34.5 -14.5t17.5 -36.5zM233 828q-4 -20 -18.5 -34.5t-33.5 -17.5q-23 3 -37.5 17.5t-14.5 34.5q0 22 14.5 36.5t37.5 14.5q19 0 33.5 -14.5t18.5 -36.5zM362 828q-3 -20 -17.5 -34.5t-34.5 -17.5q-22 3 -37 17.5t-15 34.5q0 22 15 36.5t37 14.5q20 0 34.5 -14.5
t17.5 -36.5zM491 828q-3 -20 -17.5 -34.5t-34.5 -17.5q-22 3 -36.5 17.5t-14.5 34.5q0 22 14.5 36.5t36.5 14.5q20 0 34.5 -14.5t17.5 -36.5zM620 828q-3 -20 -17.5 -34.5t-33.5 -17.5q-23 3 -37.5 17.5t-14.5 34.5q0 22 14.5 36.5t37.5 14.5q19 0 33.5 -14.5t17.5 -36.5z
M362 183q-3 -20 -17.5 -34.5t-34.5 -17.5q-22 3 -37 17.5t-15 34.5q0 22 15 36.5t37 14.5q20 0 34.5 -14.5t17.5 -36.5zM620 183q-3 -20 -17.5 -34.5t-33.5 -17.5q-23 3 -37.5 17.5t-14.5 34.5q0 22 14.5 36.5t37.5 14.5q19 0 33.5 -14.5t17.5 -36.5zM233 53
q-4 -19 -18.5 -33.5t-33.5 -17.5q-23 3 -37.5 17.5t-14.5 33.5q0 23 14.5 37.5t37.5 14.5q19 0 33.5 -14.5t18.5 -37.5zM362 53q-3 -19 -17.5 -33.5t-34.5 -17.5q-22 3 -37 17.5t-15 33.5q0 23 15 37.5t37 14.5q20 0 34.5 -14.5t17.5 -37.5zM491 53q-3 -19 -17.5 -33.5
t-34.5 -17.5q-22 3 -36.5 17.5t-14.5 33.5q0 23 14.5 37.5t36.5 14.5q20 0 34.5 -14.5t17.5 -37.5zM103 53q-3 -19 -17.5 -33.5t-33.5 -17.5q-23 3 -37.5 17.5t-14.5 33.5q0 23 14.5 37.5t37.5 14.5q19 0 33.5 -14.5t17.5 -37.5z" />
    <glyph glyph-name="percent" unicode="%" horiz-adv-x="490" 
d="M103 699q-3 -20 -17.5 -34.5t-33.5 -17.5q-23 3 -37.5 17.5t-14.5 34.5q0 22 14.5 36.5t37.5 14.5q19 0 33.5 -14.5t17.5 -36.5zM233 311q-4 -20 -18.5 -34t-33.5 -17q-23 3 -37.5 17t-14.5 34q0 22 14.5 37t37.5 15q19 0 33.5 -15t18.5 -37zM233 440q-4 -19 -18.5 -33.5
t-33.5 -18.5q-23 4 -37.5 18.5t-14.5 33.5q0 23 14.5 37.5t37.5 14.5q19 0 33.5 -14.5t18.5 -37.5zM362 569q-3 -19 -17.5 -33.5t-34.5 -17.5q-22 3 -37 17.5t-15 33.5q0 23 15 37.5t37 14.5q20 0 34.5 -14.5t17.5 -37.5zM362 699q-3 -20 -17.5 -34.5t-34.5 -17.5
q-22 3 -37 17.5t-15 34.5q0 22 15 36.5t37 14.5q20 0 34.5 -14.5t17.5 -36.5zM362 53q-3 -19 -17.5 -33.5t-34.5 -17.5q-22 3 -37 17.5t-15 33.5q0 23 15 37.5t37 14.5q20 0 34.5 -14.5t17.5 -37.5zM103 183q-3 -20 -17.5 -34.5t-33.5 -17.5q-23 3 -37.5 17.5t-14.5 34.5
q0 22 14.5 36.5t37.5 14.5q19 0 33.5 -14.5t17.5 -36.5zM103 53q-3 -19 -17.5 -33.5t-33.5 -17.5q-23 3 -37.5 17.5t-14.5 33.5q0 23 14.5 37.5t37.5 14.5q19 0 33.5 -14.5t17.5 -37.5z" />
    <glyph glyph-name="ampersand" unicode="&#x26;" horiz-adv-x="748" 
d="M103 699q-3 -20 -17.5 -34.5t-33.5 -17.5q-23 3 -37.5 17.5t-14.5 34.5q0 22 14.5 36.5t37.5 14.5q19 0 33.5 -14.5t17.5 -36.5zM103 569q-3 -19 -17.5 -33.5t-33.5 -17.5q-23 3 -37.5 17.5t-14.5 33.5q0 23 14.5 37.5t37.5 14.5q19 0 33.5 -14.5t17.5 -37.5zM103 311
q-3 -20 -17.5 -34t-33.5 -17q-23 3 -37.5 17t-14.5 34q0 22 14.5 37t37.5 15q19 0 33.5 -15t17.5 -37zM362 311q-3 -20 -17.5 -34t-34.5 -17q-22 3 -37 17t-15 34q0 22 15 37t37 15q20 0 34.5 -15t17.5 -37zM620 311q-3 -20 -17.5 -34t-33.5 -17q-23 3 -37.5 17t-14.5 34
q0 22 14.5 37t37.5 15q19 0 33.5 -15t17.5 -37zM233 440q-4 -19 -18.5 -33.5t-33.5 -18.5q-23 4 -37.5 18.5t-14.5 33.5q0 23 14.5 37.5t37.5 14.5q19 0 33.5 -14.5t18.5 -37.5zM362 440q-3 -19 -17.5 -33.5t-34.5 -18.5q-22 4 -37 18.5t-15 33.5q0 23 15 37.5t37 14.5
q20 0 34.5 -14.5t17.5 -37.5zM491 569q-3 -19 -17.5 -33.5t-34.5 -17.5q-22 3 -36.5 17.5t-14.5 33.5q0 23 14.5 37.5t36.5 14.5q20 0 34.5 -14.5t17.5 -37.5zM491 699q-3 -20 -17.5 -34.5t-34.5 -17.5q-22 3 -36.5 17.5t-14.5 34.5q0 22 14.5 36.5t36.5 14.5
q20 0 34.5 -14.5t17.5 -36.5zM233 828q-4 -20 -18.5 -34.5t-33.5 -17.5q-23 3 -37.5 17.5t-14.5 34.5q0 22 14.5 36.5t37.5 14.5q19 0 33.5 -14.5t18.5 -36.5zM362 828q-3 -20 -17.5 -34.5t-34.5 -17.5q-22 3 -37 17.5t-15 34.5q0 22 15 36.5t37 14.5q20 0 34.5 -14.5
t17.5 -36.5zM491 183q-3 -20 -17.5 -34.5t-34.5 -17.5q-22 3 -36.5 17.5t-14.5 34.5q0 22 14.5 36.5t36.5 14.5q20 0 34.5 -14.5t17.5 -36.5zM233 53q-4 -19 -18.5 -33.5t-33.5 -17.5q-23 3 -37.5 17.5t-14.5 33.5q0 23 14.5 37.5t37.5 14.5q19 0 33.5 -14.5t18.5 -37.5z
M362 53q-3 -19 -17.5 -33.5t-34.5 -17.5q-22 3 -37 17.5t-15 33.5q0 23 15 37.5t37 14.5q20 0 34.5 -14.5t17.5 -37.5zM620 53q-3 -19 -17.5 -33.5t-33.5 -17.5q-23 3 -37.5 17.5t-14.5 33.5q0 23 14.5 37.5t37.5 14.5q19 0 33.5 -14.5t17.5 -37.5zM103 183
q-3 -20 -17.5 -34.5t-33.5 -17.5q-23 3 -37.5 17.5t-14.5 34.5q0 22 14.5 36.5t37.5 14.5q19 0 33.5 -14.5t17.5 -36.5z" />
    <glyph glyph-name="quotesingle" unicode="'" horiz-adv-x="231" 
d="M103 699q-3 -20 -17.5 -34.5t-33.5 -17.5q-23 3 -37.5 17.5t-14.5 34.5q0 22 14.5 36.5t37.5 14.5q19 0 33.5 -14.5t17.5 -36.5zM103 828q-3 -20 -17.5 -34.5t-33.5 -17.5q-23 3 -37.5 17.5t-14.5 34.5q0 22 14.5 36.5t37.5 14.5q19 0 33.5 -14.5t17.5 -36.5z" />
    <glyph glyph-name="parenleft" unicode="(" horiz-adv-x="490" 
d="M103 569q-3 -19 -17.5 -33.5t-33.5 -17.5q-23 3 -37.5 17.5t-14.5 33.5q0 23 14.5 37.5t37.5 14.5q19 0 33.5 -14.5t17.5 -37.5zM103 440q-3 -19 -17.5 -33.5t-33.5 -18.5q-23 4 -37.5 18.5t-14.5 33.5q0 23 14.5 37.5t37.5 14.5q19 0 33.5 -14.5t17.5 -37.5zM103 311
q-3 -20 -17.5 -34t-33.5 -17q-23 3 -37.5 17t-14.5 34q0 22 14.5 37t37.5 15q19 0 33.5 -15t17.5 -37zM233 699q-4 -20 -18.5 -34.5t-33.5 -17.5q-23 3 -37.5 17.5t-14.5 34.5q0 22 14.5 36.5t37.5 14.5q19 0 33.5 -14.5t18.5 -36.5zM362 828q-3 -20 -17.5 -34.5
t-34.5 -17.5q-22 3 -37 17.5t-15 34.5q0 22 15 36.5t37 14.5q20 0 34.5 -14.5t17.5 -36.5zM233 183q-4 -20 -18.5 -34.5t-33.5 -17.5q-23 3 -37.5 17.5t-14.5 34.5q0 22 14.5 36.5t37.5 14.5q19 0 33.5 -14.5t18.5 -36.5zM362 53q-3 -19 -17.5 -33.5t-34.5 -17.5
q-22 3 -37 17.5t-15 33.5q0 23 15 37.5t37 14.5q20 0 34.5 -14.5t17.5 -37.5z" />
    <glyph glyph-name="parenright" unicode=")" horiz-adv-x="490" 
d="M362 311q-3 -20 -17.5 -34t-34.5 -17q-22 3 -37 17t-15 34q0 22 15 37t37 15q20 0 34.5 -15t17.5 -37zM362 440q-3 -19 -17.5 -33.5t-34.5 -18.5q-22 4 -37 18.5t-15 33.5q0 23 15 37.5t37 14.5q20 0 34.5 -14.5t17.5 -37.5zM362 569q-3 -19 -17.5 -33.5t-34.5 -17.5
q-22 3 -37 17.5t-15 33.5q0 23 15 37.5t37 14.5q20 0 34.5 -14.5t17.5 -37.5zM233 699q-4 -20 -18.5 -34.5t-33.5 -17.5q-23 3 -37.5 17.5t-14.5 34.5q0 22 14.5 36.5t37.5 14.5q19 0 33.5 -14.5t18.5 -36.5zM103 828q-3 -20 -17.5 -34.5t-33.5 -17.5q-23 3 -37.5 17.5
t-14.5 34.5q0 22 14.5 36.5t37.5 14.5q19 0 33.5 -14.5t17.5 -36.5zM233 183q-4 -20 -18.5 -34.5t-33.5 -17.5q-23 3 -37.5 17.5t-14.5 34.5q0 22 14.5 36.5t37.5 14.5q19 0 33.5 -14.5t18.5 -36.5zM103 53q-3 -19 -17.5 -33.5t-33.5 -17.5q-23 3 -37.5 17.5t-14.5 33.5
q0 23 14.5 37.5t37.5 14.5q19 0 33.5 -14.5t17.5 -37.5z" />
    <glyph glyph-name="asterisk" unicode="*" horiz-adv-x="748" 
d="M103 699q-3 -20 -17.5 -34.5t-33.5 -17.5q-23 3 -37.5 17.5t-14.5 34.5q0 22 14.5 36.5t37.5 14.5q19 0 33.5 -14.5t17.5 -36.5zM233 311q-4 -20 -18.5 -34t-33.5 -17q-23 3 -37.5 17t-14.5 34q0 22 14.5 37t37.5 15q19 0 33.5 -15t18.5 -37zM362 311q-3 -20 -17.5 -34
t-34.5 -17q-22 3 -37 17t-15 34q0 22 15 37t37 15q20 0 34.5 -15t17.5 -37zM491 311q-3 -20 -17.5 -34t-34.5 -17q-22 3 -36.5 17t-14.5 34q0 22 14.5 37t36.5 15q20 0 34.5 -15t17.5 -37zM362 440q-3 -19 -17.5 -33.5t-34.5 -18.5q-22 4 -37 18.5t-15 33.5q0 23 15 37.5
t37 14.5q20 0 34.5 -14.5t17.5 -37.5zM233 569q-4 -19 -18.5 -33.5t-33.5 -17.5q-23 3 -37.5 17.5t-14.5 33.5q0 23 14.5 37.5t37.5 14.5q19 0 33.5 -14.5t18.5 -37.5zM362 569q-3 -19 -17.5 -33.5t-34.5 -17.5q-22 3 -37 17.5t-15 33.5q0 23 15 37.5t37 14.5
q20 0 34.5 -14.5t17.5 -37.5zM491 569q-3 -19 -17.5 -33.5t-34.5 -17.5q-22 3 -36.5 17.5t-14.5 33.5q0 23 14.5 37.5t36.5 14.5q20 0 34.5 -14.5t17.5 -37.5zM362 699q-3 -20 -17.5 -34.5t-34.5 -17.5q-22 3 -37 17.5t-15 34.5q0 22 15 36.5t37 14.5q20 0 34.5 -14.5
t17.5 -36.5zM620 699q-3 -20 -17.5 -34.5t-33.5 -17.5q-23 3 -37.5 17.5t-14.5 34.5q0 22 14.5 36.5t37.5 14.5q19 0 33.5 -14.5t17.5 -36.5zM362 183q-3 -20 -17.5 -34.5t-34.5 -17.5q-22 3 -37 17.5t-15 34.5q0 22 15 36.5t37 14.5q20 0 34.5 -14.5t17.5 -36.5zM620 183
q-3 -20 -17.5 -34.5t-33.5 -17.5q-23 3 -37.5 17.5t-14.5 34.5q0 22 14.5 36.5t37.5 14.5q19 0 33.5 -14.5t17.5 -36.5zM103 183q-3 -20 -17.5 -34.5t-33.5 -17.5q-23 3 -37.5 17.5t-14.5 34.5q0 22 14.5 36.5t37.5 14.5q19 0 33.5 -14.5t17.5 -36.5z" />
    <glyph glyph-name="plus" unicode="+" horiz-adv-x="748" 
d="M103 440q-3 -19 -17.5 -33.5t-33.5 -18.5q-23 4 -37.5 18.5t-14.5 33.5q0 23 14.5 37.5t37.5 14.5q19 0 33.5 -14.5t17.5 -37.5zM362 311q-3 -20 -17.5 -34t-34.5 -17q-22 3 -37 17t-15 34q0 22 15 37t37 15q20 0 34.5 -15t17.5 -37zM233 440q-4 -19 -18.5 -33.5
t-33.5 -18.5q-23 4 -37.5 18.5t-14.5 33.5q0 23 14.5 37.5t37.5 14.5q19 0 33.5 -14.5t18.5 -37.5zM362 440q-3 -19 -17.5 -33.5t-34.5 -18.5q-22 4 -37 18.5t-15 33.5q0 23 15 37.5t37 14.5q20 0 34.5 -14.5t17.5 -37.5zM491 440q-3 -19 -17.5 -33.5t-34.5 -18.5
q-22 4 -36.5 18.5t-14.5 33.5q0 23 14.5 37.5t36.5 14.5q20 0 34.5 -14.5t17.5 -37.5zM620 440q-3 -19 -17.5 -33.5t-33.5 -18.5q-23 4 -37.5 18.5t-14.5 33.5q0 23 14.5 37.5t37.5 14.5q19 0 33.5 -14.5t17.5 -37.5zM362 569q-3 -19 -17.5 -33.5t-34.5 -17.5
q-22 3 -37 17.5t-15 33.5q0 23 15 37.5t37 14.5q20 0 34.5 -14.5t17.5 -37.5zM362 699q-3 -20 -17.5 -34.5t-34.5 -17.5q-22 3 -37 17.5t-15 34.5q0 22 15 36.5t37 14.5q20 0 34.5 -14.5t17.5 -36.5zM362 183q-3 -20 -17.5 -34.5t-34.5 -17.5q-22 3 -37 17.5t-15 34.5
q0 22 15 36.5t37 14.5q20 0 34.5 -14.5t17.5 -36.5z" />
    <glyph glyph-name="comma" unicode="," horiz-adv-x="231" 
d="M103 53q-3 -19 -17.5 -33.5t-33.5 -17.5q-23 3 -37.5 17.5t-14.5 33.5q0 23 14.5 37.5t37.5 14.5q19 0 33.5 -14.5t17.5 -37.5zM103 -76q-3 -19 -17.5 -33.5t-33.5 -18.5q-23 4 -37.5 18.5t-14.5 33.5q0 23 14.5 37.5t37.5 14.5q19 0 33.5 -14.5t17.5 -37.5z" />
    <glyph glyph-name="hyphen" unicode="-" horiz-adv-x="748" 
d="M103 440q-3 -19 -17.5 -33.5t-33.5 -18.5q-23 4 -37.5 18.5t-14.5 33.5q0 23 14.5 37.5t37.5 14.5q19 0 33.5 -14.5t17.5 -37.5zM233 440q-4 -19 -18.5 -33.5t-33.5 -18.5q-23 4 -37.5 18.5t-14.5 33.5q0 23 14.5 37.5t37.5 14.5q19 0 33.5 -14.5t18.5 -37.5zM362 440
q-3 -19 -17.5 -33.5t-34.5 -18.5q-22 4 -37 18.5t-15 33.5q0 23 15 37.5t37 14.5q20 0 34.5 -14.5t17.5 -37.5zM491 440q-3 -19 -17.5 -33.5t-34.5 -18.5q-22 4 -36.5 18.5t-14.5 33.5q0 23 14.5 37.5t36.5 14.5q20 0 34.5 -14.5t17.5 -37.5zM620 440q-3 -19 -17.5 -33.5
t-33.5 -18.5q-23 4 -37.5 18.5t-14.5 33.5q0 23 14.5 37.5t37.5 14.5q19 0 33.5 -14.5t17.5 -37.5z" />
    <glyph glyph-name="period" unicode="." horiz-adv-x="231" 
d="M103 53q-3 -19 -17.5 -33.5t-33.5 -17.5q-23 3 -37.5 17.5t-14.5 33.5q0 23 14.5 37.5t37.5 14.5q19 0 33.5 -14.5t17.5 -37.5z" />
    <glyph glyph-name="slash" unicode="/" horiz-adv-x="490" 
d="M233 311q-4 -20 -18.5 -34t-33.5 -17q-23 3 -37.5 17t-14.5 34q0 22 14.5 37t37.5 15q19 0 33.5 -15t18.5 -37zM233 440q-4 -19 -18.5 -33.5t-33.5 -18.5q-23 4 -37.5 18.5t-14.5 33.5q0 23 14.5 37.5t37.5 14.5q19 0 33.5 -14.5t18.5 -37.5zM362 569q-3 -19 -17.5 -33.5
t-34.5 -17.5q-22 3 -37 17.5t-15 33.5q0 23 15 37.5t37 14.5q20 0 34.5 -14.5t17.5 -37.5zM362 699q-3 -20 -17.5 -34.5t-34.5 -17.5q-22 3 -37 17.5t-15 34.5q0 22 15 36.5t37 14.5q20 0 34.5 -14.5t17.5 -36.5zM103 183q-3 -20 -17.5 -34.5t-33.5 -17.5q-23 3 -37.5 17.5
t-14.5 34.5q0 22 14.5 36.5t37.5 14.5q19 0 33.5 -14.5t17.5 -36.5zM103 53q-3 -19 -17.5 -33.5t-33.5 -17.5q-23 3 -37.5 17.5t-14.5 33.5q0 23 14.5 37.5t37.5 14.5q19 0 33.5 -14.5t17.5 -37.5z" />
    <glyph glyph-name="zero" unicode="0" horiz-adv-x="748" 
d="M103 699q-3 -20 -17.5 -34.5t-33.5 -17.5q-23 3 -37.5 17.5t-14.5 34.5q0 22 14.5 36.5t37.5 14.5q19 0 33.5 -14.5t17.5 -36.5zM103 569q-3 -19 -17.5 -33.5t-33.5 -17.5q-23 3 -37.5 17.5t-14.5 33.5q0 23 14.5 37.5t37.5 14.5q19 0 33.5 -14.5t17.5 -37.5zM103 440
q-3 -19 -17.5 -33.5t-33.5 -18.5q-23 4 -37.5 18.5t-14.5 33.5q0 23 14.5 37.5t37.5 14.5q19 0 33.5 -14.5t17.5 -37.5zM103 311q-3 -20 -17.5 -34t-33.5 -17q-23 3 -37.5 17t-14.5 34q0 22 14.5 37t37.5 15q19 0 33.5 -15t17.5 -37zM233 311q-4 -20 -18.5 -34t-33.5 -17
q-23 3 -37.5 17t-14.5 34q0 22 14.5 37t37.5 15q19 0 33.5 -15t18.5 -37zM620 311q-3 -20 -17.5 -34t-33.5 -17q-23 3 -37.5 17t-14.5 34q0 22 14.5 37t37.5 15q19 0 33.5 -15t17.5 -37zM362 440q-3 -19 -17.5 -33.5t-34.5 -18.5q-22 4 -37 18.5t-15 33.5q0 23 15 37.5
t37 14.5q20 0 34.5 -14.5t17.5 -37.5zM620 440q-3 -19 -17.5 -33.5t-33.5 -18.5q-23 4 -37.5 18.5t-14.5 33.5q0 23 14.5 37.5t37.5 14.5q19 0 33.5 -14.5t17.5 -37.5zM491 569q-3 -19 -17.5 -33.5t-34.5 -17.5q-22 3 -36.5 17.5t-14.5 33.5q0 23 14.5 37.5t36.5 14.5
q20 0 34.5 -14.5t17.5 -37.5zM620 569q-3 -19 -17.5 -33.5t-33.5 -17.5q-23 3 -37.5 17.5t-14.5 33.5q0 23 14.5 37.5t37.5 14.5q19 0 33.5 -14.5t17.5 -37.5zM620 699q-3 -20 -17.5 -34.5t-33.5 -17.5q-23 3 -37.5 17.5t-14.5 34.5q0 22 14.5 36.5t37.5 14.5
q19 0 33.5 -14.5t17.5 -36.5zM233 828q-4 -20 -18.5 -34.5t-33.5 -17.5q-23 3 -37.5 17.5t-14.5 34.5q0 22 14.5 36.5t37.5 14.5q19 0 33.5 -14.5t18.5 -36.5zM362 828q-3 -20 -17.5 -34.5t-34.5 -17.5q-22 3 -37 17.5t-15 34.5q0 22 15 36.5t37 14.5q20 0 34.5 -14.5
t17.5 -36.5zM491 828q-3 -20 -17.5 -34.5t-34.5 -17.5q-22 3 -36.5 17.5t-14.5 34.5q0 22 14.5 36.5t36.5 14.5q20 0 34.5 -14.5t17.5 -36.5zM620 183q-3 -20 -17.5 -34.5t-33.5 -17.5q-23 3 -37.5 17.5t-14.5 34.5q0 22 14.5 36.5t37.5 14.5q19 0 33.5 -14.5t17.5 -36.5z
M233 53q-4 -19 -18.5 -33.5t-33.5 -17.5q-23 3 -37.5 17.5t-14.5 33.5q0 23 14.5 37.5t37.5 14.5q19 0 33.5 -14.5t18.5 -37.5zM362 53q-3 -19 -17.5 -33.5t-34.5 -17.5q-22 3 -37 17.5t-15 33.5q0 23 15 37.5t37 14.5q20 0 34.5 -14.5t17.5 -37.5zM491 53
q-3 -19 -17.5 -33.5t-34.5 -17.5q-22 3 -36.5 17.5t-14.5 33.5q0 23 14.5 37.5t36.5 14.5q20 0 34.5 -14.5t17.5 -37.5zM103 183q-3 -20 -17.5 -34.5t-33.5 -17.5q-23 3 -37.5 17.5t-14.5 34.5q0 22 14.5 36.5t37.5 14.5q19 0 33.5 -14.5t17.5 -36.5z" />
    <glyph glyph-name="one" unicode="1" horiz-adv-x="490" 
d="M233 311q-3 -20 -17.5 -34t-34.5 -17q-22 3 -37 17t-15 34q0 22 15 37t37 15q20 0 34.5 -15t17.5 -37zM233 440q-3 -19 -17.5 -33.5t-34.5 -18.5q-22 4 -37 18.5t-15 33.5q0 23 15 37.5t37 14.5q20 0 34.5 -14.5t17.5 -37.5zM233 569q-3 -19 -17.5 -33.5t-34.5 -17.5
q-22 3 -37 17.5t-15 33.5q0 23 15 37.5t37 14.5q20 0 34.5 -14.5t17.5 -37.5zM104 699q-4 -20 -18.5 -34.5t-33.5 -17.5q-23 3 -37.5 17.5t-14.5 34.5q0 22 14.5 36.5t37.5 14.5q19 0 33.5 -14.5t18.5 -36.5zM233 699q-3 -20 -17.5 -34.5t-34.5 -17.5q-22 3 -37 17.5
t-15 34.5q0 22 15 36.5t37 14.5q20 0 34.5 -14.5t17.5 -36.5zM233 828q-3 -20 -17.5 -34.5t-34.5 -17.5q-22 3 -37 17.5t-15 34.5q0 22 15 36.5t37 14.5q20 0 34.5 -14.5t17.5 -36.5zM233 183q-3 -20 -17.5 -34.5t-34.5 -17.5q-22 3 -37 17.5t-15 34.5q0 22 15 36.5t37 14.5
q20 0 34.5 -14.5t17.5 -36.5zM104 53q-4 -19 -18.5 -33.5t-33.5 -17.5q-23 3 -37.5 17.5t-14.5 33.5q0 23 14.5 37.5t37.5 14.5q19 0 33.5 -14.5t18.5 -37.5zM233 53q-3 -19 -17.5 -33.5t-34.5 -17.5q-22 3 -37 17.5t-15 33.5q0 23 15 37.5t37 14.5q20 0 34.5 -14.5
t17.5 -37.5zM362 53q-3 -19 -17.5 -33.5t-34.5 -17.5q-22 3 -36.5 17.5t-14.5 33.5q0 23 14.5 37.5t36.5 14.5q20 0 34.5 -14.5t17.5 -37.5z" />
    <glyph glyph-name="two" unicode="2" horiz-adv-x="748" 
d="M103 311q-3 -20 -17.5 -34t-33.5 -17q-23 3 -37.5 17t-14.5 34q0 22 14.5 37t37.5 15q19 0 33.5 -15t17.5 -37zM233 440q-4 -19 -18.5 -33.5t-33.5 -18.5q-23 4 -37.5 18.5t-14.5 33.5q0 23 14.5 37.5t37.5 14.5q19 0 33.5 -14.5t18.5 -37.5zM362 440q-3 -19 -17.5 -33.5
t-34.5 -18.5q-22 4 -37 18.5t-15 33.5q0 23 15 37.5t37 14.5q20 0 34.5 -14.5t17.5 -37.5zM491 440q-3 -19 -17.5 -33.5t-34.5 -18.5q-22 4 -36.5 18.5t-14.5 33.5q0 23 14.5 37.5t36.5 14.5q20 0 34.5 -14.5t17.5 -37.5zM620 569q-3 -19 -17.5 -33.5t-33.5 -17.5
q-23 3 -37.5 17.5t-14.5 33.5q0 23 14.5 37.5t37.5 14.5q19 0 33.5 -14.5t17.5 -37.5zM620 699q-3 -20 -17.5 -34.5t-33.5 -17.5q-23 3 -37.5 17.5t-14.5 34.5q0 22 14.5 36.5t37.5 14.5q19 0 33.5 -14.5t17.5 -36.5zM103 828q-3 -20 -17.5 -34.5t-33.5 -17.5
q-23 3 -37.5 17.5t-14.5 34.5q0 22 14.5 36.5t37.5 14.5q19 0 33.5 -14.5t17.5 -36.5zM233 828q-4 -20 -18.5 -34.5t-33.5 -17.5q-23 3 -37.5 17.5t-14.5 34.5q0 22 14.5 36.5t37.5 14.5q19 0 33.5 -14.5t18.5 -36.5zM362 828q-3 -20 -17.5 -34.5t-34.5 -17.5
q-22 3 -37 17.5t-15 34.5q0 22 15 36.5t37 14.5q20 0 34.5 -14.5t17.5 -36.5zM491 828q-3 -20 -17.5 -34.5t-34.5 -17.5q-22 3 -36.5 17.5t-14.5 34.5q0 22 14.5 36.5t36.5 14.5q20 0 34.5 -14.5t17.5 -36.5zM233 53q-4 -19 -18.5 -33.5t-33.5 -17.5q-23 3 -37.5 17.5
t-14.5 33.5q0 23 14.5 37.5t37.5 14.5q19 0 33.5 -14.5t18.5 -37.5zM362 53q-3 -19 -17.5 -33.5t-34.5 -17.5q-22 3 -37 17.5t-15 33.5q0 23 15 37.5t37 14.5q20 0 34.5 -14.5t17.5 -37.5zM491 53q-3 -19 -17.5 -33.5t-34.5 -17.5q-22 3 -36.5 17.5t-14.5 33.5
q0 23 14.5 37.5t36.5 14.5q20 0 34.5 -14.5t17.5 -37.5zM620 53q-3 -19 -17.5 -33.5t-33.5 -17.5q-23 3 -37.5 17.5t-14.5 33.5q0 23 14.5 37.5t37.5 14.5q19 0 33.5 -14.5t17.5 -37.5zM103 183q-3 -20 -17.5 -34.5t-33.5 -17.5q-23 3 -37.5 17.5t-14.5 34.5q0 22 14.5 36.5
t37.5 14.5q19 0 33.5 -14.5t17.5 -36.5zM103 53q-3 -19 -17.5 -33.5t-33.5 -17.5q-23 3 -37.5 17.5t-14.5 33.5q0 23 14.5 37.5t37.5 14.5q19 0 33.5 -14.5t17.5 -37.5z" />
    <glyph glyph-name="three" unicode="3" horiz-adv-x="748" 
d="M103 440q-3 -19 -17.5 -33.5t-33.5 -18.5q-23 4 -37.5 18.5t-14.5 33.5q0 23 14.5 37.5t37.5 14.5q19 0 33.5 -14.5t17.5 -37.5zM620 311q-3 -20 -17.5 -34t-33.5 -17q-23 3 -37.5 17t-14.5 34q0 22 14.5 37t37.5 15q19 0 33.5 -15t17.5 -37zM233 440q-4 -19 -18.5 -33.5
t-33.5 -18.5q-23 4 -37.5 18.5t-14.5 33.5q0 23 14.5 37.5t37.5 14.5q19 0 33.5 -14.5t18.5 -37.5zM362 440q-3 -19 -17.5 -33.5t-34.5 -18.5q-22 4 -37 18.5t-15 33.5q0 23 15 37.5t37 14.5q20 0 34.5 -14.5t17.5 -37.5zM491 440q-3 -19 -17.5 -33.5t-34.5 -18.5
q-22 4 -36.5 18.5t-14.5 33.5q0 23 14.5 37.5t36.5 14.5q20 0 34.5 -14.5t17.5 -37.5zM620 569q-3 -19 -17.5 -33.5t-33.5 -17.5q-23 3 -37.5 17.5t-14.5 33.5q0 23 14.5 37.5t37.5 14.5q19 0 33.5 -14.5t17.5 -37.5zM620 699q-3 -20 -17.5 -34.5t-33.5 -17.5
q-23 3 -37.5 17.5t-14.5 34.5q0 22 14.5 36.5t37.5 14.5q19 0 33.5 -14.5t17.5 -36.5zM103 828q-3 -20 -17.5 -34.5t-33.5 -17.5q-23 3 -37.5 17.5t-14.5 34.5q0 22 14.5 36.5t37.5 14.5q19 0 33.5 -14.5t17.5 -36.5zM233 828q-4 -20 -18.5 -34.5t-33.5 -17.5
q-23 3 -37.5 17.5t-14.5 34.5q0 22 14.5 36.5t37.5 14.5q19 0 33.5 -14.5t18.5 -36.5zM362 828q-3 -20 -17.5 -34.5t-34.5 -17.5q-22 3 -37 17.5t-15 34.5q0 22 15 36.5t37 14.5q20 0 34.5 -14.5t17.5 -36.5zM491 828q-3 -20 -17.5 -34.5t-34.5 -17.5q-22 3 -36.5 17.5
t-14.5 34.5q0 22 14.5 36.5t36.5 14.5q20 0 34.5 -14.5t17.5 -36.5zM620 183q-3 -20 -17.5 -34.5t-33.5 -17.5q-23 3 -37.5 17.5t-14.5 34.5q0 22 14.5 36.5t37.5 14.5q19 0 33.5 -14.5t17.5 -36.5zM233 53q-4 -19 -18.5 -33.5t-33.5 -17.5q-23 3 -37.5 17.5t-14.5 33.5
q0 23 14.5 37.5t37.5 14.5q19 0 33.5 -14.5t18.5 -37.5zM362 53q-3 -19 -17.5 -33.5t-34.5 -17.5q-22 3 -37 17.5t-15 33.5q0 23 15 37.5t37 14.5q20 0 34.5 -14.5t17.5 -37.5zM491 53q-3 -19 -17.5 -33.5t-34.5 -17.5q-22 3 -36.5 17.5t-14.5 33.5q0 23 14.5 37.5
t36.5 14.5q20 0 34.5 -14.5t17.5 -37.5zM103 53q-3 -19 -17.5 -33.5t-33.5 -17.5q-23 3 -37.5 17.5t-14.5 33.5q0 23 14.5 37.5t37.5 14.5q19 0 33.5 -14.5t17.5 -37.5z" />
    <glyph glyph-name="four" unicode="4" horiz-adv-x="748" 
d="M103 699q-3 -20 -17.5 -34.5t-33.5 -17.5q-23 3 -37.5 17.5t-14.5 34.5q0 22 14.5 36.5t37.5 14.5q19 0 33.5 -14.5t17.5 -36.5zM103 569q-3 -19 -17.5 -33.5t-33.5 -17.5q-23 3 -37.5 17.5t-14.5 33.5q0 23 14.5 37.5t37.5 14.5q19 0 33.5 -14.5t17.5 -37.5zM491 311
q-3 -20 -17.5 -34t-34.5 -17q-22 3 -36.5 17t-14.5 34q0 22 14.5 37t36.5 15q20 0 34.5 -15t17.5 -37zM233 440q-4 -19 -18.5 -33.5t-33.5 -18.5q-23 4 -37.5 18.5t-14.5 33.5q0 23 14.5 37.5t37.5 14.5q19 0 33.5 -14.5t18.5 -37.5zM362 440q-3 -19 -17.5 -33.5
t-34.5 -18.5q-22 4 -37 18.5t-15 33.5q0 23 15 37.5t37 14.5q20 0 34.5 -14.5t17.5 -37.5zM491 440q-3 -19 -17.5 -33.5t-34.5 -18.5q-22 4 -36.5 18.5t-14.5 33.5q0 23 14.5 37.5t36.5 14.5q20 0 34.5 -14.5t17.5 -37.5zM620 440q-3 -19 -17.5 -33.5t-33.5 -18.5
q-23 4 -37.5 18.5t-14.5 33.5q0 23 14.5 37.5t37.5 14.5q19 0 33.5 -14.5t17.5 -37.5zM491 569q-3 -19 -17.5 -33.5t-34.5 -17.5q-22 3 -36.5 17.5t-14.5 33.5q0 23 14.5 37.5t36.5 14.5q20 0 34.5 -14.5t17.5 -37.5zM491 699q-3 -20 -17.5 -34.5t-34.5 -17.5
q-22 3 -36.5 17.5t-14.5 34.5q0 22 14.5 36.5t36.5 14.5q20 0 34.5 -14.5t17.5 -36.5zM103 828q-3 -20 -17.5 -34.5t-33.5 -17.5q-23 3 -37.5 17.5t-14.5 34.5q0 22 14.5 36.5t37.5 14.5q19 0 33.5 -14.5t17.5 -36.5zM491 828q-3 -20 -17.5 -34.5t-34.5 -17.5
q-22 3 -36.5 17.5t-14.5 34.5q0 22 14.5 36.5t36.5 14.5q20 0 34.5 -14.5t17.5 -36.5zM491 183q-3 -20 -17.5 -34.5t-34.5 -17.5q-22 3 -36.5 17.5t-14.5 34.5q0 22 14.5 36.5t36.5 14.5q20 0 34.5 -14.5t17.5 -36.5zM491 53q-3 -19 -17.5 -33.5t-34.5 -17.5
q-22 3 -36.5 17.5t-14.5 33.5q0 23 14.5 37.5t36.5 14.5q20 0 34.5 -14.5t17.5 -37.5z" />
    <glyph glyph-name="five" unicode="5" horiz-adv-x="748" 
d="M103 699q-3 -20 -17.5 -34.5t-33.5 -17.5q-23 3 -37.5 17.5t-14.5 34.5q0 22 14.5 36.5t37.5 14.5q19 0 33.5 -14.5t17.5 -36.5zM103 569q-3 -19 -17.5 -33.5t-33.5 -17.5q-23 3 -37.5 17.5t-14.5 33.5q0 23 14.5 37.5t37.5 14.5q19 0 33.5 -14.5t17.5 -37.5zM103 440
q-3 -19 -17.5 -33.5t-33.5 -18.5q-23 4 -37.5 18.5t-14.5 33.5q0 23 14.5 37.5t37.5 14.5q19 0 33.5 -14.5t17.5 -37.5zM620 311q-3 -20 -17.5 -34t-33.5 -17q-23 3 -37.5 17t-14.5 34q0 22 14.5 37t37.5 15q19 0 33.5 -15t17.5 -37zM233 440q-4 -19 -18.5 -33.5
t-33.5 -18.5q-23 4 -37.5 18.5t-14.5 33.5q0 23 14.5 37.5t37.5 14.5q19 0 33.5 -14.5t18.5 -37.5zM362 440q-3 -19 -17.5 -33.5t-34.5 -18.5q-22 4 -37 18.5t-15 33.5q0 23 15 37.5t37 14.5q20 0 34.5 -14.5t17.5 -37.5zM491 440q-3 -19 -17.5 -33.5t-34.5 -18.5
q-22 4 -36.5 18.5t-14.5 33.5q0 23 14.5 37.5t36.5 14.5q20 0 34.5 -14.5t17.5 -37.5zM103 828q-3 -20 -17.5 -34.5t-33.5 -17.5q-23 3 -37.5 17.5t-14.5 34.5q0 22 14.5 36.5t37.5 14.5q19 0 33.5 -14.5t17.5 -36.5zM233 828q-4 -20 -18.5 -34.5t-33.5 -17.5
q-23 3 -37.5 17.5t-14.5 34.5q0 22 14.5 36.5t37.5 14.5q19 0 33.5 -14.5t18.5 -36.5zM362 828q-3 -20 -17.5 -34.5t-34.5 -17.5q-22 3 -37 17.5t-15 34.5q0 22 15 36.5t37 14.5q20 0 34.5 -14.5t17.5 -36.5zM491 828q-3 -20 -17.5 -34.5t-34.5 -17.5q-22 3 -36.5 17.5
t-14.5 34.5q0 22 14.5 36.5t36.5 14.5q20 0 34.5 -14.5t17.5 -36.5zM620 828q-3 -20 -17.5 -34.5t-33.5 -17.5q-23 3 -37.5 17.5t-14.5 34.5q0 22 14.5 36.5t37.5 14.5q19 0 33.5 -14.5t17.5 -36.5zM620 183q-3 -20 -17.5 -34.5t-33.5 -17.5q-23 3 -37.5 17.5t-14.5 34.5
q0 22 14.5 36.5t37.5 14.5q19 0 33.5 -14.5t17.5 -36.5zM233 53q-4 -19 -18.5 -33.5t-33.5 -17.5q-23 3 -37.5 17.5t-14.5 33.5q0 23 14.5 37.5t37.5 14.5q19 0 33.5 -14.5t18.5 -37.5zM362 53q-3 -19 -17.5 -33.5t-34.5 -17.5q-22 3 -37 17.5t-15 33.5q0 23 15 37.5
t37 14.5q20 0 34.5 -14.5t17.5 -37.5zM491 53q-3 -19 -17.5 -33.5t-34.5 -17.5q-22 3 -36.5 17.5t-14.5 33.5q0 23 14.5 37.5t36.5 14.5q20 0 34.5 -14.5t17.5 -37.5zM103 53q-3 -19 -17.5 -33.5t-33.5 -17.5q-23 3 -37.5 17.5t-14.5 33.5q0 23 14.5 37.5t37.5 14.5
q19 0 33.5 -14.5t17.5 -37.5z" />
    <glyph glyph-name="six" unicode="6" horiz-adv-x="748" 
d="M103 699q-3 -20 -17.5 -34.5t-33.5 -17.5q-23 3 -37.5 17.5t-14.5 34.5q0 22 14.5 36.5t37.5 14.5q19 0 33.5 -14.5t17.5 -36.5zM103 569q-3 -19 -17.5 -33.5t-33.5 -17.5q-23 3 -37.5 17.5t-14.5 33.5q0 23 14.5 37.5t37.5 14.5q19 0 33.5 -14.5t17.5 -37.5zM103 440
q-3 -19 -17.5 -33.5t-33.5 -18.5q-23 4 -37.5 18.5t-14.5 33.5q0 23 14.5 37.5t37.5 14.5q19 0 33.5 -14.5t17.5 -37.5zM103 311q-3 -20 -17.5 -34t-33.5 -17q-23 3 -37.5 17t-14.5 34q0 22 14.5 37t37.5 15q19 0 33.5 -15t17.5 -37zM620 311q-3 -20 -17.5 -34t-33.5 -17
q-23 3 -37.5 17t-14.5 34q0 22 14.5 37t37.5 15q19 0 33.5 -15t17.5 -37zM233 440q-4 -19 -18.5 -33.5t-33.5 -18.5q-23 4 -37.5 18.5t-14.5 33.5q0 23 14.5 37.5t37.5 14.5q19 0 33.5 -14.5t18.5 -37.5zM362 440q-3 -19 -17.5 -33.5t-34.5 -18.5q-22 4 -37 18.5t-15 33.5
q0 23 15 37.5t37 14.5q20 0 34.5 -14.5t17.5 -37.5zM491 440q-3 -19 -17.5 -33.5t-34.5 -18.5q-22 4 -36.5 18.5t-14.5 33.5q0 23 14.5 37.5t36.5 14.5q20 0 34.5 -14.5t17.5 -37.5zM233 828q-4 -20 -18.5 -34.5t-33.5 -17.5q-23 3 -37.5 17.5t-14.5 34.5q0 22 14.5 36.5
t37.5 14.5q19 0 33.5 -14.5t18.5 -36.5zM362 828q-3 -20 -17.5 -34.5t-34.5 -17.5q-22 3 -37 17.5t-15 34.5q0 22 15 36.5t37 14.5q20 0 34.5 -14.5t17.5 -36.5zM491 828q-3 -20 -17.5 -34.5t-34.5 -17.5q-22 3 -36.5 17.5t-14.5 34.5q0 22 14.5 36.5t36.5 14.5
q20 0 34.5 -14.5t17.5 -36.5zM620 183q-3 -20 -17.5 -34.5t-33.5 -17.5q-23 3 -37.5 17.5t-14.5 34.5q0 22 14.5 36.5t37.5 14.5q19 0 33.5 -14.5t17.5 -36.5zM233 53q-4 -19 -18.5 -33.5t-33.5 -17.5q-23 3 -37.5 17.5t-14.5 33.5q0 23 14.5 37.5t37.5 14.5
q19 0 33.5 -14.5t18.5 -37.5zM362 53q-3 -19 -17.5 -33.5t-34.5 -17.5q-22 3 -37 17.5t-15 33.5q0 23 15 37.5t37 14.5q20 0 34.5 -14.5t17.5 -37.5zM491 53q-3 -19 -17.5 -33.5t-34.5 -17.5q-22 3 -36.5 17.5t-14.5 33.5q0 23 14.5 37.5t36.5 14.5q20 0 34.5 -14.5
t17.5 -37.5zM103 183q-3 -20 -17.5 -34.5t-33.5 -17.5q-23 3 -37.5 17.5t-14.5 34.5q0 22 14.5 36.5t37.5 14.5q19 0 33.5 -14.5t17.5 -36.5z" />
    <glyph glyph-name="seven" unicode="7" horiz-adv-x="748" 
d="M103 699q-3 -20 -17.5 -34.5t-33.5 -17.5q-23 3 -37.5 17.5t-14.5 34.5q0 22 14.5 36.5t37.5 14.5q19 0 33.5 -14.5t17.5 -36.5zM103 569q-3 -19 -17.5 -33.5t-33.5 -17.5q-23 3 -37.5 17.5t-14.5 33.5q0 23 14.5 37.5t37.5 14.5q19 0 33.5 -14.5t17.5 -37.5zM362 311
q-3 -20 -17.5 -34t-34.5 -17q-22 3 -37 17t-15 34q0 22 15 37t37 15q20 0 34.5 -15t17.5 -37zM491 440q-3 -19 -17.5 -33.5t-34.5 -18.5q-22 4 -36.5 18.5t-14.5 33.5q0 23 14.5 37.5t36.5 14.5q20 0 34.5 -14.5t17.5 -37.5zM620 569q-3 -19 -17.5 -33.5t-33.5 -17.5
q-23 3 -37.5 17.5t-14.5 33.5q0 23 14.5 37.5t37.5 14.5q19 0 33.5 -14.5t17.5 -37.5zM620 699q-3 -20 -17.5 -34.5t-33.5 -17.5q-23 3 -37.5 17.5t-14.5 34.5q0 22 14.5 36.5t37.5 14.5q19 0 33.5 -14.5t17.5 -36.5zM103 828q-3 -20 -17.5 -34.5t-33.5 -17.5
q-23 3 -37.5 17.5t-14.5 34.5q0 22 14.5 36.5t37.5 14.5q19 0 33.5 -14.5t17.5 -36.5zM233 828q-4 -20 -18.5 -34.5t-33.5 -17.5q-23 3 -37.5 17.5t-14.5 34.5q0 22 14.5 36.5t37.5 14.5q19 0 33.5 -14.5t18.5 -36.5zM362 828q-3 -20 -17.5 -34.5t-34.5 -17.5
q-22 3 -37 17.5t-15 34.5q0 22 15 36.5t37 14.5q20 0 34.5 -14.5t17.5 -36.5zM491 828q-3 -20 -17.5 -34.5t-34.5 -17.5q-22 3 -36.5 17.5t-14.5 34.5q0 22 14.5 36.5t36.5 14.5q20 0 34.5 -14.5t17.5 -36.5zM620 828q-3 -20 -17.5 -34.5t-33.5 -17.5q-23 3 -37.5 17.5
t-14.5 34.5q0 22 14.5 36.5t37.5 14.5q19 0 33.5 -14.5t17.5 -36.5zM362 183q-3 -20 -17.5 -34.5t-34.5 -17.5q-22 3 -37 17.5t-15 34.5q0 22 15 36.5t37 14.5q20 0 34.5 -14.5t17.5 -36.5zM362 53q-3 -19 -17.5 -33.5t-34.5 -17.5q-22 3 -37 17.5t-15 33.5q0 23 15 37.5
t37 14.5q20 0 34.5 -14.5t17.5 -37.5z" />
    <glyph glyph-name="eight" unicode="8" horiz-adv-x="748" 
d="M103 699q-3 -20 -17.5 -34.5t-33.5 -17.5q-23 3 -37.5 17.5t-14.5 34.5q0 22 14.5 36.5t37.5 14.5q19 0 33.5 -14.5t17.5 -36.5zM103 569q-3 -19 -17.5 -33.5t-33.5 -17.5q-23 3 -37.5 17.5t-14.5 33.5q0 23 14.5 37.5t37.5 14.5q19 0 33.5 -14.5t17.5 -37.5zM103 311
q-3 -20 -17.5 -34t-33.5 -17q-23 3 -37.5 17t-14.5 34q0 22 14.5 37t37.5 15q19 0 33.5 -15t17.5 -37zM620 311q-3 -20 -17.5 -34t-33.5 -17q-23 3 -37.5 17t-14.5 34q0 22 14.5 37t37.5 15q19 0 33.5 -15t17.5 -37zM233 440q-4 -19 -18.5 -33.5t-33.5 -18.5
q-23 4 -37.5 18.5t-14.5 33.5q0 23 14.5 37.5t37.5 14.5q19 0 33.5 -14.5t18.5 -37.5zM362 440q-3 -19 -17.5 -33.5t-34.5 -18.5q-22 4 -37 18.5t-15 33.5q0 23 15 37.5t37 14.5q20 0 34.5 -14.5t17.5 -37.5zM491 440q-3 -19 -17.5 -33.5t-34.5 -18.5q-22 4 -36.5 18.5
t-14.5 33.5q0 23 14.5 37.5t36.5 14.5q20 0 34.5 -14.5t17.5 -37.5zM620 569q-3 -19 -17.5 -33.5t-33.5 -17.5q-23 3 -37.5 17.5t-14.5 33.5q0 23 14.5 37.5t37.5 14.5q19 0 33.5 -14.5t17.5 -37.5zM620 699q-3 -20 -17.5 -34.5t-33.5 -17.5q-23 3 -37.5 17.5t-14.5 34.5
q0 22 14.5 36.5t37.5 14.5q19 0 33.5 -14.5t17.5 -36.5zM233 828q-4 -20 -18.5 -34.5t-33.5 -17.5q-23 3 -37.5 17.5t-14.5 34.5q0 22 14.5 36.5t37.5 14.5q19 0 33.5 -14.5t18.5 -36.5zM362 828q-3 -20 -17.5 -34.5t-34.5 -17.5q-22 3 -37 17.5t-15 34.5q0 22 15 36.5
t37 14.5q20 0 34.5 -14.5t17.5 -36.5zM491 828q-3 -20 -17.5 -34.5t-34.5 -17.5q-22 3 -36.5 17.5t-14.5 34.5q0 22 14.5 36.5t36.5 14.5q20 0 34.5 -14.5t17.5 -36.5zM620 183q-3 -20 -17.5 -34.5t-33.5 -17.5q-23 3 -37.5 17.5t-14.5 34.5q0 22 14.5 36.5t37.5 14.5
q19 0 33.5 -14.5t17.5 -36.5zM233 53q-4 -19 -18.5 -33.5t-33.5 -17.5q-23 3 -37.5 17.5t-14.5 33.5q0 23 14.5 37.5t37.5 14.5q19 0 33.5 -14.5t18.5 -37.5zM362 53q-3 -19 -17.5 -33.5t-34.5 -17.5q-22 3 -37 17.5t-15 33.5q0 23 15 37.5t37 14.5q20 0 34.5 -14.5
t17.5 -37.5zM491 53q-3 -19 -17.5 -33.5t-34.5 -17.5q-22 3 -36.5 17.5t-14.5 33.5q0 23 14.5 37.5t36.5 14.5q20 0 34.5 -14.5t17.5 -37.5zM103 183q-3 -20 -17.5 -34.5t-33.5 -17.5q-23 3 -37.5 17.5t-14.5 34.5q0 22 14.5 36.5t37.5 14.5q19 0 33.5 -14.5t17.5 -36.5z
" />
    <glyph glyph-name="nine" unicode="9" horiz-adv-x="748" 
d="M103 699q-3 -20 -17.5 -34.5t-33.5 -17.5q-23 3 -37.5 17.5t-14.5 34.5q0 22 14.5 36.5t37.5 14.5q19 0 33.5 -14.5t17.5 -36.5zM103 569q-3 -19 -17.5 -33.5t-33.5 -17.5q-23 3 -37.5 17.5t-14.5 33.5q0 23 14.5 37.5t37.5 14.5q19 0 33.5 -14.5t17.5 -37.5zM620 311
q-3 -20 -17.5 -34t-33.5 -17q-23 3 -37.5 17t-14.5 34q0 22 14.5 37t37.5 15q19 0 33.5 -15t17.5 -37zM233 440q-4 -19 -18.5 -33.5t-33.5 -18.5q-23 4 -37.5 18.5t-14.5 33.5q0 23 14.5 37.5t37.5 14.5q19 0 33.5 -14.5t18.5 -37.5zM362 440q-3 -19 -17.5 -33.5
t-34.5 -18.5q-22 4 -37 18.5t-15 33.5q0 23 15 37.5t37 14.5q20 0 34.5 -14.5t17.5 -37.5zM491 440q-3 -19 -17.5 -33.5t-34.5 -18.5q-22 4 -36.5 18.5t-14.5 33.5q0 23 14.5 37.5t36.5 14.5q20 0 34.5 -14.5t17.5 -37.5zM620 440q-3 -19 -17.5 -33.5t-33.5 -18.5
q-23 4 -37.5 18.5t-14.5 33.5q0 23 14.5 37.5t37.5 14.5q19 0 33.5 -14.5t17.5 -37.5zM620 569q-3 -19 -17.5 -33.5t-33.5 -17.5q-23 3 -37.5 17.5t-14.5 33.5q0 23 14.5 37.5t37.5 14.5q19 0 33.5 -14.5t17.5 -37.5zM620 699q-3 -20 -17.5 -34.5t-33.5 -17.5
q-23 3 -37.5 17.5t-14.5 34.5q0 22 14.5 36.5t37.5 14.5q19 0 33.5 -14.5t17.5 -36.5zM233 828q-4 -20 -18.5 -34.5t-33.5 -17.5q-23 3 -37.5 17.5t-14.5 34.5q0 22 14.5 36.5t37.5 14.5q19 0 33.5 -14.5t18.5 -36.5zM362 828q-3 -20 -17.5 -34.5t-34.5 -17.5
q-22 3 -37 17.5t-15 34.5q0 22 15 36.5t37 14.5q20 0 34.5 -14.5t17.5 -36.5zM491 828q-3 -20 -17.5 -34.5t-34.5 -17.5q-22 3 -36.5 17.5t-14.5 34.5q0 22 14.5 36.5t36.5 14.5q20 0 34.5 -14.5t17.5 -36.5zM620 183q-3 -20 -17.5 -34.5t-33.5 -17.5q-23 3 -37.5 17.5
t-14.5 34.5q0 22 14.5 36.5t37.5 14.5q19 0 33.5 -14.5t17.5 -36.5zM233 53q-4 -19 -18.5 -33.5t-33.5 -17.5q-23 3 -37.5 17.5t-14.5 33.5q0 23 14.5 37.5t37.5 14.5q19 0 33.5 -14.5t18.5 -37.5zM362 53q-3 -19 -17.5 -33.5t-34.5 -17.5q-22 3 -37 17.5t-15 33.5
q0 23 15 37.5t37 14.5q20 0 34.5 -14.5t17.5 -37.5zM491 53q-3 -19 -17.5 -33.5t-34.5 -17.5q-22 3 -36.5 17.5t-14.5 33.5q0 23 14.5 37.5t36.5 14.5q20 0 34.5 -14.5t17.5 -37.5z" />
    <glyph glyph-name="colon" unicode=":" horiz-adv-x="231" 
d="M103 569q-3 -19 -17.5 -33.5t-33.5 -17.5q-23 3 -37.5 17.5t-14.5 33.5q0 23 14.5 37.5t37.5 14.5q19 0 33.5 -14.5t17.5 -37.5zM103 311q-3 -20 -17.5 -34t-33.5 -17q-23 3 -37.5 17t-14.5 34q0 22 14.5 37t37.5 15q19 0 33.5 -15t17.5 -37z" />
    <glyph glyph-name="semicolon" unicode=";" horiz-adv-x="231" 
d="M103 569q-3 -19 -17.5 -33.5t-33.5 -17.5q-23 3 -37.5 17.5t-14.5 33.5q0 23 14.5 37.5t37.5 14.5q19 0 33.5 -14.5t17.5 -37.5zM103 311q-3 -20 -17.5 -34t-33.5 -17q-23 3 -37.5 17t-14.5 34q0 22 14.5 37t37.5 15q19 0 33.5 -15t17.5 -37zM103 183q-3 -20 -17.5 -34.5
t-33.5 -17.5q-23 3 -37.5 17.5t-14.5 34.5q0 22 14.5 36.5t37.5 14.5q19 0 33.5 -14.5t17.5 -36.5z" />
    <glyph glyph-name="less" unicode="&#x3c;" horiz-adv-x="490" 
d="M103 440q-3 -19 -17.5 -33.5t-33.5 -18.5q-23 4 -37.5 18.5t-14.5 33.5q0 23 14.5 37.5t37.5 14.5q19 0 33.5 -14.5t17.5 -37.5zM233 311q-4 -20 -18.5 -34t-33.5 -17q-23 3 -37.5 17t-14.5 34q0 22 14.5 37t37.5 15q19 0 33.5 -15t18.5 -37zM233 569q-4 -19 -18.5 -33.5
t-33.5 -17.5q-23 3 -37.5 17.5t-14.5 33.5q0 23 14.5 37.5t37.5 14.5q19 0 33.5 -14.5t18.5 -37.5zM362 699q-3 -20 -17.5 -34.5t-34.5 -17.5q-22 3 -37 17.5t-15 34.5q0 22 15 36.5t37 14.5q20 0 34.5 -14.5t17.5 -36.5zM362 183q-3 -20 -17.5 -34.5t-34.5 -17.5
q-22 3 -37 17.5t-15 34.5q0 22 15 36.5t37 14.5q20 0 34.5 -14.5t17.5 -36.5z" />
    <glyph glyph-name="equal" unicode="=" horiz-adv-x="748" 
d="M103 569q-3 -19 -17.5 -33.5t-33.5 -17.5q-23 3 -37.5 17.5t-14.5 33.5q0 23 14.5 37.5t37.5 14.5q19 0 33.5 -14.5t17.5 -37.5zM103 311q-3 -20 -17.5 -34t-33.5 -17q-23 3 -37.5 17t-14.5 34q0 22 14.5 37t37.5 15q19 0 33.5 -15t17.5 -37zM233 311q-4 -20 -18.5 -34
t-33.5 -17q-23 3 -37.5 17t-14.5 34q0 22 14.5 37t37.5 15q19 0 33.5 -15t18.5 -37zM362 311q-3 -20 -17.5 -34t-34.5 -17q-22 3 -37 17t-15 34q0 22 15 37t37 15q20 0 34.5 -15t17.5 -37zM491 311q-3 -20 -17.5 -34t-34.5 -17q-22 3 -36.5 17t-14.5 34q0 22 14.5 37
t36.5 15q20 0 34.5 -15t17.5 -37zM620 311q-3 -20 -17.5 -34t-33.5 -17q-23 3 -37.5 17t-14.5 34q0 22 14.5 37t37.5 15q19 0 33.5 -15t17.5 -37zM233 569q-4 -19 -18.5 -33.5t-33.5 -17.5q-23 3 -37.5 17.5t-14.5 33.5q0 23 14.5 37.5t37.5 14.5q19 0 33.5 -14.5
t18.5 -37.5zM362 569q-3 -19 -17.5 -33.5t-34.5 -17.5q-22 3 -37 17.5t-15 33.5q0 23 15 37.5t37 14.5q20 0 34.5 -14.5t17.5 -37.5zM491 569q-3 -19 -17.5 -33.5t-34.5 -17.5q-22 3 -36.5 17.5t-14.5 33.5q0 23 14.5 37.5t36.5 14.5q20 0 34.5 -14.5t17.5 -37.5zM620 569
q-3 -19 -17.5 -33.5t-33.5 -17.5q-23 3 -37.5 17.5t-14.5 33.5q0 23 14.5 37.5t37.5 14.5q19 0 33.5 -14.5t17.5 -37.5z" />
    <glyph glyph-name="greater" unicode="&#x3e;" horiz-adv-x="490" 
d="M103 699q-3 -20 -17.5 -34.5t-33.5 -17.5q-23 3 -37.5 17.5t-14.5 34.5q0 22 14.5 36.5t37.5 14.5q19 0 33.5 -14.5t17.5 -36.5zM233 311q-4 -20 -18.5 -34t-33.5 -17q-23 3 -37.5 17t-14.5 34q0 22 14.5 37t37.5 15q19 0 33.5 -15t18.5 -37zM362 440q-3 -19 -17.5 -33.5
t-34.5 -18.5q-22 4 -37 18.5t-15 33.5q0 23 15 37.5t37 14.5q20 0 34.5 -14.5t17.5 -37.5zM233 569q-4 -19 -18.5 -33.5t-33.5 -17.5q-23 3 -37.5 17.5t-14.5 33.5q0 23 14.5 37.5t37.5 14.5q19 0 33.5 -14.5t18.5 -37.5zM103 183q-3 -20 -17.5 -34.5t-33.5 -17.5
q-23 3 -37.5 17.5t-14.5 34.5q0 22 14.5 36.5t37.5 14.5q19 0 33.5 -14.5t17.5 -36.5z" />
    <glyph glyph-name="question" unicode="?" horiz-adv-x="748" 
d="M103 699q-3 -20 -17.5 -34.5t-33.5 -17.5q-23 3 -37.5 17.5t-14.5 34.5q0 22 14.5 36.5t37.5 14.5q19 0 33.5 -14.5t17.5 -36.5zM362 311q-3 -20 -17.5 -34t-34.5 -17q-22 3 -37 17t-15 34q0 22 15 37t37 15q20 0 34.5 -15t17.5 -37zM362 440q-3 -19 -17.5 -33.5
t-34.5 -18.5q-22 4 -37 18.5t-15 33.5q0 23 15 37.5t37 14.5q20 0 34.5 -14.5t17.5 -37.5zM491 440q-3 -19 -17.5 -33.5t-34.5 -18.5q-22 4 -36.5 18.5t-14.5 33.5q0 23 14.5 37.5t36.5 14.5q20 0 34.5 -14.5t17.5 -37.5zM620 569q-3 -19 -17.5 -33.5t-33.5 -17.5
q-23 3 -37.5 17.5t-14.5 33.5q0 23 14.5 37.5t37.5 14.5q19 0 33.5 -14.5t17.5 -37.5zM620 699q-3 -20 -17.5 -34.5t-33.5 -17.5q-23 3 -37.5 17.5t-14.5 34.5q0 22 14.5 36.5t37.5 14.5q19 0 33.5 -14.5t17.5 -36.5zM233 828q-4 -20 -18.5 -34.5t-33.5 -17.5
q-23 3 -37.5 17.5t-14.5 34.5q0 22 14.5 36.5t37.5 14.5q19 0 33.5 -14.5t18.5 -36.5zM362 828q-3 -20 -17.5 -34.5t-34.5 -17.5q-22 3 -37 17.5t-15 34.5q0 22 15 36.5t37 14.5q20 0 34.5 -14.5t17.5 -36.5zM491 828q-3 -20 -17.5 -34.5t-34.5 -17.5q-22 3 -36.5 17.5
t-14.5 34.5q0 22 14.5 36.5t36.5 14.5q20 0 34.5 -14.5t17.5 -36.5zM362 53q-3 -19 -17.5 -33.5t-34.5 -17.5q-22 3 -37 17.5t-15 33.5q0 23 15 37.5t37 14.5q20 0 34.5 -14.5t17.5 -37.5z" />
    <glyph glyph-name="at" unicode="@" horiz-adv-x="748" 
d="M103 699q-3 -20 -17.5 -34.5t-33.5 -17.5q-23 3 -37.5 17.5t-14.5 34.5q0 22 14.5 36.5t37.5 14.5q19 0 33.5 -14.5t17.5 -36.5zM103 569q-3 -19 -17.5 -33.5t-33.5 -17.5q-23 3 -37.5 17.5t-14.5 33.5q0 23 14.5 37.5t37.5 14.5q19 0 33.5 -14.5t17.5 -37.5zM103 440
q-3 -19 -17.5 -33.5t-33.5 -18.5q-23 4 -37.5 18.5t-14.5 33.5q0 23 14.5 37.5t37.5 14.5q19 0 33.5 -14.5t17.5 -37.5zM103 311q-3 -20 -17.5 -34t-33.5 -17q-23 3 -37.5 17t-14.5 34q0 22 14.5 37t37.5 15q19 0 33.5 -15t17.5 -37zM362 311q-3 -20 -17.5 -34t-34.5 -17
q-22 3 -37 17t-15 34q0 22 15 37t37 15q20 0 34.5 -15t17.5 -37zM491 311q-3 -20 -17.5 -34t-34.5 -17q-22 3 -36.5 17t-14.5 34q0 22 14.5 37t36.5 15q20 0 34.5 -15t17.5 -37zM620 311q-3 -20 -17.5 -34t-33.5 -17q-23 3 -37.5 17t-14.5 34q0 22 14.5 37t37.5 15
q19 0 33.5 -15t17.5 -37zM362 440q-3 -19 -17.5 -33.5t-34.5 -18.5q-22 4 -37 18.5t-15 33.5q0 23 15 37.5t37 14.5q20 0 34.5 -14.5t17.5 -37.5zM620 440q-3 -19 -17.5 -33.5t-33.5 -18.5q-23 4 -37.5 18.5t-14.5 33.5q0 23 14.5 37.5t37.5 14.5q19 0 33.5 -14.5
t17.5 -37.5zM362 569q-3 -19 -17.5 -33.5t-34.5 -17.5q-22 3 -37 17.5t-15 33.5q0 23 15 37.5t37 14.5q20 0 34.5 -14.5t17.5 -37.5zM491 569q-3 -19 -17.5 -33.5t-34.5 -17.5q-22 3 -36.5 17.5t-14.5 33.5q0 23 14.5 37.5t36.5 14.5q20 0 34.5 -14.5t17.5 -37.5zM620 569
q-3 -19 -17.5 -33.5t-33.5 -17.5q-23 3 -37.5 17.5t-14.5 33.5q0 23 14.5 37.5t37.5 14.5q19 0 33.5 -14.5t17.5 -37.5zM620 699q-3 -20 -17.5 -34.5t-33.5 -17.5q-23 3 -37.5 17.5t-14.5 34.5q0 22 14.5 36.5t37.5 14.5q19 0 33.5 -14.5t17.5 -36.5zM233 828
q-4 -20 -18.5 -34.5t-33.5 -17.5q-23 3 -37.5 17.5t-14.5 34.5q0 22 14.5 36.5t37.5 14.5q19 0 33.5 -14.5t18.5 -36.5zM362 828q-3 -20 -17.5 -34.5t-34.5 -17.5q-22 3 -37 17.5t-15 34.5q0 22 15 36.5t37 14.5q20 0 34.5 -14.5t17.5 -36.5zM491 828q-3 -20 -17.5 -34.5
t-34.5 -17.5q-22 3 -36.5 17.5t-14.5 34.5q0 22 14.5 36.5t36.5 14.5q20 0 34.5 -14.5t17.5 -36.5zM233 53q-4 -19 -18.5 -33.5t-33.5 -17.5q-23 3 -37.5 17.5t-14.5 33.5q0 23 14.5 37.5t37.5 14.5q19 0 33.5 -14.5t18.5 -37.5zM362 53q-3 -19 -17.5 -33.5t-34.5 -17.5
q-22 3 -37 17.5t-15 33.5q0 23 15 37.5t37 14.5q20 0 34.5 -14.5t17.5 -37.5zM491 53q-3 -19 -17.5 -33.5t-34.5 -17.5q-22 3 -36.5 17.5t-14.5 33.5q0 23 14.5 37.5t36.5 14.5q20 0 34.5 -14.5t17.5 -37.5zM103 183q-3 -20 -17.5 -34.5t-33.5 -17.5q-23 3 -37.5 17.5
t-14.5 34.5q0 22 14.5 36.5t37.5 14.5q19 0 33.5 -14.5t17.5 -36.5z" />
    <glyph glyph-name="A" unicode="A" horiz-adv-x="748" 
d="M103 699q-3 -20 -17.5 -34.5t-33.5 -17.5q-23 3 -37.5 17.5t-14.5 34.5q0 22 14.5 36.5t37.5 14.5q19 0 33.5 -14.5t17.5 -36.5zM103 569q-3 -19 -17.5 -33.5t-33.5 -17.5q-23 3 -37.5 17.5t-14.5 33.5q0 23 14.5 37.5t37.5 14.5q19 0 33.5 -14.5t17.5 -37.5zM103 440
q-3 -19 -17.5 -33.5t-33.5 -18.5q-23 4 -37.5 18.5t-14.5 33.5q0 23 14.5 37.5t37.5 14.5q19 0 33.5 -14.5t17.5 -37.5zM103 311q-3 -20 -17.5 -34t-33.5 -17q-23 3 -37.5 17t-14.5 34q0 22 14.5 37t37.5 15q19 0 33.5 -15t17.5 -37zM620 311q-3 -20 -17.5 -34t-33.5 -17
q-23 3 -37.5 17t-14.5 34q0 22 14.5 37t37.5 15q19 0 33.5 -15t17.5 -37zM233 440q-4 -19 -18.5 -33.5t-33.5 -18.5q-23 4 -37.5 18.5t-14.5 33.5q0 23 14.5 37.5t37.5 14.5q19 0 33.5 -14.5t18.5 -37.5zM362 440q-3 -19 -17.5 -33.5t-34.5 -18.5q-22 4 -37 18.5t-15 33.5
q0 23 15 37.5t37 14.5q20 0 34.5 -14.5t17.5 -37.5zM491 440q-3 -19 -17.5 -33.5t-34.5 -18.5q-22 4 -36.5 18.5t-14.5 33.5q0 23 14.5 37.5t36.5 14.5q20 0 34.5 -14.5t17.5 -37.5zM620 440q-3 -19 -17.5 -33.5t-33.5 -18.5q-23 4 -37.5 18.5t-14.5 33.5q0 23 14.5 37.5
t37.5 14.5q19 0 33.5 -14.5t17.5 -37.5zM620 569q-3 -19 -17.5 -33.5t-33.5 -17.5q-23 3 -37.5 17.5t-14.5 33.5q0 23 14.5 37.5t37.5 14.5q19 0 33.5 -14.5t17.5 -37.5zM620 699q-3 -20 -17.5 -34.5t-33.5 -17.5q-23 3 -37.5 17.5t-14.5 34.5q0 22 14.5 36.5t37.5 14.5
q19 0 33.5 -14.5t17.5 -36.5zM233 828q-4 -20 -18.5 -34.5t-33.5 -17.5q-23 3 -37.5 17.5t-14.5 34.5q0 22 14.5 36.5t37.5 14.5q19 0 33.5 -14.5t18.5 -36.5zM362 828q-3 -20 -17.5 -34.5t-34.5 -17.5q-22 3 -37 17.5t-15 34.5q0 22 15 36.5t37 14.5q20 0 34.5 -14.5
t17.5 -36.5zM491 828q-3 -20 -17.5 -34.5t-34.5 -17.5q-22 3 -36.5 17.5t-14.5 34.5q0 22 14.5 36.5t36.5 14.5q20 0 34.5 -14.5t17.5 -36.5zM620 183q-3 -20 -17.5 -34.5t-33.5 -17.5q-23 3 -37.5 17.5t-14.5 34.5q0 22 14.5 36.5t37.5 14.5q19 0 33.5 -14.5t17.5 -36.5z
M620 53q-3 -19 -17.5 -33.5t-33.5 -17.5q-23 3 -37.5 17.5t-14.5 33.5q0 23 14.5 37.5t37.5 14.5q19 0 33.5 -14.5t17.5 -37.5zM103 183q-3 -20 -17.5 -34.5t-33.5 -17.5q-23 3 -37.5 17.5t-14.5 34.5q0 22 14.5 36.5t37.5 14.5q19 0 33.5 -14.5t17.5 -36.5zM103 53
q-3 -19 -17.5 -33.5t-33.5 -17.5q-23 3 -37.5 17.5t-14.5 33.5q0 23 14.5 37.5t37.5 14.5q19 0 33.5 -14.5t17.5 -37.5z" />
    <glyph glyph-name="B" unicode="B" horiz-adv-x="748" 
d="M103 699q-3 -20 -17.5 -34.5t-33.5 -17.5q-23 3 -37.5 17.5t-14.5 34.5q0 22 14.5 36.5t37.5 14.5q19 0 33.5 -14.5t17.5 -36.5zM103 569q-3 -19 -17.5 -33.5t-33.5 -17.5q-23 3 -37.5 17.5t-14.5 33.5q0 23 14.5 37.5t37.5 14.5q19 0 33.5 -14.5t17.5 -37.5zM103 440
q-3 -19 -17.5 -33.5t-33.5 -18.5q-23 4 -37.5 18.5t-14.5 33.5q0 23 14.5 37.5t37.5 14.5q19 0 33.5 -14.5t17.5 -37.5zM103 311q-3 -20 -17.5 -34t-33.5 -17q-23 3 -37.5 17t-14.5 34q0 22 14.5 37t37.5 15q19 0 33.5 -15t17.5 -37zM620 311q-3 -20 -17.5 -34t-33.5 -17
q-23 3 -37.5 17t-14.5 34q0 22 14.5 37t37.5 15q19 0 33.5 -15t17.5 -37zM233 440q-4 -19 -18.5 -33.5t-33.5 -18.5q-23 4 -37.5 18.5t-14.5 33.5q0 23 14.5 37.5t37.5 14.5q19 0 33.5 -14.5t18.5 -37.5zM362 440q-3 -19 -17.5 -33.5t-34.5 -18.5q-22 4 -37 18.5t-15 33.5
q0 23 15 37.5t37 14.5q20 0 34.5 -14.5t17.5 -37.5zM491 440q-3 -19 -17.5 -33.5t-34.5 -18.5q-22 4 -36.5 18.5t-14.5 33.5q0 23 14.5 37.5t36.5 14.5q20 0 34.5 -14.5t17.5 -37.5zM620 569q-3 -19 -17.5 -33.5t-33.5 -17.5q-23 3 -37.5 17.5t-14.5 33.5q0 23 14.5 37.5
t37.5 14.5q19 0 33.5 -14.5t17.5 -37.5zM620 699q-3 -20 -17.5 -34.5t-33.5 -17.5q-23 3 -37.5 17.5t-14.5 34.5q0 22 14.5 36.5t37.5 14.5q19 0 33.5 -14.5t17.5 -36.5zM103 828q-3 -20 -17.5 -34.5t-33.5 -17.5q-23 3 -37.5 17.5t-14.5 34.5q0 22 14.5 36.5t37.5 14.5
q19 0 33.5 -14.5t17.5 -36.5zM233 828q-4 -20 -18.5 -34.5t-33.5 -17.5q-23 3 -37.5 17.5t-14.5 34.5q0 22 14.5 36.5t37.5 14.5q19 0 33.5 -14.5t18.5 -36.5zM362 828q-3 -20 -17.5 -34.5t-34.5 -17.5q-22 3 -37 17.5t-15 34.5q0 22 15 36.5t37 14.5q20 0 34.5 -14.5
t17.5 -36.5zM491 828q-3 -20 -17.5 -34.5t-34.5 -17.5q-22 3 -36.5 17.5t-14.5 34.5q0 22 14.5 36.5t36.5 14.5q20 0 34.5 -14.5t17.5 -36.5zM620 183q-3 -20 -17.5 -34.5t-33.5 -17.5q-23 3 -37.5 17.5t-14.5 34.5q0 22 14.5 36.5t37.5 14.5q19 0 33.5 -14.5t17.5 -36.5z
M233 53q-4 -19 -18.5 -33.5t-33.5 -17.5q-23 3 -37.5 17.5t-14.5 33.5q0 23 14.5 37.5t37.5 14.5q19 0 33.5 -14.5t18.5 -37.5zM362 53q-3 -19 -17.5 -33.5t-34.5 -17.5q-22 3 -37 17.5t-15 33.5q0 23 15 37.5t37 14.5q20 0 34.5 -14.5t17.5 -37.5zM491 53
q-3 -19 -17.5 -33.5t-34.5 -17.5q-22 3 -36.5 17.5t-14.5 33.5q0 23 14.5 37.5t36.5 14.5q20 0 34.5 -14.5t17.5 -37.5zM103 183q-3 -20 -17.5 -34.5t-33.5 -17.5q-23 3 -37.5 17.5t-14.5 34.5q0 22 14.5 36.5t37.5 14.5q19 0 33.5 -14.5t17.5 -36.5zM103 53
q-3 -19 -17.5 -33.5t-33.5 -17.5q-23 3 -37.5 17.5t-14.5 33.5q0 23 14.5 37.5t37.5 14.5q19 0 33.5 -14.5t17.5 -37.5z" />
    <glyph glyph-name="C" unicode="C" horiz-adv-x="748" 
d="M103 569q-3 -19 -17.5 -33.5t-33.5 -17.5q-23 3 -37.5 17.5t-14.5 33.5q0 23 14.5 37.5t37.5 14.5q19 0 33.5 -14.5t17.5 -37.5zM103 440q-3 -19 -17.5 -33.5t-33.5 -18.5q-23 4 -37.5 18.5t-14.5 33.5q0 23 14.5 37.5t37.5 14.5q19 0 33.5 -14.5t17.5 -37.5zM103 311
q-3 -20 -17.5 -34t-33.5 -17q-23 3 -37.5 17t-14.5 34q0 22 14.5 37t37.5 15q19 0 33.5 -15t17.5 -37zM233 699q-4 -20 -18.5 -34.5t-33.5 -17.5q-23 3 -37.5 17.5t-14.5 34.5q0 22 14.5 36.5t37.5 14.5q19 0 33.5 -14.5t18.5 -36.5zM362 828q-3 -20 -17.5 -34.5
t-34.5 -17.5q-22 3 -37 17.5t-15 34.5q0 22 15 36.5t37 14.5q20 0 34.5 -14.5t17.5 -36.5zM491 828q-3 -20 -17.5 -34.5t-34.5 -17.5q-22 3 -36.5 17.5t-14.5 34.5q0 22 14.5 36.5t36.5 14.5q20 0 34.5 -14.5t17.5 -36.5zM620 828q-3 -20 -17.5 -34.5t-33.5 -17.5
q-23 3 -37.5 17.5t-14.5 34.5q0 22 14.5 36.5t37.5 14.5q19 0 33.5 -14.5t17.5 -36.5zM233 183q-4 -20 -18.5 -34.5t-33.5 -17.5q-23 3 -37.5 17.5t-14.5 34.5q0 22 14.5 36.5t37.5 14.5q19 0 33.5 -14.5t18.5 -36.5zM362 53q-3 -19 -17.5 -33.5t-34.5 -17.5q-22 3 -37 17.5
t-15 33.5q0 23 15 37.5t37 14.5q20 0 34.5 -14.5t17.5 -37.5zM491 53q-3 -19 -17.5 -33.5t-34.5 -17.5q-22 3 -36.5 17.5t-14.5 33.5q0 23 14.5 37.5t36.5 14.5q20 0 34.5 -14.5t17.5 -37.5zM620 53q-3 -19 -17.5 -33.5t-33.5 -17.5q-23 3 -37.5 17.5t-14.5 33.5
q0 23 14.5 37.5t37.5 14.5q19 0 33.5 -14.5t17.5 -37.5z" />
    <glyph glyph-name="D" unicode="D" horiz-adv-x="748" 
d="M103 699q-3 -20 -17.5 -34.5t-33.5 -17.5q-23 3 -37.5 17.5t-14.5 34.5q0 22 14.5 36.5t37.5 14.5q19 0 33.5 -14.5t17.5 -36.5zM103 569q-3 -19 -17.5 -33.5t-33.5 -17.5q-23 3 -37.5 17.5t-14.5 33.5q0 23 14.5 37.5t37.5 14.5q19 0 33.5 -14.5t17.5 -37.5zM103 440
q-3 -19 -17.5 -33.5t-33.5 -18.5q-23 4 -37.5 18.5t-14.5 33.5q0 23 14.5 37.5t37.5 14.5q19 0 33.5 -14.5t17.5 -37.5zM103 311q-3 -20 -17.5 -34t-33.5 -17q-23 3 -37.5 17t-14.5 34q0 22 14.5 37t37.5 15q19 0 33.5 -15t17.5 -37zM620 311q-3 -20 -17.5 -34t-33.5 -17
q-23 3 -37.5 17t-14.5 34q0 22 14.5 37t37.5 15q19 0 33.5 -15t17.5 -37zM620 440q-3 -19 -17.5 -33.5t-33.5 -18.5q-23 4 -37.5 18.5t-14.5 33.5q0 23 14.5 37.5t37.5 14.5q19 0 33.5 -14.5t17.5 -37.5zM620 569q-3 -19 -17.5 -33.5t-33.5 -17.5q-23 3 -37.5 17.5
t-14.5 33.5q0 23 14.5 37.5t37.5 14.5q19 0 33.5 -14.5t17.5 -37.5zM491 699q-3 -20 -17.5 -34.5t-34.5 -17.5q-22 3 -36.5 17.5t-14.5 34.5q0 22 14.5 36.5t36.5 14.5q20 0 34.5 -14.5t17.5 -36.5zM103 828q-3 -20 -17.5 -34.5t-33.5 -17.5q-23 3 -37.5 17.5t-14.5 34.5
q0 22 14.5 36.5t37.5 14.5q19 0 33.5 -14.5t17.5 -36.5zM233 828q-4 -20 -18.5 -34.5t-33.5 -17.5q-23 3 -37.5 17.5t-14.5 34.5q0 22 14.5 36.5t37.5 14.5q19 0 33.5 -14.5t18.5 -36.5zM362 828q-3 -20 -17.5 -34.5t-34.5 -17.5q-22 3 -37 17.5t-15 34.5q0 22 15 36.5
t37 14.5q20 0 34.5 -14.5t17.5 -36.5zM491 183q-3 -20 -17.5 -34.5t-34.5 -17.5q-22 3 -36.5 17.5t-14.5 34.5q0 22 14.5 36.5t36.5 14.5q20 0 34.5 -14.5t17.5 -36.5zM233 53q-4 -19 -18.5 -33.5t-33.5 -17.5q-23 3 -37.5 17.5t-14.5 33.5q0 23 14.5 37.5t37.5 14.5
q19 0 33.5 -14.5t18.5 -37.5zM362 53q-3 -19 -17.5 -33.5t-34.5 -17.5q-22 3 -37 17.5t-15 33.5q0 23 15 37.5t37 14.5q20 0 34.5 -14.5t17.5 -37.5zM103 183q-3 -20 -17.5 -34.5t-33.5 -17.5q-23 3 -37.5 17.5t-14.5 34.5q0 22 14.5 36.5t37.5 14.5q19 0 33.5 -14.5
t17.5 -36.5zM103 53q-3 -19 -17.5 -33.5t-33.5 -17.5q-23 3 -37.5 17.5t-14.5 33.5q0 23 14.5 37.5t37.5 14.5q19 0 33.5 -14.5t17.5 -37.5z" />
    <glyph glyph-name="E" unicode="E" horiz-adv-x="748" 
d="M103 699q-3 -20 -17.5 -34.5t-33.5 -17.5q-23 3 -37.5 17.5t-14.5 34.5q0 22 14.5 36.5t37.5 14.5q19 0 33.5 -14.5t17.5 -36.5zM103 569q-3 -19 -17.5 -33.5t-33.5 -17.5q-23 3 -37.5 17.5t-14.5 33.5q0 23 14.5 37.5t37.5 14.5q19 0 33.5 -14.5t17.5 -37.5zM103 440
q-3 -19 -17.5 -33.5t-33.5 -18.5q-23 4 -37.5 18.5t-14.5 33.5q0 23 14.5 37.5t37.5 14.5q19 0 33.5 -14.5t17.5 -37.5zM103 311q-3 -20 -17.5 -34t-33.5 -17q-23 3 -37.5 17t-14.5 34q0 22 14.5 37t37.5 15q19 0 33.5 -15t17.5 -37zM233 440q-4 -19 -18.5 -33.5
t-33.5 -18.5q-23 4 -37.5 18.5t-14.5 33.5q0 23 14.5 37.5t37.5 14.5q19 0 33.5 -14.5t18.5 -37.5zM362 440q-3 -19 -17.5 -33.5t-34.5 -18.5q-22 4 -37 18.5t-15 33.5q0 23 15 37.5t37 14.5q20 0 34.5 -14.5t17.5 -37.5zM491 440q-3 -19 -17.5 -33.5t-34.5 -18.5
q-22 4 -36.5 18.5t-14.5 33.5q0 23 14.5 37.5t36.5 14.5q20 0 34.5 -14.5t17.5 -37.5zM620 440q-3 -19 -17.5 -33.5t-33.5 -18.5q-23 4 -37.5 18.5t-14.5 33.5q0 23 14.5 37.5t37.5 14.5q19 0 33.5 -14.5t17.5 -37.5zM233 828q-4 -20 -18.5 -34.5t-33.5 -17.5
q-23 3 -37.5 17.5t-14.5 34.5q0 22 14.5 36.5t37.5 14.5q19 0 33.5 -14.5t18.5 -36.5zM362 828q-3 -20 -17.5 -34.5t-34.5 -17.5q-22 3 -37 17.5t-15 34.5q0 22 15 36.5t37 14.5q20 0 34.5 -14.5t17.5 -36.5zM491 828q-3 -20 -17.5 -34.5t-34.5 -17.5q-22 3 -36.5 17.5
t-14.5 34.5q0 22 14.5 36.5t36.5 14.5q20 0 34.5 -14.5t17.5 -36.5zM620 828q-3 -20 -17.5 -34.5t-33.5 -17.5q-23 3 -37.5 17.5t-14.5 34.5q0 22 14.5 36.5t37.5 14.5q19 0 33.5 -14.5t17.5 -36.5zM233 53q-4 -19 -18.5 -33.5t-33.5 -17.5q-23 3 -37.5 17.5t-14.5 33.5
q0 23 14.5 37.5t37.5 14.5q19 0 33.5 -14.5t18.5 -37.5zM362 53q-3 -19 -17.5 -33.5t-34.5 -17.5q-22 3 -37 17.5t-15 33.5q0 23 15 37.5t37 14.5q20 0 34.5 -14.5t17.5 -37.5zM491 53q-3 -19 -17.5 -33.5t-34.5 -17.5q-22 3 -36.5 17.5t-14.5 33.5q0 23 14.5 37.5
t36.5 14.5q20 0 34.5 -14.5t17.5 -37.5zM620 53q-3 -19 -17.5 -33.5t-33.5 -17.5q-23 3 -37.5 17.5t-14.5 33.5q0 23 14.5 37.5t37.5 14.5q19 0 33.5 -14.5t17.5 -37.5zM103 183q-3 -20 -17.5 -34.5t-33.5 -17.5q-23 3 -37.5 17.5t-14.5 34.5q0 22 14.5 36.5t37.5 14.5
q19 0 33.5 -14.5t17.5 -36.5z" />
    <glyph glyph-name="F" unicode="F" horiz-adv-x="748" 
d="M103 699q-3 -20 -17.5 -34.5t-33.5 -17.5q-23 3 -37.5 17.5t-14.5 34.5q0 22 14.5 36.5t37.5 14.5q19 0 33.5 -14.5t17.5 -36.5zM103 569q-3 -19 -17.5 -33.5t-33.5 -17.5q-23 3 -37.5 17.5t-14.5 33.5q0 23 14.5 37.5t37.5 14.5q19 0 33.5 -14.5t17.5 -37.5zM103 440
q-3 -19 -17.5 -33.5t-33.5 -18.5q-23 4 -37.5 18.5t-14.5 33.5q0 23 14.5 37.5t37.5 14.5q19 0 33.5 -14.5t17.5 -37.5zM103 311q-3 -20 -17.5 -34t-33.5 -17q-23 3 -37.5 17t-14.5 34q0 22 14.5 37t37.5 15q19 0 33.5 -15t17.5 -37zM233 440q-4 -19 -18.5 -33.5
t-33.5 -18.5q-23 4 -37.5 18.5t-14.5 33.5q0 23 14.5 37.5t37.5 14.5q19 0 33.5 -14.5t18.5 -37.5zM362 440q-3 -19 -17.5 -33.5t-34.5 -18.5q-22 4 -37 18.5t-15 33.5q0 23 15 37.5t37 14.5q20 0 34.5 -14.5t17.5 -37.5zM491 440q-3 -19 -17.5 -33.5t-34.5 -18.5
q-22 4 -36.5 18.5t-14.5 33.5q0 23 14.5 37.5t36.5 14.5q20 0 34.5 -14.5t17.5 -37.5zM620 440q-3 -19 -17.5 -33.5t-33.5 -18.5q-23 4 -37.5 18.5t-14.5 33.5q0 23 14.5 37.5t37.5 14.5q19 0 33.5 -14.5t17.5 -37.5zM233 828q-4 -20 -18.5 -34.5t-33.5 -17.5
q-23 3 -37.5 17.5t-14.5 34.5q0 22 14.5 36.5t37.5 14.5q19 0 33.5 -14.5t18.5 -36.5zM362 828q-3 -20 -17.5 -34.5t-34.5 -17.5q-22 3 -37 17.5t-15 34.5q0 22 15 36.5t37 14.5q20 0 34.5 -14.5t17.5 -36.5zM491 828q-3 -20 -17.5 -34.5t-34.5 -17.5q-22 3 -36.5 17.5
t-14.5 34.5q0 22 14.5 36.5t36.5 14.5q20 0 34.5 -14.5t17.5 -36.5zM620 828q-3 -20 -17.5 -34.5t-33.5 -17.5q-23 3 -37.5 17.5t-14.5 34.5q0 22 14.5 36.5t37.5 14.5q19 0 33.5 -14.5t17.5 -36.5zM103 183q-3 -20 -17.5 -34.5t-33.5 -17.5q-23 3 -37.5 17.5t-14.5 34.5
q0 22 14.5 36.5t37.5 14.5q19 0 33.5 -14.5t17.5 -36.5zM103 53q-3 -19 -17.5 -33.5t-33.5 -17.5q-23 3 -37.5 17.5t-14.5 33.5q0 23 14.5 37.5t37.5 14.5q19 0 33.5 -14.5t17.5 -37.5z" />
    <glyph glyph-name="G" unicode="G" horiz-adv-x="748" 
d="M103 699q-3 -20 -17.5 -34.5t-33.5 -17.5q-23 3 -37.5 17.5t-14.5 34.5q0 22 14.5 36.5t37.5 14.5q19 0 33.5 -14.5t17.5 -36.5zM103 569q-3 -19 -17.5 -33.5t-33.5 -17.5q-23 3 -37.5 17.5t-14.5 33.5q0 23 14.5 37.5t37.5 14.5q19 0 33.5 -14.5t17.5 -37.5zM103 440
q-3 -19 -17.5 -33.5t-33.5 -18.5q-23 4 -37.5 18.5t-14.5 33.5q0 23 14.5 37.5t37.5 14.5q19 0 33.5 -14.5t17.5 -37.5zM103 311q-3 -20 -17.5 -34t-33.5 -17q-23 3 -37.5 17t-14.5 34q0 22 14.5 37t37.5 15q19 0 33.5 -15t17.5 -37zM620 311q-3 -20 -17.5 -34t-33.5 -17
q-23 3 -37.5 17t-14.5 34q0 22 14.5 37t37.5 15q19 0 33.5 -15t17.5 -37zM362 440q-3 -19 -17.5 -33.5t-34.5 -18.5q-22 4 -37 18.5t-15 33.5q0 23 15 37.5t37 14.5q20 0 34.5 -14.5t17.5 -37.5zM491 440q-3 -19 -17.5 -33.5t-34.5 -18.5q-22 4 -36.5 18.5t-14.5 33.5
q0 23 14.5 37.5t36.5 14.5q20 0 34.5 -14.5t17.5 -37.5zM620 440q-3 -19 -17.5 -33.5t-33.5 -18.5q-23 4 -37.5 18.5t-14.5 33.5q0 23 14.5 37.5t37.5 14.5q19 0 33.5 -14.5t17.5 -37.5zM233 828q-4 -20 -18.5 -34.5t-33.5 -17.5q-23 3 -37.5 17.5t-14.5 34.5
q0 22 14.5 36.5t37.5 14.5q19 0 33.5 -14.5t18.5 -36.5zM362 828q-3 -20 -17.5 -34.5t-34.5 -17.5q-22 3 -37 17.5t-15 34.5q0 22 15 36.5t37 14.5q20 0 34.5 -14.5t17.5 -36.5zM491 828q-3 -20 -17.5 -34.5t-34.5 -17.5q-22 3 -36.5 17.5t-14.5 34.5q0 22 14.5 36.5
t36.5 14.5q20 0 34.5 -14.5t17.5 -36.5zM620 828q-3 -20 -17.5 -34.5t-33.5 -17.5q-23 3 -37.5 17.5t-14.5 34.5q0 22 14.5 36.5t37.5 14.5q19 0 33.5 -14.5t17.5 -36.5zM620 183q-3 -20 -17.5 -34.5t-33.5 -17.5q-23 3 -37.5 17.5t-14.5 34.5q0 22 14.5 36.5t37.5 14.5
q19 0 33.5 -14.5t17.5 -36.5zM233 53q-4 -19 -18.5 -33.5t-33.5 -17.5q-23 3 -37.5 17.5t-14.5 33.5q0 23 14.5 37.5t37.5 14.5q19 0 33.5 -14.5t18.5 -37.5zM362 53q-3 -19 -17.5 -33.5t-34.5 -17.5q-22 3 -37 17.5t-15 33.5q0 23 15 37.5t37 14.5q20 0 34.5 -14.5
t17.5 -37.5zM491 53q-3 -19 -17.5 -33.5t-34.5 -17.5q-22 3 -36.5 17.5t-14.5 33.5q0 23 14.5 37.5t36.5 14.5q20 0 34.5 -14.5t17.5 -37.5zM620 53q-3 -19 -17.5 -33.5t-33.5 -17.5q-23 3 -37.5 17.5t-14.5 33.5q0 23 14.5 37.5t37.5 14.5q19 0 33.5 -14.5t17.5 -37.5z
M103 183q-3 -20 -17.5 -34.5t-33.5 -17.5q-23 3 -37.5 17.5t-14.5 34.5q0 22 14.5 36.5t37.5 14.5q19 0 33.5 -14.5t17.5 -36.5z" />
    <glyph glyph-name="H" unicode="H" horiz-adv-x="748" 
d="M103 699q-3 -20 -17.5 -34.5t-33.5 -17.5q-23 3 -37.5 17.5t-14.5 34.5q0 22 14.5 36.5t37.5 14.5q19 0 33.5 -14.5t17.5 -36.5zM103 569q-3 -19 -17.5 -33.5t-33.5 -17.5q-23 3 -37.5 17.5t-14.5 33.5q0 23 14.5 37.5t37.5 14.5q19 0 33.5 -14.5t17.5 -37.5zM103 440
q-3 -19 -17.5 -33.5t-33.5 -18.5q-23 4 -37.5 18.5t-14.5 33.5q0 23 14.5 37.5t37.5 14.5q19 0 33.5 -14.5t17.5 -37.5zM103 311q-3 -20 -17.5 -34t-33.5 -17q-23 3 -37.5 17t-14.5 34q0 22 14.5 37t37.5 15q19 0 33.5 -15t17.5 -37zM620 311q-3 -20 -17.5 -34t-33.5 -17
q-23 3 -37.5 17t-14.5 34q0 22 14.5 37t37.5 15q19 0 33.5 -15t17.5 -37zM233 440q-4 -19 -18.5 -33.5t-33.5 -18.5q-23 4 -37.5 18.5t-14.5 33.5q0 23 14.5 37.5t37.5 14.5q19 0 33.5 -14.5t18.5 -37.5zM362 440q-3 -19 -17.5 -33.5t-34.5 -18.5q-22 4 -37 18.5t-15 33.5
q0 23 15 37.5t37 14.5q20 0 34.5 -14.5t17.5 -37.5zM491 440q-3 -19 -17.5 -33.5t-34.5 -18.5q-22 4 -36.5 18.5t-14.5 33.5q0 23 14.5 37.5t36.5 14.5q20 0 34.5 -14.5t17.5 -37.5zM620 440q-3 -19 -17.5 -33.5t-33.5 -18.5q-23 4 -37.5 18.5t-14.5 33.5q0 23 14.5 37.5
t37.5 14.5q19 0 33.5 -14.5t17.5 -37.5zM620 569q-3 -19 -17.5 -33.5t-33.5 -17.5q-23 3 -37.5 17.5t-14.5 33.5q0 23 14.5 37.5t37.5 14.5q19 0 33.5 -14.5t17.5 -37.5zM620 699q-3 -20 -17.5 -34.5t-33.5 -17.5q-23 3 -37.5 17.5t-14.5 34.5q0 22 14.5 36.5t37.5 14.5
q19 0 33.5 -14.5t17.5 -36.5zM103 828q-3 -20 -17.5 -34.5t-33.5 -17.5q-23 3 -37.5 17.5t-14.5 34.5q0 22 14.5 36.5t37.5 14.5q19 0 33.5 -14.5t17.5 -36.5zM620 828q-3 -20 -17.5 -34.5t-33.5 -17.5q-23 3 -37.5 17.5t-14.5 34.5q0 22 14.5 36.5t37.5 14.5
q19 0 33.5 -14.5t17.5 -36.5zM620 183q-3 -20 -17.5 -34.5t-33.5 -17.5q-23 3 -37.5 17.5t-14.5 34.5q0 22 14.5 36.5t37.5 14.5q19 0 33.5 -14.5t17.5 -36.5zM620 53q-3 -19 -17.5 -33.5t-33.5 -17.5q-23 3 -37.5 17.5t-14.5 33.5q0 23 14.5 37.5t37.5 14.5
q19 0 33.5 -14.5t17.5 -37.5zM103 183q-3 -20 -17.5 -34.5t-33.5 -17.5q-23 3 -37.5 17.5t-14.5 34.5q0 22 14.5 36.5t37.5 14.5q19 0 33.5 -14.5t17.5 -36.5zM103 53q-3 -19 -17.5 -33.5t-33.5 -17.5q-23 3 -37.5 17.5t-14.5 33.5q0 23 14.5 37.5t37.5 14.5
q19 0 33.5 -14.5t17.5 -37.5z" />
    <glyph glyph-name="I" unicode="I" horiz-adv-x="748" 
d="M362 311q-3 -20 -17.5 -34t-34.5 -17q-22 3 -37 17t-15 34q0 22 15 37t37 15q20 0 34.5 -15t17.5 -37zM362 440q-3 -19 -17.5 -33.5t-34.5 -18.5q-22 4 -37 18.5t-15 33.5q0 23 15 37.5t37 14.5q20 0 34.5 -14.5t17.5 -37.5zM362 569q-3 -19 -17.5 -33.5t-34.5 -17.5
q-22 3 -37 17.5t-15 33.5q0 23 15 37.5t37 14.5q20 0 34.5 -14.5t17.5 -37.5zM362 699q-3 -20 -17.5 -34.5t-34.5 -17.5q-22 3 -37 17.5t-15 34.5q0 22 15 36.5t37 14.5q20 0 34.5 -14.5t17.5 -36.5zM103 828q-3 -20 -17.5 -34.5t-33.5 -17.5q-23 3 -37.5 17.5t-14.5 34.5
q0 22 14.5 36.5t37.5 14.5q19 0 33.5 -14.5t17.5 -36.5zM233 828q-4 -20 -18.5 -34.5t-33.5 -17.5q-23 3 -37.5 17.5t-14.5 34.5q0 22 14.5 36.5t37.5 14.5q19 0 33.5 -14.5t18.5 -36.5zM362 828q-3 -20 -17.5 -34.5t-34.5 -17.5q-22 3 -37 17.5t-15 34.5q0 22 15 36.5
t37 14.5q20 0 34.5 -14.5t17.5 -36.5zM491 828q-3 -20 -17.5 -34.5t-34.5 -17.5q-22 3 -36.5 17.5t-14.5 34.5q0 22 14.5 36.5t36.5 14.5q20 0 34.5 -14.5t17.5 -36.5zM620 828q-3 -20 -17.5 -34.5t-33.5 -17.5q-23 3 -37.5 17.5t-14.5 34.5q0 22 14.5 36.5t37.5 14.5
q19 0 33.5 -14.5t17.5 -36.5zM362 183q-3 -20 -17.5 -34.5t-34.5 -17.5q-22 3 -37 17.5t-15 34.5q0 22 15 36.5t37 14.5q20 0 34.5 -14.5t17.5 -36.5zM233 53q-4 -19 -18.5 -33.5t-33.5 -17.5q-23 3 -37.5 17.5t-14.5 33.5q0 23 14.5 37.5t37.5 14.5q19 0 33.5 -14.5
t18.5 -37.5zM362 53q-3 -19 -17.5 -33.5t-34.5 -17.5q-22 3 -37 17.5t-15 33.5q0 23 15 37.5t37 14.5q20 0 34.5 -14.5t17.5 -37.5zM491 53q-3 -19 -17.5 -33.5t-34.5 -17.5q-22 3 -36.5 17.5t-14.5 33.5q0 23 14.5 37.5t36.5 14.5q20 0 34.5 -14.5t17.5 -37.5zM620 53
q-3 -19 -17.5 -33.5t-33.5 -17.5q-23 3 -37.5 17.5t-14.5 33.5q0 23 14.5 37.5t37.5 14.5q19 0 33.5 -14.5t17.5 -37.5zM103 53q-3 -19 -17.5 -33.5t-33.5 -17.5q-23 3 -37.5 17.5t-14.5 33.5q0 23 14.5 37.5t37.5 14.5q19 0 33.5 -14.5t17.5 -37.5z" />
    <glyph glyph-name="J" unicode="J" horiz-adv-x="748" 
d="M362 311q-3 -20 -17.5 -34t-34.5 -17q-22 3 -37 17t-15 34q0 22 15 37t37 15q20 0 34.5 -15t17.5 -37zM362 440q-3 -19 -17.5 -33.5t-34.5 -18.5q-22 4 -37 18.5t-15 33.5q0 23 15 37.5t37 14.5q20 0 34.5 -14.5t17.5 -37.5zM362 569q-3 -19 -17.5 -33.5t-34.5 -17.5
q-22 3 -37 17.5t-15 33.5q0 23 15 37.5t37 14.5q20 0 34.5 -14.5t17.5 -37.5zM362 699q-3 -20 -17.5 -34.5t-34.5 -17.5q-22 3 -37 17.5t-15 34.5q0 22 15 36.5t37 14.5q20 0 34.5 -14.5t17.5 -36.5zM103 828q-3 -20 -17.5 -34.5t-33.5 -17.5q-23 3 -37.5 17.5t-14.5 34.5
q0 22 14.5 36.5t37.5 14.5q19 0 33.5 -14.5t17.5 -36.5zM233 828q-4 -20 -18.5 -34.5t-33.5 -17.5q-23 3 -37.5 17.5t-14.5 34.5q0 22 14.5 36.5t37.5 14.5q19 0 33.5 -14.5t18.5 -36.5zM362 828q-3 -20 -17.5 -34.5t-34.5 -17.5q-22 3 -37 17.5t-15 34.5q0 22 15 36.5
t37 14.5q20 0 34.5 -14.5t17.5 -36.5zM491 828q-3 -20 -17.5 -34.5t-34.5 -17.5q-22 3 -36.5 17.5t-14.5 34.5q0 22 14.5 36.5t36.5 14.5q20 0 34.5 -14.5t17.5 -36.5zM620 828q-3 -20 -17.5 -34.5t-33.5 -17.5q-23 3 -37.5 17.5t-14.5 34.5q0 22 14.5 36.5t37.5 14.5
q19 0 33.5 -14.5t17.5 -36.5zM362 183q-3 -20 -17.5 -34.5t-34.5 -17.5q-22 3 -37 17.5t-15 34.5q0 22 15 36.5t37 14.5q20 0 34.5 -14.5t17.5 -36.5zM233 53q-4 -19 -18.5 -33.5t-33.5 -17.5q-23 3 -37.5 17.5t-14.5 33.5q0 23 14.5 37.5t37.5 14.5q19 0 33.5 -14.5
t18.5 -37.5zM103 53q-3 -19 -17.5 -33.5t-33.5 -17.5q-23 3 -37.5 17.5t-14.5 33.5q0 23 14.5 37.5t37.5 14.5q19 0 33.5 -14.5t17.5 -37.5z" />
    <glyph glyph-name="K" unicode="K" horiz-adv-x="748" 
d="M103 699q-3 -20 -17.5 -34.5t-33.5 -17.5q-23 3 -37.5 17.5t-14.5 34.5q0 22 14.5 36.5t37.5 14.5q19 0 33.5 -14.5t17.5 -36.5zM103 569q-3 -19 -17.5 -33.5t-33.5 -17.5q-23 3 -37.5 17.5t-14.5 33.5q0 23 14.5 37.5t37.5 14.5q19 0 33.5 -14.5t17.5 -37.5zM103 440
q-3 -19 -17.5 -33.5t-33.5 -18.5q-23 4 -37.5 18.5t-14.5 33.5q0 23 14.5 37.5t37.5 14.5q19 0 33.5 -14.5t17.5 -37.5zM103 311q-3 -20 -17.5 -34t-33.5 -17q-23 3 -37.5 17t-14.5 34q0 22 14.5 37t37.5 15q19 0 33.5 -15t17.5 -37zM620 311q-3 -20 -17.5 -34t-33.5 -17
q-23 3 -37.5 17t-14.5 34q0 22 14.5 37t37.5 15q19 0 33.5 -15t17.5 -37zM233 440q-4 -19 -18.5 -33.5t-33.5 -18.5q-23 4 -37.5 18.5t-14.5 33.5q0 23 14.5 37.5t37.5 14.5q19 0 33.5 -14.5t18.5 -37.5zM362 440q-3 -19 -17.5 -33.5t-34.5 -18.5q-22 4 -37 18.5t-15 33.5
q0 23 15 37.5t37 14.5q20 0 34.5 -14.5t17.5 -37.5zM491 440q-3 -19 -17.5 -33.5t-34.5 -18.5q-22 4 -36.5 18.5t-14.5 33.5q0 23 14.5 37.5t36.5 14.5q20 0 34.5 -14.5t17.5 -37.5zM362 569q-3 -19 -17.5 -33.5t-34.5 -17.5q-22 3 -37 17.5t-15 33.5q0 23 15 37.5t37 14.5
q20 0 34.5 -14.5t17.5 -37.5zM491 699q-3 -20 -17.5 -34.5t-34.5 -17.5q-22 3 -36.5 17.5t-14.5 34.5q0 22 14.5 36.5t36.5 14.5q20 0 34.5 -14.5t17.5 -36.5zM103 828q-3 -20 -17.5 -34.5t-33.5 -17.5q-23 3 -37.5 17.5t-14.5 34.5q0 22 14.5 36.5t37.5 14.5
q19 0 33.5 -14.5t17.5 -36.5zM620 828q-3 -20 -17.5 -34.5t-33.5 -17.5q-23 3 -37.5 17.5t-14.5 34.5q0 22 14.5 36.5t37.5 14.5q19 0 33.5 -14.5t17.5 -36.5zM620 183q-3 -20 -17.5 -34.5t-33.5 -17.5q-23 3 -37.5 17.5t-14.5 34.5q0 22 14.5 36.5t37.5 14.5
q19 0 33.5 -14.5t17.5 -36.5zM620 53q-3 -19 -17.5 -33.5t-33.5 -17.5q-23 3 -37.5 17.5t-14.5 33.5q0 23 14.5 37.5t37.5 14.5q19 0 33.5 -14.5t17.5 -37.5zM103 183q-3 -20 -17.5 -34.5t-33.5 -17.5q-23 3 -37.5 17.5t-14.5 34.5q0 22 14.5 36.5t37.5 14.5
q19 0 33.5 -14.5t17.5 -36.5zM103 53q-3 -19 -17.5 -33.5t-33.5 -17.5q-23 3 -37.5 17.5t-14.5 33.5q0 23 14.5 37.5t37.5 14.5q19 0 33.5 -14.5t17.5 -37.5z" />
    <glyph glyph-name="L" unicode="L" horiz-adv-x="748" 
d="M103 699q-3 -20 -17.5 -34.5t-33.5 -17.5q-23 3 -37.5 17.5t-14.5 34.5q0 22 14.5 36.5t37.5 14.5q19 0 33.5 -14.5t17.5 -36.5zM103 569q-3 -19 -17.5 -33.5t-33.5 -17.5q-23 3 -37.5 17.5t-14.5 33.5q0 23 14.5 37.5t37.5 14.5q19 0 33.5 -14.5t17.5 -37.5zM103 440
q-3 -19 -17.5 -33.5t-33.5 -18.5q-23 4 -37.5 18.5t-14.5 33.5q0 23 14.5 37.5t37.5 14.5q19 0 33.5 -14.5t17.5 -37.5zM103 311q-3 -20 -17.5 -34t-33.5 -17q-23 3 -37.5 17t-14.5 34q0 22 14.5 37t37.5 15q19 0 33.5 -15t17.5 -37zM103 828q-3 -20 -17.5 -34.5
t-33.5 -17.5q-23 3 -37.5 17.5t-14.5 34.5q0 22 14.5 36.5t37.5 14.5q19 0 33.5 -14.5t17.5 -36.5zM233 53q-4 -19 -18.5 -33.5t-33.5 -17.5q-23 3 -37.5 17.5t-14.5 33.5q0 23 14.5 37.5t37.5 14.5q19 0 33.5 -14.5t18.5 -37.5zM362 53q-3 -19 -17.5 -33.5t-34.5 -17.5
q-22 3 -37 17.5t-15 33.5q0 23 15 37.5t37 14.5q20 0 34.5 -14.5t17.5 -37.5zM491 53q-3 -19 -17.5 -33.5t-34.5 -17.5q-22 3 -36.5 17.5t-14.5 33.5q0 23 14.5 37.5t36.5 14.5q20 0 34.5 -14.5t17.5 -37.5zM620 53q-3 -19 -17.5 -33.5t-33.5 -17.5q-23 3 -37.5 17.5
t-14.5 33.5q0 23 14.5 37.5t37.5 14.5q19 0 33.5 -14.5t17.5 -37.5zM103 183q-3 -20 -17.5 -34.5t-33.5 -17.5q-23 3 -37.5 17.5t-14.5 34.5q0 22 14.5 36.5t37.5 14.5q19 0 33.5 -14.5t17.5 -36.5z" />
    <glyph glyph-name="M" unicode="M" horiz-adv-x="748" 
d="M103 699q-3 -20 -17.5 -34.5t-33.5 -17.5q-23 3 -37.5 17.5t-14.5 34.5q0 22 14.5 36.5t37.5 14.5q19 0 33.5 -14.5t17.5 -36.5zM103 569q-3 -19 -17.5 -33.5t-33.5 -17.5q-23 3 -37.5 17.5t-14.5 33.5q0 23 14.5 37.5t37.5 14.5q19 0 33.5 -14.5t17.5 -37.5zM103 440
q-3 -19 -17.5 -33.5t-33.5 -18.5q-23 4 -37.5 18.5t-14.5 33.5q0 23 14.5 37.5t37.5 14.5q19 0 33.5 -14.5t17.5 -37.5zM103 311q-3 -20 -17.5 -34t-33.5 -17q-23 3 -37.5 17t-14.5 34q0 22 14.5 37t37.5 15q19 0 33.5 -15t17.5 -37zM620 311q-3 -20 -17.5 -34t-33.5 -17
q-23 3 -37.5 17t-14.5 34q0 22 14.5 37t37.5 15q19 0 33.5 -15t17.5 -37zM620 440q-3 -19 -17.5 -33.5t-33.5 -18.5q-23 4 -37.5 18.5t-14.5 33.5q0 23 14.5 37.5t37.5 14.5q19 0 33.5 -14.5t17.5 -37.5zM362 569q-3 -19 -17.5 -33.5t-34.5 -17.5q-22 3 -37 17.5t-15 33.5
q0 23 15 37.5t37 14.5q20 0 34.5 -14.5t17.5 -37.5zM620 569q-3 -19 -17.5 -33.5t-33.5 -17.5q-23 3 -37.5 17.5t-14.5 33.5q0 23 14.5 37.5t37.5 14.5q19 0 33.5 -14.5t17.5 -37.5zM233 699q-4 -20 -18.5 -34.5t-33.5 -17.5q-23 3 -37.5 17.5t-14.5 34.5q0 22 14.5 36.5
t37.5 14.5q19 0 33.5 -14.5t18.5 -36.5zM491 699q-3 -20 -17.5 -34.5t-34.5 -17.5q-22 3 -36.5 17.5t-14.5 34.5q0 22 14.5 36.5t36.5 14.5q20 0 34.5 -14.5t17.5 -36.5zM620 699q-3 -20 -17.5 -34.5t-33.5 -17.5q-23 3 -37.5 17.5t-14.5 34.5q0 22 14.5 36.5t37.5 14.5
q19 0 33.5 -14.5t17.5 -36.5zM103 828q-3 -20 -17.5 -34.5t-33.5 -17.5q-23 3 -37.5 17.5t-14.5 34.5q0 22 14.5 36.5t37.5 14.5q19 0 33.5 -14.5t17.5 -36.5zM620 828q-3 -20 -17.5 -34.5t-33.5 -17.5q-23 3 -37.5 17.5t-14.5 34.5q0 22 14.5 36.5t37.5 14.5
q19 0 33.5 -14.5t17.5 -36.5zM620 183q-3 -20 -17.5 -34.5t-33.5 -17.5q-23 3 -37.5 17.5t-14.5 34.5q0 22 14.5 36.5t37.5 14.5q19 0 33.5 -14.5t17.5 -36.5zM620 53q-3 -19 -17.5 -33.5t-33.5 -17.5q-23 3 -37.5 17.5t-14.5 33.5q0 23 14.5 37.5t37.5 14.5
q19 0 33.5 -14.5t17.5 -37.5zM103 183q-3 -20 -17.5 -34.5t-33.5 -17.5q-23 3 -37.5 17.5t-14.5 34.5q0 22 14.5 36.5t37.5 14.5q19 0 33.5 -14.5t17.5 -36.5zM103 53q-3 -19 -17.5 -33.5t-33.5 -17.5q-23 3 -37.5 17.5t-14.5 33.5q0 23 14.5 37.5t37.5 14.5
q19 0 33.5 -14.5t17.5 -37.5z" />
    <glyph glyph-name="N" unicode="N" horiz-adv-x="748" 
d="M103 699q-3 -20 -17.5 -34.5t-33.5 -17.5q-23 3 -37.5 17.5t-14.5 34.5q0 22 14.5 36.5t37.5 14.5q19 0 33.5 -14.5t17.5 -36.5zM103 569q-3 -19 -17.5 -33.5t-33.5 -17.5q-23 3 -37.5 17.5t-14.5 33.5q0 23 14.5 37.5t37.5 14.5q19 0 33.5 -14.5t17.5 -37.5zM103 440
q-3 -19 -17.5 -33.5t-33.5 -18.5q-23 4 -37.5 18.5t-14.5 33.5q0 23 14.5 37.5t37.5 14.5q19 0 33.5 -14.5t17.5 -37.5zM103 311q-3 -20 -17.5 -34t-33.5 -17q-23 3 -37.5 17t-14.5 34q0 22 14.5 37t37.5 15q19 0 33.5 -15t17.5 -37zM491 311q-3 -20 -17.5 -34t-34.5 -17
q-22 3 -36.5 17t-14.5 34q0 22 14.5 37t36.5 15q20 0 34.5 -15t17.5 -37zM620 311q-3 -20 -17.5 -34t-33.5 -17q-23 3 -37.5 17t-14.5 34q0 22 14.5 37t37.5 15q19 0 33.5 -15t17.5 -37zM362 440q-3 -19 -17.5 -33.5t-34.5 -18.5q-22 4 -37 18.5t-15 33.5q0 23 15 37.5
t37 14.5q20 0 34.5 -14.5t17.5 -37.5zM620 440q-3 -19 -17.5 -33.5t-33.5 -18.5q-23 4 -37.5 18.5t-14.5 33.5q0 23 14.5 37.5t37.5 14.5q19 0 33.5 -14.5t17.5 -37.5zM233 569q-4 -19 -18.5 -33.5t-33.5 -17.5q-23 3 -37.5 17.5t-14.5 33.5q0 23 14.5 37.5t37.5 14.5
q19 0 33.5 -14.5t18.5 -37.5zM620 569q-3 -19 -17.5 -33.5t-33.5 -17.5q-23 3 -37.5 17.5t-14.5 33.5q0 23 14.5 37.5t37.5 14.5q19 0 33.5 -14.5t17.5 -37.5zM620 699q-3 -20 -17.5 -34.5t-33.5 -17.5q-23 3 -37.5 17.5t-14.5 34.5q0 22 14.5 36.5t37.5 14.5
q19 0 33.5 -14.5t17.5 -36.5zM103 828q-3 -20 -17.5 -34.5t-33.5 -17.5q-23 3 -37.5 17.5t-14.5 34.5q0 22 14.5 36.5t37.5 14.5q19 0 33.5 -14.5t17.5 -36.5zM620 828q-3 -20 -17.5 -34.5t-33.5 -17.5q-23 3 -37.5 17.5t-14.5 34.5q0 22 14.5 36.5t37.5 14.5
q19 0 33.5 -14.5t17.5 -36.5zM620 183q-3 -20 -17.5 -34.5t-33.5 -17.5q-23 3 -37.5 17.5t-14.5 34.5q0 22 14.5 36.5t37.5 14.5q19 0 33.5 -14.5t17.5 -36.5zM620 53q-3 -19 -17.5 -33.5t-33.5 -17.5q-23 3 -37.5 17.5t-14.5 33.5q0 23 14.5 37.5t37.5 14.5
q19 0 33.5 -14.5t17.5 -37.5zM103 183q-3 -20 -17.5 -34.5t-33.5 -17.5q-23 3 -37.5 17.5t-14.5 34.5q0 22 14.5 36.5t37.5 14.5q19 0 33.5 -14.5t17.5 -36.5zM103 53q-3 -19 -17.5 -33.5t-33.5 -17.5q-23 3 -37.5 17.5t-14.5 33.5q0 23 14.5 37.5t37.5 14.5
q19 0 33.5 -14.5t17.5 -37.5z" />
    <glyph glyph-name="O" unicode="O" horiz-adv-x="748" 
d="M103 699q-3 -20 -17.5 -34.5t-33.5 -17.5q-23 3 -37.5 17.5t-14.5 34.5q0 22 14.5 36.5t37.5 14.5q19 0 33.5 -14.5t17.5 -36.5zM103 569q-3 -19 -17.5 -33.5t-33.5 -17.5q-23 3 -37.5 17.5t-14.5 33.5q0 23 14.5 37.5t37.5 14.5q19 0 33.5 -14.5t17.5 -37.5zM103 440
q-3 -19 -17.5 -33.5t-33.5 -18.5q-23 4 -37.5 18.5t-14.5 33.5q0 23 14.5 37.5t37.5 14.5q19 0 33.5 -14.5t17.5 -37.5zM103 311q-3 -20 -17.5 -34t-33.5 -17q-23 3 -37.5 17t-14.5 34q0 22 14.5 37t37.5 15q19 0 33.5 -15t17.5 -37zM620 311q-3 -20 -17.5 -34t-33.5 -17
q-23 3 -37.5 17t-14.5 34q0 22 14.5 37t37.5 15q19 0 33.5 -15t17.5 -37zM362 440q-3 -19 -17.5 -33.5t-34.5 -18.5q-22 4 -37 18.5t-15 33.5q0 23 15 37.5t37 14.5q20 0 34.5 -14.5t17.5 -37.5zM620 440q-3 -19 -17.5 -33.5t-33.5 -18.5q-23 4 -37.5 18.5t-14.5 33.5
q0 23 14.5 37.5t37.5 14.5q19 0 33.5 -14.5t17.5 -37.5zM620 569q-3 -19 -17.5 -33.5t-33.5 -17.5q-23 3 -37.5 17.5t-14.5 33.5q0 23 14.5 37.5t37.5 14.5q19 0 33.5 -14.5t17.5 -37.5zM620 699q-3 -20 -17.5 -34.5t-33.5 -17.5q-23 3 -37.5 17.5t-14.5 34.5
q0 22 14.5 36.5t37.5 14.5q19 0 33.5 -14.5t17.5 -36.5zM233 828q-4 -20 -18.5 -34.5t-33.5 -17.5q-23 3 -37.5 17.5t-14.5 34.5q0 22 14.5 36.5t37.5 14.5q19 0 33.5 -14.5t18.5 -36.5zM362 828q-3 -20 -17.5 -34.5t-34.5 -17.5q-22 3 -37 17.5t-15 34.5q0 22 15 36.5
t37 14.5q20 0 34.5 -14.5t17.5 -36.5zM491 828q-3 -20 -17.5 -34.5t-34.5 -17.5q-22 3 -36.5 17.5t-14.5 34.5q0 22 14.5 36.5t36.5 14.5q20 0 34.5 -14.5t17.5 -36.5zM620 183q-3 -20 -17.5 -34.5t-33.5 -17.5q-23 3 -37.5 17.5t-14.5 34.5q0 22 14.5 36.5t37.5 14.5
q19 0 33.5 -14.5t17.5 -36.5zM233 53q-4 -19 -18.5 -33.5t-33.5 -17.5q-23 3 -37.5 17.5t-14.5 33.5q0 23 14.5 37.5t37.5 14.5q19 0 33.5 -14.5t18.5 -37.5zM362 53q-3 -19 -17.5 -33.5t-34.5 -17.5q-22 3 -37 17.5t-15 33.5q0 23 15 37.5t37 14.5q20 0 34.5 -14.5
t17.5 -37.5zM491 53q-3 -19 -17.5 -33.5t-34.5 -17.5q-22 3 -36.5 17.5t-14.5 33.5q0 23 14.5 37.5t36.5 14.5q20 0 34.5 -14.5t17.5 -37.5zM103 183q-3 -20 -17.5 -34.5t-33.5 -17.5q-23 3 -37.5 17.5t-14.5 34.5q0 22 14.5 36.5t37.5 14.5q19 0 33.5 -14.5t17.5 -36.5z
" />
    <glyph glyph-name="P" unicode="P" horiz-adv-x="748" 
d="M103 699q-3 -20 -17.5 -34.5t-33.5 -17.5q-23 3 -37.5 17.5t-14.5 34.5q0 22 14.5 36.5t37.5 14.5q19 0 33.5 -14.5t17.5 -36.5zM103 569q-3 -19 -17.5 -33.5t-33.5 -17.5q-23 3 -37.5 17.5t-14.5 33.5q0 23 14.5 37.5t37.5 14.5q19 0 33.5 -14.5t17.5 -37.5zM103 440
q-3 -19 -17.5 -33.5t-33.5 -18.5q-23 4 -37.5 18.5t-14.5 33.5q0 23 14.5 37.5t37.5 14.5q19 0 33.5 -14.5t17.5 -37.5zM103 311q-3 -20 -17.5 -34t-33.5 -17q-23 3 -37.5 17t-14.5 34q0 22 14.5 37t37.5 15q19 0 33.5 -15t17.5 -37zM233 440q-4 -19 -18.5 -33.5
t-33.5 -18.5q-23 4 -37.5 18.5t-14.5 33.5q0 23 14.5 37.5t37.5 14.5q19 0 33.5 -14.5t18.5 -37.5zM362 440q-3 -19 -17.5 -33.5t-34.5 -18.5q-22 4 -37 18.5t-15 33.5q0 23 15 37.5t37 14.5q20 0 34.5 -14.5t17.5 -37.5zM491 440q-3 -19 -17.5 -33.5t-34.5 -18.5
q-22 4 -36.5 18.5t-14.5 33.5q0 23 14.5 37.5t36.5 14.5q20 0 34.5 -14.5t17.5 -37.5zM620 569q-3 -19 -17.5 -33.5t-33.5 -17.5q-23 3 -37.5 17.5t-14.5 33.5q0 23 14.5 37.5t37.5 14.5q19 0 33.5 -14.5t17.5 -37.5zM620 699q-3 -20 -17.5 -34.5t-33.5 -17.5
q-23 3 -37.5 17.5t-14.5 34.5q0 22 14.5 36.5t37.5 14.5q19 0 33.5 -14.5t17.5 -36.5zM103 828q-3 -20 -17.5 -34.5t-33.5 -17.5q-23 3 -37.5 17.5t-14.5 34.5q0 22 14.5 36.5t37.5 14.5q19 0 33.5 -14.5t17.5 -36.5zM233 828q-4 -20 -18.5 -34.5t-33.5 -17.5
q-23 3 -37.5 17.5t-14.5 34.5q0 22 14.5 36.5t37.5 14.5q19 0 33.5 -14.5t18.5 -36.5zM362 828q-3 -20 -17.5 -34.5t-34.5 -17.5q-22 3 -37 17.5t-15 34.5q0 22 15 36.5t37 14.5q20 0 34.5 -14.5t17.5 -36.5zM491 828q-3 -20 -17.5 -34.5t-34.5 -17.5q-22 3 -36.5 17.5
t-14.5 34.5q0 22 14.5 36.5t36.5 14.5q20 0 34.5 -14.5t17.5 -36.5zM103 183q-3 -20 -17.5 -34.5t-33.5 -17.5q-23 3 -37.5 17.5t-14.5 34.5q0 22 14.5 36.5t37.5 14.5q19 0 33.5 -14.5t17.5 -36.5zM103 53q-3 -19 -17.5 -33.5t-33.5 -17.5q-23 3 -37.5 17.5t-14.5 33.5
q0 23 14.5 37.5t37.5 14.5q19 0 33.5 -14.5t17.5 -37.5z" />
    <glyph glyph-name="Q" unicode="Q" horiz-adv-x="748" 
d="M103 699q-3 -20 -17.5 -34.5t-33.5 -17.5q-23 3 -37.5 17.5t-14.5 34.5q0 22 14.5 36.5t37.5 14.5q19 0 33.5 -14.5t17.5 -36.5zM103 569q-3 -19 -17.5 -33.5t-33.5 -17.5q-23 3 -37.5 17.5t-14.5 33.5q0 23 14.5 37.5t37.5 14.5q19 0 33.5 -14.5t17.5 -37.5zM103 440
q-3 -19 -17.5 -33.5t-33.5 -18.5q-23 4 -37.5 18.5t-14.5 33.5q0 23 14.5 37.5t37.5 14.5q19 0 33.5 -14.5t17.5 -37.5zM103 311q-3 -20 -17.5 -34t-33.5 -17q-23 3 -37.5 17t-14.5 34q0 22 14.5 37t37.5 15q19 0 33.5 -15t17.5 -37zM362 311q-3 -20 -17.5 -34t-34.5 -17
q-22 3 -37 17t-15 34q0 22 15 37t37 15q20 0 34.5 -15t17.5 -37zM620 311q-3 -20 -17.5 -34t-33.5 -17q-23 3 -37.5 17t-14.5 34q0 22 14.5 37t37.5 15q19 0 33.5 -15t17.5 -37zM620 440q-3 -19 -17.5 -33.5t-33.5 -18.5q-23 4 -37.5 18.5t-14.5 33.5q0 23 14.5 37.5
t37.5 14.5q19 0 33.5 -14.5t17.5 -37.5zM620 569q-3 -19 -17.5 -33.5t-33.5 -17.5q-23 3 -37.5 17.5t-14.5 33.5q0 23 14.5 37.5t37.5 14.5q19 0 33.5 -14.5t17.5 -37.5zM620 699q-3 -20 -17.5 -34.5t-33.5 -17.5q-23 3 -37.5 17.5t-14.5 34.5q0 22 14.5 36.5t37.5 14.5
q19 0 33.5 -14.5t17.5 -36.5zM233 828q-4 -20 -18.5 -34.5t-33.5 -17.5q-23 3 -37.5 17.5t-14.5 34.5q0 22 14.5 36.5t37.5 14.5q19 0 33.5 -14.5t18.5 -36.5zM362 828q-3 -20 -17.5 -34.5t-34.5 -17.5q-22 3 -37 17.5t-15 34.5q0 22 15 36.5t37 14.5q20 0 34.5 -14.5
t17.5 -36.5zM491 828q-3 -20 -17.5 -34.5t-34.5 -17.5q-22 3 -36.5 17.5t-14.5 34.5q0 22 14.5 36.5t36.5 14.5q20 0 34.5 -14.5t17.5 -36.5zM491 183q-3 -20 -17.5 -34.5t-34.5 -17.5q-22 3 -36.5 17.5t-14.5 34.5q0 22 14.5 36.5t36.5 14.5q20 0 34.5 -14.5t17.5 -36.5z
M620 183q-3 -20 -17.5 -34.5t-33.5 -17.5q-23 3 -37.5 17.5t-14.5 34.5q0 22 14.5 36.5t37.5 14.5q19 0 33.5 -14.5t17.5 -36.5zM233 53q-4 -19 -18.5 -33.5t-33.5 -17.5q-23 3 -37.5 17.5t-14.5 33.5q0 23 14.5 37.5t37.5 14.5q19 0 33.5 -14.5t18.5 -37.5zM362 53
q-3 -19 -17.5 -33.5t-34.5 -17.5q-22 3 -37 17.5t-15 33.5q0 23 15 37.5t37 14.5q20 0 34.5 -14.5t17.5 -37.5zM491 53q-3 -19 -17.5 -33.5t-34.5 -17.5q-22 3 -36.5 17.5t-14.5 33.5q0 23 14.5 37.5t36.5 14.5q20 0 34.5 -14.5t17.5 -37.5zM103 183q-3 -20 -17.5 -34.5
t-33.5 -17.5q-23 3 -37.5 17.5t-14.5 34.5q0 22 14.5 36.5t37.5 14.5q19 0 33.5 -14.5t17.5 -36.5z" />
    <glyph glyph-name="R" unicode="R" horiz-adv-x="748" 
d="M103 699q-3 -20 -17.5 -34.5t-33.5 -17.5q-23 3 -37.5 17.5t-14.5 34.5q0 22 14.5 36.5t37.5 14.5q19 0 33.5 -14.5t17.5 -36.5zM103 569q-3 -19 -17.5 -33.5t-33.5 -17.5q-23 3 -37.5 17.5t-14.5 33.5q0 23 14.5 37.5t37.5 14.5q19 0 33.5 -14.5t17.5 -37.5zM103 440
q-3 -19 -17.5 -33.5t-33.5 -18.5q-23 4 -37.5 18.5t-14.5 33.5q0 23 14.5 37.5t37.5 14.5q19 0 33.5 -14.5t17.5 -37.5zM103 311q-3 -20 -17.5 -34t-33.5 -17q-23 3 -37.5 17t-14.5 34q0 22 14.5 37t37.5 15q19 0 33.5 -15t17.5 -37zM620 311q-3 -20 -17.5 -34t-33.5 -17
q-23 3 -37.5 17t-14.5 34q0 22 14.5 37t37.5 15q19 0 33.5 -15t17.5 -37zM233 440q-4 -19 -18.5 -33.5t-33.5 -18.5q-23 4 -37.5 18.5t-14.5 33.5q0 23 14.5 37.5t37.5 14.5q19 0 33.5 -14.5t18.5 -37.5zM362 440q-3 -19 -17.5 -33.5t-34.5 -18.5q-22 4 -37 18.5t-15 33.5
q0 23 15 37.5t37 14.5q20 0 34.5 -14.5t17.5 -37.5zM491 440q-3 -19 -17.5 -33.5t-34.5 -18.5q-22 4 -36.5 18.5t-14.5 33.5q0 23 14.5 37.5t36.5 14.5q20 0 34.5 -14.5t17.5 -37.5zM620 569q-3 -19 -17.5 -33.5t-33.5 -17.5q-23 3 -37.5 17.5t-14.5 33.5q0 23 14.5 37.5
t37.5 14.5q19 0 33.5 -14.5t17.5 -37.5zM620 699q-3 -20 -17.5 -34.5t-33.5 -17.5q-23 3 -37.5 17.5t-14.5 34.5q0 22 14.5 36.5t37.5 14.5q19 0 33.5 -14.5t17.5 -36.5zM103 828q-3 -20 -17.5 -34.5t-33.5 -17.5q-23 3 -37.5 17.5t-14.5 34.5q0 22 14.5 36.5t37.5 14.5
q19 0 33.5 -14.5t17.5 -36.5zM233 828q-4 -20 -18.5 -34.5t-33.5 -17.5q-23 3 -37.5 17.5t-14.5 34.5q0 22 14.5 36.5t37.5 14.5q19 0 33.5 -14.5t18.5 -36.5zM362 828q-3 -20 -17.5 -34.5t-34.5 -17.5q-22 3 -37 17.5t-15 34.5q0 22 15 36.5t37 14.5q20 0 34.5 -14.5
t17.5 -36.5zM491 828q-3 -20 -17.5 -34.5t-34.5 -17.5q-22 3 -36.5 17.5t-14.5 34.5q0 22 14.5 36.5t36.5 14.5q20 0 34.5 -14.5t17.5 -36.5zM620 183q-3 -20 -17.5 -34.5t-33.5 -17.5q-23 3 -37.5 17.5t-14.5 34.5q0 22 14.5 36.5t37.5 14.5q19 0 33.5 -14.5t17.5 -36.5z
M620 53q-3 -19 -17.5 -33.5t-33.5 -17.5q-23 3 -37.5 17.5t-14.5 33.5q0 23 14.5 37.5t37.5 14.5q19 0 33.5 -14.5t17.5 -37.5zM103 183q-3 -20 -17.5 -34.5t-33.5 -17.5q-23 3 -37.5 17.5t-14.5 34.5q0 22 14.5 36.5t37.5 14.5q19 0 33.5 -14.5t17.5 -36.5zM103 53
q-3 -19 -17.5 -33.5t-33.5 -17.5q-23 3 -37.5 17.5t-14.5 33.5q0 23 14.5 37.5t37.5 14.5q19 0 33.5 -14.5t17.5 -37.5z" />
    <glyph glyph-name="S" unicode="S" horiz-adv-x="748" 
d="M103 699q-3 -20 -17.5 -34.5t-33.5 -17.5q-23 3 -37.5 17.5t-14.5 34.5q0 22 14.5 36.5t37.5 14.5q19 0 33.5 -14.5t17.5 -36.5zM103 569q-3 -19 -17.5 -33.5t-33.5 -17.5q-23 3 -37.5 17.5t-14.5 33.5q0 23 14.5 37.5t37.5 14.5q19 0 33.5 -14.5t17.5 -37.5zM620 311
q-3 -20 -17.5 -34t-33.5 -17q-23 3 -37.5 17t-14.5 34q0 22 14.5 37t37.5 15q19 0 33.5 -15t17.5 -37zM233 440q-4 -19 -18.5 -33.5t-33.5 -18.5q-23 4 -37.5 18.5t-14.5 33.5q0 23 14.5 37.5t37.5 14.5q19 0 33.5 -14.5t18.5 -37.5zM362 440q-3 -19 -17.5 -33.5
t-34.5 -18.5q-22 4 -37 18.5t-15 33.5q0 23 15 37.5t37 14.5q20 0 34.5 -14.5t17.5 -37.5zM491 440q-3 -19 -17.5 -33.5t-34.5 -18.5q-22 4 -36.5 18.5t-14.5 33.5q0 23 14.5 37.5t36.5 14.5q20 0 34.5 -14.5t17.5 -37.5zM233 828q-4 -20 -18.5 -34.5t-33.5 -17.5
q-23 3 -37.5 17.5t-14.5 34.5q0 22 14.5 36.5t37.5 14.5q19 0 33.5 -14.5t18.5 -36.5zM362 828q-3 -20 -17.5 -34.5t-34.5 -17.5q-22 3 -37 17.5t-15 34.5q0 22 15 36.5t37 14.5q20 0 34.5 -14.5t17.5 -36.5zM491 828q-3 -20 -17.5 -34.5t-34.5 -17.5q-22 3 -36.5 17.5
t-14.5 34.5q0 22 14.5 36.5t36.5 14.5q20 0 34.5 -14.5t17.5 -36.5zM620 828q-3 -20 -17.5 -34.5t-33.5 -17.5q-23 3 -37.5 17.5t-14.5 34.5q0 22 14.5 36.5t37.5 14.5q19 0 33.5 -14.5t17.5 -36.5zM620 183q-3 -20 -17.5 -34.5t-33.5 -17.5q-23 3 -37.5 17.5t-14.5 34.5
q0 22 14.5 36.5t37.5 14.5q19 0 33.5 -14.5t17.5 -36.5zM233 53q-4 -19 -18.5 -33.5t-33.5 -17.5q-23 3 -37.5 17.5t-14.5 33.5q0 23 14.5 37.5t37.5 14.5q19 0 33.5 -14.5t18.5 -37.5zM362 53q-3 -19 -17.5 -33.5t-34.5 -17.5q-22 3 -37 17.5t-15 33.5q0 23 15 37.5
t37 14.5q20 0 34.5 -14.5t17.5 -37.5zM491 53q-3 -19 -17.5 -33.5t-34.5 -17.5q-22 3 -36.5 17.5t-14.5 33.5q0 23 14.5 37.5t36.5 14.5q20 0 34.5 -14.5t17.5 -37.5zM103 53q-3 -19 -17.5 -33.5t-33.5 -17.5q-23 3 -37.5 17.5t-14.5 33.5q0 23 14.5 37.5t37.5 14.5
q19 0 33.5 -14.5t17.5 -37.5z" />
    <glyph glyph-name="T" unicode="T" horiz-adv-x="748" 
d="M362 311q-3 -20 -17.5 -34t-34.5 -17q-22 3 -37 17t-15 34q0 22 15 37t37 15q20 0 34.5 -15t17.5 -37zM362 440q-3 -19 -17.5 -33.5t-34.5 -18.5q-22 4 -37 18.5t-15 33.5q0 23 15 37.5t37 14.5q20 0 34.5 -14.5t17.5 -37.5zM362 569q-3 -19 -17.5 -33.5t-34.5 -17.5
q-22 3 -37 17.5t-15 33.5q0 23 15 37.5t37 14.5q20 0 34.5 -14.5t17.5 -37.5zM362 699q-3 -20 -17.5 -34.5t-34.5 -17.5q-22 3 -37 17.5t-15 34.5q0 22 15 36.5t37 14.5q20 0 34.5 -14.5t17.5 -36.5zM103 828q-3 -20 -17.5 -34.5t-33.5 -17.5q-23 3 -37.5 17.5t-14.5 34.5
q0 22 14.5 36.5t37.5 14.5q19 0 33.5 -14.5t17.5 -36.5zM233 828q-4 -20 -18.5 -34.5t-33.5 -17.5q-23 3 -37.5 17.5t-14.5 34.5q0 22 14.5 36.5t37.5 14.5q19 0 33.5 -14.5t18.5 -36.5zM362 828q-3 -20 -17.5 -34.5t-34.5 -17.5q-22 3 -37 17.5t-15 34.5q0 22 15 36.5
t37 14.5q20 0 34.5 -14.5t17.5 -36.5zM491 828q-3 -20 -17.5 -34.5t-34.5 -17.5q-22 3 -36.5 17.5t-14.5 34.5q0 22 14.5 36.5t36.5 14.5q20 0 34.5 -14.5t17.5 -36.5zM620 828q-3 -20 -17.5 -34.5t-33.5 -17.5q-23 3 -37.5 17.5t-14.5 34.5q0 22 14.5 36.5t37.5 14.5
q19 0 33.5 -14.5t17.5 -36.5zM362 183q-3 -20 -17.5 -34.5t-34.5 -17.5q-22 3 -37 17.5t-15 34.5q0 22 15 36.5t37 14.5q20 0 34.5 -14.5t17.5 -36.5zM362 53q-3 -19 -17.5 -33.5t-34.5 -17.5q-22 3 -37 17.5t-15 33.5q0 23 15 37.5t37 14.5q20 0 34.5 -14.5t17.5 -37.5z
" />
    <glyph glyph-name="U" unicode="U" horiz-adv-x="748" 
d="M103 699q-3 -20 -17.5 -34.5t-33.5 -17.5q-23 3 -37.5 17.5t-14.5 34.5q0 22 14.5 36.5t37.5 14.5q19 0 33.5 -14.5t17.5 -36.5zM103 569q-3 -19 -17.5 -33.5t-33.5 -17.5q-23 3 -37.5 17.5t-14.5 33.5q0 23 14.5 37.5t37.5 14.5q19 0 33.5 -14.5t17.5 -37.5zM103 440
q-3 -19 -17.5 -33.5t-33.5 -18.5q-23 4 -37.5 18.5t-14.5 33.5q0 23 14.5 37.5t37.5 14.5q19 0 33.5 -14.5t17.5 -37.5zM103 311q-3 -20 -17.5 -34t-33.5 -17q-23 3 -37.5 17t-14.5 34q0 22 14.5 37t37.5 15q19 0 33.5 -15t17.5 -37zM620 311q-3 -20 -17.5 -34t-33.5 -17
q-23 3 -37.5 17t-14.5 34q0 22 14.5 37t37.5 15q19 0 33.5 -15t17.5 -37zM620 440q-3 -19 -17.5 -33.5t-33.5 -18.5q-23 4 -37.5 18.5t-14.5 33.5q0 23 14.5 37.5t37.5 14.5q19 0 33.5 -14.5t17.5 -37.5zM620 569q-3 -19 -17.5 -33.5t-33.5 -17.5q-23 3 -37.5 17.5
t-14.5 33.5q0 23 14.5 37.5t37.5 14.5q19 0 33.5 -14.5t17.5 -37.5zM620 699q-3 -20 -17.5 -34.5t-33.5 -17.5q-23 3 -37.5 17.5t-14.5 34.5q0 22 14.5 36.5t37.5 14.5q19 0 33.5 -14.5t17.5 -36.5zM103 828q-3 -20 -17.5 -34.5t-33.5 -17.5q-23 3 -37.5 17.5t-14.5 34.5
q0 22 14.5 36.5t37.5 14.5q19 0 33.5 -14.5t17.5 -36.5zM620 828q-3 -20 -17.5 -34.5t-33.5 -17.5q-23 3 -37.5 17.5t-14.5 34.5q0 22 14.5 36.5t37.5 14.5q19 0 33.5 -14.5t17.5 -36.5zM620 183q-3 -20 -17.5 -34.5t-33.5 -17.5q-23 3 -37.5 17.5t-14.5 34.5
q0 22 14.5 36.5t37.5 14.5q19 0 33.5 -14.5t17.5 -36.5zM233 53q-4 -19 -18.5 -33.5t-33.5 -17.5q-23 3 -37.5 17.5t-14.5 33.5q0 23 14.5 37.5t37.5 14.5q19 0 33.5 -14.5t18.5 -37.5zM362 53q-3 -19 -17.5 -33.5t-34.5 -17.5q-22 3 -37 17.5t-15 33.5q0 23 15 37.5
t37 14.5q20 0 34.5 -14.5t17.5 -37.5zM491 53q-3 -19 -17.5 -33.5t-34.5 -17.5q-22 3 -36.5 17.5t-14.5 33.5q0 23 14.5 37.5t36.5 14.5q20 0 34.5 -14.5t17.5 -37.5zM103 183q-3 -20 -17.5 -34.5t-33.5 -17.5q-23 3 -37.5 17.5t-14.5 34.5q0 22 14.5 36.5t37.5 14.5
q19 0 33.5 -14.5t17.5 -36.5z" />
    <glyph glyph-name="V" unicode="V" horiz-adv-x="748" 
d="M103 699q-3 -20 -17.5 -34.5t-33.5 -17.5q-23 3 -37.5 17.5t-14.5 34.5q0 22 14.5 36.5t37.5 14.5q19 0 33.5 -14.5t17.5 -36.5zM103 569q-3 -19 -17.5 -33.5t-33.5 -17.5q-23 3 -37.5 17.5t-14.5 33.5q0 23 14.5 37.5t37.5 14.5q19 0 33.5 -14.5t17.5 -37.5zM103 440
q-3 -19 -17.5 -33.5t-33.5 -18.5q-23 4 -37.5 18.5t-14.5 33.5q0 23 14.5 37.5t37.5 14.5q19 0 33.5 -14.5t17.5 -37.5zM103 311q-3 -20 -17.5 -34t-33.5 -17q-23 3 -37.5 17t-14.5 34q0 22 14.5 37t37.5 15q19 0 33.5 -15t17.5 -37zM620 311q-3 -20 -17.5 -34t-33.5 -17
q-23 3 -37.5 17t-14.5 34q0 22 14.5 37t37.5 15q19 0 33.5 -15t17.5 -37zM620 440q-3 -19 -17.5 -33.5t-33.5 -18.5q-23 4 -37.5 18.5t-14.5 33.5q0 23 14.5 37.5t37.5 14.5q19 0 33.5 -14.5t17.5 -37.5zM620 569q-3 -19 -17.5 -33.5t-33.5 -17.5q-23 3 -37.5 17.5
t-14.5 33.5q0 23 14.5 37.5t37.5 14.5q19 0 33.5 -14.5t17.5 -37.5zM620 699q-3 -20 -17.5 -34.5t-33.5 -17.5q-23 3 -37.5 17.5t-14.5 34.5q0 22 14.5 36.5t37.5 14.5q19 0 33.5 -14.5t17.5 -36.5zM103 828q-3 -20 -17.5 -34.5t-33.5 -17.5q-23 3 -37.5 17.5t-14.5 34.5
q0 22 14.5 36.5t37.5 14.5q19 0 33.5 -14.5t17.5 -36.5zM620 828q-3 -20 -17.5 -34.5t-33.5 -17.5q-23 3 -37.5 17.5t-14.5 34.5q0 22 14.5 36.5t37.5 14.5q19 0 33.5 -14.5t17.5 -36.5zM233 183q-4 -20 -18.5 -34.5t-33.5 -17.5q-23 3 -37.5 17.5t-14.5 34.5
q0 22 14.5 36.5t37.5 14.5q19 0 33.5 -14.5t18.5 -36.5zM491 183q-3 -20 -17.5 -34.5t-34.5 -17.5q-22 3 -36.5 17.5t-14.5 34.5q0 22 14.5 36.5t36.5 14.5q20 0 34.5 -14.5t17.5 -36.5zM362 53q-3 -19 -17.5 -33.5t-34.5 -17.5q-22 3 -37 17.5t-15 33.5q0 23 15 37.5
t37 14.5q20 0 34.5 -14.5t17.5 -37.5z" />
    <glyph glyph-name="W" unicode="W" horiz-adv-x="748" 
d="M103 699q-3 -20 -17.5 -34.5t-33.5 -17.5q-23 3 -37.5 17.5t-14.5 34.5q0 22 14.5 36.5t37.5 14.5q19 0 33.5 -14.5t17.5 -36.5zM103 569q-3 -19 -17.5 -33.5t-33.5 -17.5q-23 3 -37.5 17.5t-14.5 33.5q0 23 14.5 37.5t37.5 14.5q19 0 33.5 -14.5t17.5 -37.5zM103 440
q-3 -19 -17.5 -33.5t-33.5 -18.5q-23 4 -37.5 18.5t-14.5 33.5q0 23 14.5 37.5t37.5 14.5q19 0 33.5 -14.5t17.5 -37.5zM103 311q-3 -20 -17.5 -34t-33.5 -17q-23 3 -37.5 17t-14.5 34q0 22 14.5 37t37.5 15q19 0 33.5 -15t17.5 -37zM362 311q-3 -20 -17.5 -34t-34.5 -17
q-22 3 -37 17t-15 34q0 22 15 37t37 15q20 0 34.5 -15t17.5 -37zM620 311q-3 -20 -17.5 -34t-33.5 -17q-23 3 -37.5 17t-14.5 34q0 22 14.5 37t37.5 15q19 0 33.5 -15t17.5 -37zM620 440q-3 -19 -17.5 -33.5t-33.5 -18.5q-23 4 -37.5 18.5t-14.5 33.5q0 23 14.5 37.5
t37.5 14.5q19 0 33.5 -14.5t17.5 -37.5zM620 569q-3 -19 -17.5 -33.5t-33.5 -17.5q-23 3 -37.5 17.5t-14.5 33.5q0 23 14.5 37.5t37.5 14.5q19 0 33.5 -14.5t17.5 -37.5zM620 699q-3 -20 -17.5 -34.5t-33.5 -17.5q-23 3 -37.5 17.5t-14.5 34.5q0 22 14.5 36.5t37.5 14.5
q19 0 33.5 -14.5t17.5 -36.5zM103 828q-3 -20 -17.5 -34.5t-33.5 -17.5q-23 3 -37.5 17.5t-14.5 34.5q0 22 14.5 36.5t37.5 14.5q19 0 33.5 -14.5t17.5 -36.5zM620 828q-3 -20 -17.5 -34.5t-33.5 -17.5q-23 3 -37.5 17.5t-14.5 34.5q0 22 14.5 36.5t37.5 14.5
q19 0 33.5 -14.5t17.5 -36.5zM233 183q-4 -20 -18.5 -34.5t-33.5 -17.5q-23 3 -37.5 17.5t-14.5 34.5q0 22 14.5 36.5t37.5 14.5q19 0 33.5 -14.5t18.5 -36.5zM491 183q-3 -20 -17.5 -34.5t-34.5 -17.5q-22 3 -36.5 17.5t-14.5 34.5q0 22 14.5 36.5t36.5 14.5
q20 0 34.5 -14.5t17.5 -36.5zM620 183q-3 -20 -17.5 -34.5t-33.5 -17.5q-23 3 -37.5 17.5t-14.5 34.5q0 22 14.5 36.5t37.5 14.5q19 0 33.5 -14.5t17.5 -36.5zM620 53q-3 -19 -17.5 -33.5t-33.5 -17.5q-23 3 -37.5 17.5t-14.5 33.5q0 23 14.5 37.5t37.5 14.5
q19 0 33.5 -14.5t17.5 -37.5zM103 183q-3 -20 -17.5 -34.5t-33.5 -17.5q-23 3 -37.5 17.5t-14.5 34.5q0 22 14.5 36.5t37.5 14.5q19 0 33.5 -14.5t17.5 -36.5zM103 53q-3 -19 -17.5 -33.5t-33.5 -17.5q-23 3 -37.5 17.5t-14.5 33.5q0 23 14.5 37.5t37.5 14.5
q19 0 33.5 -14.5t17.5 -37.5z" />
    <glyph glyph-name="X" unicode="X" horiz-adv-x="748" 
d="M362 311q-3 -20 -17.5 -34t-34.5 -17q-22 3 -37 17t-15 34q0 22 15 37t37 15q20 0 34.5 -15t17.5 -37zM362 440q-3 -19 -17.5 -33.5t-34.5 -18.5q-22 4 -37 18.5t-15 33.5q0 23 15 37.5t37 14.5q20 0 34.5 -14.5t17.5 -37.5zM362 569q-3 -19 -17.5 -33.5t-34.5 -17.5
q-22 3 -37 17.5t-15 33.5q0 23 15 37.5t37 14.5q20 0 34.5 -14.5t17.5 -37.5zM233 699q-4 -20 -18.5 -34.5t-33.5 -17.5q-23 3 -37.5 17.5t-14.5 34.5q0 22 14.5 36.5t37.5 14.5q19 0 33.5 -14.5t18.5 -36.5zM491 699q-3 -20 -17.5 -34.5t-34.5 -17.5q-22 3 -36.5 17.5
t-14.5 34.5q0 22 14.5 36.5t36.5 14.5q20 0 34.5 -14.5t17.5 -36.5zM103 828q-3 -20 -17.5 -34.5t-33.5 -17.5q-23 3 -37.5 17.5t-14.5 34.5q0 22 14.5 36.5t37.5 14.5q19 0 33.5 -14.5t17.5 -36.5zM620 828q-3 -20 -17.5 -34.5t-33.5 -17.5q-23 3 -37.5 17.5t-14.5 34.5
q0 22 14.5 36.5t37.5 14.5q19 0 33.5 -14.5t17.5 -36.5zM233 183q-4 -20 -18.5 -34.5t-33.5 -17.5q-23 3 -37.5 17.5t-14.5 34.5q0 22 14.5 36.5t37.5 14.5q19 0 33.5 -14.5t18.5 -36.5zM491 183q-3 -20 -17.5 -34.5t-34.5 -17.5q-22 3 -36.5 17.5t-14.5 34.5
q0 22 14.5 36.5t36.5 14.5q20 0 34.5 -14.5t17.5 -36.5zM620 53q-3 -19 -17.5 -33.5t-33.5 -17.5q-23 3 -37.5 17.5t-14.5 33.5q0 23 14.5 37.5t37.5 14.5q19 0 33.5 -14.5t17.5 -37.5zM103 53q-3 -19 -17.5 -33.5t-33.5 -17.5q-23 3 -37.5 17.5t-14.5 33.5q0 23 14.5 37.5
t37.5 14.5q19 0 33.5 -14.5t17.5 -37.5z" />
    <glyph glyph-name="Y" unicode="Y" horiz-adv-x="748" 
d="M103 699q-3 -20 -17.5 -34.5t-33.5 -17.5q-23 3 -37.5 17.5t-14.5 34.5q0 22 14.5 36.5t37.5 14.5q19 0 33.5 -14.5t17.5 -36.5zM103 569q-3 -19 -17.5 -33.5t-33.5 -17.5q-23 3 -37.5 17.5t-14.5 33.5q0 23 14.5 37.5t37.5 14.5q19 0 33.5 -14.5t17.5 -37.5zM362 311
q-3 -20 -17.5 -34t-34.5 -17q-22 3 -37 17t-15 34q0 22 15 37t37 15q20 0 34.5 -15t17.5 -37zM233 440q-4 -19 -18.5 -33.5t-33.5 -18.5q-23 4 -37.5 18.5t-14.5 33.5q0 23 14.5 37.5t37.5 14.5q19 0 33.5 -14.5t18.5 -37.5zM491 440q-3 -19 -17.5 -33.5t-34.5 -18.5
q-22 4 -36.5 18.5t-14.5 33.5q0 23 14.5 37.5t36.5 14.5q20 0 34.5 -14.5t17.5 -37.5zM620 569q-3 -19 -17.5 -33.5t-33.5 -17.5q-23 3 -37.5 17.5t-14.5 33.5q0 23 14.5 37.5t37.5 14.5q19 0 33.5 -14.5t17.5 -37.5zM620 699q-3 -20 -17.5 -34.5t-33.5 -17.5
q-23 3 -37.5 17.5t-14.5 34.5q0 22 14.5 36.5t37.5 14.5q19 0 33.5 -14.5t17.5 -36.5zM103 828q-3 -20 -17.5 -34.5t-33.5 -17.5q-23 3 -37.5 17.5t-14.5 34.5q0 22 14.5 36.5t37.5 14.5q19 0 33.5 -14.5t17.5 -36.5zM620 828q-3 -20 -17.5 -34.5t-33.5 -17.5
q-23 3 -37.5 17.5t-14.5 34.5q0 22 14.5 36.5t37.5 14.5q19 0 33.5 -14.5t17.5 -36.5zM362 183q-3 -20 -17.5 -34.5t-34.5 -17.5q-22 3 -37 17.5t-15 34.5q0 22 15 36.5t37 14.5q20 0 34.5 -14.5t17.5 -36.5zM362 53q-3 -19 -17.5 -33.5t-34.5 -17.5q-22 3 -37 17.5
t-15 33.5q0 23 15 37.5t37 14.5q20 0 34.5 -14.5t17.5 -37.5z" />
    <glyph glyph-name="Z" unicode="Z" horiz-adv-x="748" 
d="M233 311q-4 -20 -18.5 -34t-33.5 -17q-23 3 -37.5 17t-14.5 34q0 22 14.5 37t37.5 15q19 0 33.5 -15t18.5 -37zM362 440q-3 -19 -17.5 -33.5t-34.5 -18.5q-22 4 -37 18.5t-15 33.5q0 23 15 37.5t37 14.5q20 0 34.5 -14.5t17.5 -37.5zM491 569q-3 -19 -17.5 -33.5
t-34.5 -17.5q-22 3 -36.5 17.5t-14.5 33.5q0 23 14.5 37.5t36.5 14.5q20 0 34.5 -14.5t17.5 -37.5zM620 699q-3 -20 -17.5 -34.5t-33.5 -17.5q-23 3 -37.5 17.5t-14.5 34.5q0 22 14.5 36.5t37.5 14.5q19 0 33.5 -14.5t17.5 -36.5zM103 828q-3 -20 -17.5 -34.5t-33.5 -17.5
q-23 3 -37.5 17.5t-14.5 34.5q0 22 14.5 36.5t37.5 14.5q19 0 33.5 -14.5t17.5 -36.5zM233 828q-4 -20 -18.5 -34.5t-33.5 -17.5q-23 3 -37.5 17.5t-14.5 34.5q0 22 14.5 36.5t37.5 14.5q19 0 33.5 -14.5t18.5 -36.5zM362 828q-3 -20 -17.5 -34.5t-34.5 -17.5
q-22 3 -37 17.5t-15 34.5q0 22 15 36.5t37 14.5q20 0 34.5 -14.5t17.5 -36.5zM491 828q-3 -20 -17.5 -34.5t-34.5 -17.5q-22 3 -36.5 17.5t-14.5 34.5q0 22 14.5 36.5t36.5 14.5q20 0 34.5 -14.5t17.5 -36.5zM620 828q-3 -20 -17.5 -34.5t-33.5 -17.5q-23 3 -37.5 17.5
t-14.5 34.5q0 22 14.5 36.5t37.5 14.5q19 0 33.5 -14.5t17.5 -36.5zM233 53q-4 -19 -18.5 -33.5t-33.5 -17.5q-23 3 -37.5 17.5t-14.5 33.5q0 23 14.5 37.5t37.5 14.5q19 0 33.5 -14.5t18.5 -37.5zM362 53q-3 -19 -17.5 -33.5t-34.5 -17.5q-22 3 -37 17.5t-15 33.5
q0 23 15 37.5t37 14.5q20 0 34.5 -14.5t17.5 -37.5zM491 53q-3 -19 -17.5 -33.5t-34.5 -17.5q-22 3 -36.5 17.5t-14.5 33.5q0 23 14.5 37.5t36.5 14.5q20 0 34.5 -14.5t17.5 -37.5zM620 53q-3 -19 -17.5 -33.5t-33.5 -17.5q-23 3 -37.5 17.5t-14.5 33.5q0 23 14.5 37.5
t37.5 14.5q19 0 33.5 -14.5t17.5 -37.5zM103 183q-3 -20 -17.5 -34.5t-33.5 -17.5q-23 3 -37.5 17.5t-14.5 34.5q0 22 14.5 36.5t37.5 14.5q19 0 33.5 -14.5t17.5 -36.5zM103 53q-3 -19 -17.5 -33.5t-33.5 -17.5q-23 3 -37.5 17.5t-14.5 33.5q0 23 14.5 37.5t37.5 14.5
q19 0 33.5 -14.5t17.5 -37.5z" />
    <glyph glyph-name="bracketleft" unicode="[" horiz-adv-x="490" 
d="M103 699q-3 -20 -17.5 -34.5t-33.5 -17.5q-23 3 -37.5 17.5t-14.5 34.5q0 22 14.5 36.5t37.5 14.5q19 0 33.5 -14.5t17.5 -36.5zM103 569q-3 -19 -17.5 -33.5t-33.5 -17.5q-23 3 -37.5 17.5t-14.5 33.5q0 23 14.5 37.5t37.5 14.5q19 0 33.5 -14.5t17.5 -37.5zM103 440
q-3 -19 -17.5 -33.5t-33.5 -18.5q-23 4 -37.5 18.5t-14.5 33.5q0 23 14.5 37.5t37.5 14.5q19 0 33.5 -14.5t17.5 -37.5zM103 311q-3 -20 -17.5 -34t-33.5 -17q-23 3 -37.5 17t-14.5 34q0 22 14.5 37t37.5 15q19 0 33.5 -15t17.5 -37zM103 828q-3 -20 -17.5 -34.5
t-33.5 -17.5q-23 3 -37.5 17.5t-14.5 34.5q0 22 14.5 36.5t37.5 14.5q19 0 33.5 -14.5t17.5 -36.5zM233 828q-4 -20 -18.5 -34.5t-33.5 -17.5q-23 3 -37.5 17.5t-14.5 34.5q0 22 14.5 36.5t37.5 14.5q19 0 33.5 -14.5t18.5 -36.5zM362 828q-3 -20 -17.5 -34.5t-34.5 -17.5
q-22 3 -37 17.5t-15 34.5q0 22 15 36.5t37 14.5q20 0 34.5 -14.5t17.5 -36.5zM233 53q-4 -19 -18.5 -33.5t-33.5 -17.5q-23 3 -37.5 17.5t-14.5 33.5q0 23 14.5 37.5t37.5 14.5q19 0 33.5 -14.5t18.5 -37.5zM362 53q-3 -19 -17.5 -33.5t-34.5 -17.5q-22 3 -37 17.5t-15 33.5
q0 23 15 37.5t37 14.5q20 0 34.5 -14.5t17.5 -37.5zM103 183q-3 -20 -17.5 -34.5t-33.5 -17.5q-23 3 -37.5 17.5t-14.5 34.5q0 22 14.5 36.5t37.5 14.5q19 0 33.5 -14.5t17.5 -36.5zM103 53q-3 -19 -17.5 -33.5t-33.5 -17.5q-23 3 -37.5 17.5t-14.5 33.5q0 23 14.5 37.5
t37.5 14.5q19 0 33.5 -14.5t17.5 -37.5z" />
    <glyph glyph-name="backslash" unicode="\" horiz-adv-x="748" 
d="M103 440q-3 -19 -17.5 -33.5t-33.5 -18.5q-23 4 -37.5 18.5t-14.5 33.5q0 23 14.5 37.5t37.5 14.5q19 0 33.5 -14.5t17.5 -37.5zM362 311q-3 -20 -17.5 -34t-34.5 -17q-22 3 -37 17t-15 34q0 22 15 37t37 15q20 0 34.5 -15t17.5 -37zM233 440q-4 -19 -18.5 -33.5
t-33.5 -18.5q-23 4 -37.5 18.5t-14.5 33.5q0 23 14.5 37.5t37.5 14.5q19 0 33.5 -14.5t18.5 -37.5zM362 440q-3 -19 -17.5 -33.5t-34.5 -18.5q-22 4 -37 18.5t-15 33.5q0 23 15 37.5t37 14.5q20 0 34.5 -14.5t17.5 -37.5zM491 440q-3 -19 -17.5 -33.5t-34.5 -18.5
q-22 4 -36.5 18.5t-14.5 33.5q0 23 14.5 37.5t36.5 14.5q20 0 34.5 -14.5t17.5 -37.5zM620 440q-3 -19 -17.5 -33.5t-33.5 -18.5q-23 4 -37.5 18.5t-14.5 33.5q0 23 14.5 37.5t37.5 14.5q19 0 33.5 -14.5t17.5 -37.5zM362 569q-3 -19 -17.5 -33.5t-34.5 -17.5
q-22 3 -37 17.5t-15 33.5q0 23 15 37.5t37 14.5q20 0 34.5 -14.5t17.5 -37.5zM233 699q-4 -20 -18.5 -34.5t-33.5 -17.5q-23 3 -37.5 17.5t-14.5 34.5q0 22 14.5 36.5t37.5 14.5q19 0 33.5 -14.5t18.5 -36.5zM491 699q-3 -20 -17.5 -34.5t-34.5 -17.5q-22 3 -36.5 17.5
t-14.5 34.5q0 22 14.5 36.5t36.5 14.5q20 0 34.5 -14.5t17.5 -36.5zM103 828q-3 -20 -17.5 -34.5t-33.5 -17.5q-23 3 -37.5 17.5t-14.5 34.5q0 22 14.5 36.5t37.5 14.5q19 0 33.5 -14.5t17.5 -36.5zM620 828q-3 -20 -17.5 -34.5t-33.5 -17.5q-23 3 -37.5 17.5t-14.5 34.5
q0 22 14.5 36.5t37.5 14.5q19 0 33.5 -14.5t17.5 -36.5zM233 183q-4 -20 -18.5 -34.5t-33.5 -17.5q-23 3 -37.5 17.5t-14.5 34.5q0 22 14.5 36.5t37.5 14.5q19 0 33.5 -14.5t18.5 -36.5zM362 183q-3 -20 -17.5 -34.5t-34.5 -17.5q-22 3 -37 17.5t-15 34.5q0 22 15 36.5
t37 14.5q20 0 34.5 -14.5t17.5 -36.5zM491 183q-3 -20 -17.5 -34.5t-34.5 -17.5q-22 3 -36.5 17.5t-14.5 34.5q0 22 14.5 36.5t36.5 14.5q20 0 34.5 -14.5t17.5 -36.5zM620 183q-3 -20 -17.5 -34.5t-33.5 -17.5q-23 3 -37.5 17.5t-14.5 34.5q0 22 14.5 36.5t37.5 14.5
q19 0 33.5 -14.5t17.5 -36.5zM362 53q-3 -19 -17.5 -33.5t-34.5 -17.5q-22 3 -37 17.5t-15 33.5q0 23 15 37.5t37 14.5q20 0 34.5 -14.5t17.5 -37.5zM103 183q-3 -20 -17.5 -34.5t-33.5 -17.5q-23 3 -37.5 17.5t-14.5 34.5q0 22 14.5 36.5t37.5 14.5q19 0 33.5 -14.5
t17.5 -36.5z" />
    <glyph glyph-name="bracketright" unicode="]" horiz-adv-x="490" 
d="M362 311q-3 -20 -17.5 -34t-34.5 -17q-22 3 -37 17t-15 34q0 22 15 37t37 15q20 0 34.5 -15t17.5 -37zM362 440q-3 -19 -17.5 -33.5t-34.5 -18.5q-22 4 -37 18.5t-15 33.5q0 23 15 37.5t37 14.5q20 0 34.5 -14.5t17.5 -37.5zM362 569q-3 -19 -17.5 -33.5t-34.5 -17.5
q-22 3 -37 17.5t-15 33.5q0 23 15 37.5t37 14.5q20 0 34.5 -14.5t17.5 -37.5zM362 699q-3 -20 -17.5 -34.5t-34.5 -17.5q-22 3 -37 17.5t-15 34.5q0 22 15 36.5t37 14.5q20 0 34.5 -14.5t17.5 -36.5zM103 828q-3 -20 -17.5 -34.5t-33.5 -17.5q-23 3 -37.5 17.5t-14.5 34.5
q0 22 14.5 36.5t37.5 14.5q19 0 33.5 -14.5t17.5 -36.5zM233 828q-4 -20 -18.5 -34.5t-33.5 -17.5q-23 3 -37.5 17.5t-14.5 34.5q0 22 14.5 36.5t37.5 14.5q19 0 33.5 -14.5t18.5 -36.5zM362 828q-3 -20 -17.5 -34.5t-34.5 -17.5q-22 3 -37 17.5t-15 34.5q0 22 15 36.5
t37 14.5q20 0 34.5 -14.5t17.5 -36.5zM362 183q-3 -20 -17.5 -34.5t-34.5 -17.5q-22 3 -37 17.5t-15 34.5q0 22 15 36.5t37 14.5q20 0 34.5 -14.5t17.5 -36.5zM233 53q-4 -19 -18.5 -33.5t-33.5 -17.5q-23 3 -37.5 17.5t-14.5 33.5q0 23 14.5 37.5t37.5 14.5
q19 0 33.5 -14.5t18.5 -37.5zM362 53q-3 -19 -17.5 -33.5t-34.5 -17.5q-22 3 -37 17.5t-15 33.5q0 23 15 37.5t37 14.5q20 0 34.5 -14.5t17.5 -37.5zM103 53q-3 -19 -17.5 -33.5t-33.5 -17.5q-23 3 -37.5 17.5t-14.5 33.5q0 23 14.5 37.5t37.5 14.5q19 0 33.5 -14.5
t17.5 -37.5z" />
    <glyph glyph-name="asciicircum" unicode="^" horiz-adv-x="490" 
d="M103 699q-3 -20 -17.5 -34.5t-33.5 -17.5q-23 3 -37.5 17.5t-14.5 34.5q0 22 14.5 36.5t37.5 14.5q19 0 33.5 -14.5t17.5 -36.5zM362 699q-3 -20 -17.5 -34.5t-34.5 -17.5q-22 3 -37 17.5t-15 34.5q0 22 15 36.5t37 14.5q20 0 34.5 -14.5t17.5 -36.5zM233 828
q-4 -20 -18.5 -34.5t-33.5 -17.5q-23 3 -37.5 17.5t-14.5 34.5q0 22 14.5 36.5t37.5 14.5q19 0 33.5 -14.5t18.5 -36.5z" />
    <glyph glyph-name="underscore" unicode="_" horiz-adv-x="748" 
d="M233 53q-4 -19 -18.5 -33.5t-33.5 -17.5q-23 3 -37.5 17.5t-14.5 33.5q0 23 14.5 37.5t37.5 14.5q19 0 33.5 -14.5t18.5 -37.5zM362 53q-3 -19 -17.5 -33.5t-34.5 -17.5q-22 3 -37 17.5t-15 33.5q0 23 15 37.5t37 14.5q20 0 34.5 -14.5t17.5 -37.5zM491 53
q-3 -19 -17.5 -33.5t-34.5 -17.5q-22 3 -36.5 17.5t-14.5 33.5q0 23 14.5 37.5t36.5 14.5q20 0 34.5 -14.5t17.5 -37.5zM620 53q-3 -19 -17.5 -33.5t-33.5 -17.5q-23 3 -37.5 17.5t-14.5 33.5q0 23 14.5 37.5t37.5 14.5q19 0 33.5 -14.5t17.5 -37.5zM103 53
q-3 -19 -17.5 -33.5t-33.5 -17.5q-23 3 -37.5 17.5t-14.5 33.5q0 23 14.5 37.5t37.5 14.5q19 0 33.5 -14.5t17.5 -37.5z" />
    <glyph glyph-name="grave" unicode="`" horiz-adv-x="361" 
d="M233 699q-4 -20 -18.5 -34.5t-33.5 -17.5q-23 3 -37.5 17.5t-14.5 34.5q0 22 14.5 36.5t37.5 14.5q19 0 33.5 -14.5t18.5 -36.5zM103 828q-3 -20 -17.5 -34.5t-33.5 -17.5q-23 3 -37.5 17.5t-14.5 34.5q0 22 14.5 36.5t37.5 14.5q19 0 33.5 -14.5t17.5 -36.5z" />
    <glyph glyph-name="a" unicode="a" horiz-adv-x="748" 
d="M103 569q-3 -19 -17.5 -33.5t-33.5 -17.5q-23 3 -37.5 17.5t-14.5 33.5q0 23 14.5 37.5t37.5 14.5q19 0 33.5 -14.5t17.5 -37.5zM233 311q-4 -20 -18.5 -34t-33.5 -17q-23 3 -37.5 17t-14.5 34q0 22 14.5 37t37.5 15q19 0 33.5 -15t18.5 -37zM362 311q-3 -20 -17.5 -34
t-34.5 -17q-22 3 -37 17t-15 34q0 22 15 37t37 15q20 0 34.5 -15t17.5 -37zM491 311q-3 -20 -17.5 -34t-34.5 -17q-22 3 -36.5 17t-14.5 34q0 22 14.5 37t36.5 15q20 0 34.5 -15t17.5 -37zM620 311q-3 -20 -17.5 -34t-33.5 -17q-23 3 -37.5 17t-14.5 34q0 22 14.5 37
t37.5 15q19 0 33.5 -15t17.5 -37zM620 440q-3 -19 -17.5 -33.5t-33.5 -18.5q-23 4 -37.5 18.5t-14.5 33.5q0 23 14.5 37.5t37.5 14.5q19 0 33.5 -14.5t17.5 -37.5zM233 569q-4 -19 -18.5 -33.5t-33.5 -17.5q-23 3 -37.5 17.5t-14.5 33.5q0 23 14.5 37.5t37.5 14.5
q19 0 33.5 -14.5t18.5 -37.5zM362 569q-3 -19 -17.5 -33.5t-34.5 -17.5q-22 3 -37 17.5t-15 33.5q0 23 15 37.5t37 14.5q20 0 34.5 -14.5t17.5 -37.5zM491 569q-3 -19 -17.5 -33.5t-34.5 -17.5q-22 3 -36.5 17.5t-14.5 33.5q0 23 14.5 37.5t36.5 14.5q20 0 34.5 -14.5
t17.5 -37.5zM620 183q-3 -20 -17.5 -34.5t-33.5 -17.5q-23 3 -37.5 17.5t-14.5 34.5q0 22 14.5 36.5t37.5 14.5q19 0 33.5 -14.5t17.5 -36.5zM233 53q-4 -19 -18.5 -33.5t-33.5 -17.5q-23 3 -37.5 17.5t-14.5 33.5q0 23 14.5 37.5t37.5 14.5q19 0 33.5 -14.5t18.5 -37.5z
M362 53q-3 -19 -17.5 -33.5t-34.5 -17.5q-22 3 -37 17.5t-15 33.5q0 23 15 37.5t37 14.5q20 0 34.5 -14.5t17.5 -37.5zM491 53q-3 -19 -17.5 -33.5t-34.5 -17.5q-22 3 -36.5 17.5t-14.5 33.5q0 23 14.5 37.5t36.5 14.5q20 0 34.5 -14.5t17.5 -37.5zM620 53
q-3 -19 -17.5 -33.5t-33.5 -17.5q-23 3 -37.5 17.5t-14.5 33.5q0 23 14.5 37.5t37.5 14.5q19 0 33.5 -14.5t17.5 -37.5zM103 183q-3 -20 -17.5 -34.5t-33.5 -17.5q-23 3 -37.5 17.5t-14.5 34.5q0 22 14.5 36.5t37.5 14.5q19 0 33.5 -14.5t17.5 -36.5z" />
    <glyph glyph-name="b" unicode="b" horiz-adv-x="748" 
d="M103 699q-3 -20 -17.5 -34.5t-33.5 -17.5q-23 3 -37.5 17.5t-14.5 34.5q0 22 14.5 36.5t37.5 14.5q19 0 33.5 -14.5t17.5 -36.5zM103 569q-3 -19 -17.5 -33.5t-33.5 -17.5q-23 3 -37.5 17.5t-14.5 33.5q0 23 14.5 37.5t37.5 14.5q19 0 33.5 -14.5t17.5 -37.5zM103 440
q-3 -19 -17.5 -33.5t-33.5 -18.5q-23 4 -37.5 18.5t-14.5 33.5q0 23 14.5 37.5t37.5 14.5q19 0 33.5 -14.5t17.5 -37.5zM103 311q-3 -20 -17.5 -34t-33.5 -17q-23 3 -37.5 17t-14.5 34q0 22 14.5 37t37.5 15q19 0 33.5 -15t17.5 -37zM620 311q-3 -20 -17.5 -34t-33.5 -17
q-23 3 -37.5 17t-14.5 34q0 22 14.5 37t37.5 15q19 0 33.5 -15t17.5 -37zM620 440q-3 -19 -17.5 -33.5t-33.5 -18.5q-23 4 -37.5 18.5t-14.5 33.5q0 23 14.5 37.5t37.5 14.5q19 0 33.5 -14.5t17.5 -37.5zM233 569q-4 -19 -18.5 -33.5t-33.5 -17.5q-23 3 -37.5 17.5
t-14.5 33.5q0 23 14.5 37.5t37.5 14.5q19 0 33.5 -14.5t18.5 -37.5zM362 569q-3 -19 -17.5 -33.5t-34.5 -17.5q-22 3 -37 17.5t-15 33.5q0 23 15 37.5t37 14.5q20 0 34.5 -14.5t17.5 -37.5zM491 569q-3 -19 -17.5 -33.5t-34.5 -17.5q-22 3 -36.5 17.5t-14.5 33.5
q0 23 14.5 37.5t36.5 14.5q20 0 34.5 -14.5t17.5 -37.5zM103 828q-3 -20 -17.5 -34.5t-33.5 -17.5q-23 3 -37.5 17.5t-14.5 34.5q0 22 14.5 36.5t37.5 14.5q19 0 33.5 -14.5t17.5 -36.5zM620 183q-3 -20 -17.5 -34.5t-33.5 -17.5q-23 3 -37.5 17.5t-14.5 34.5
q0 22 14.5 36.5t37.5 14.5q19 0 33.5 -14.5t17.5 -36.5zM233 53q-4 -19 -18.5 -33.5t-33.5 -17.5q-23 3 -37.5 17.5t-14.5 33.5q0 23 14.5 37.5t37.5 14.5q19 0 33.5 -14.5t18.5 -37.5zM362 53q-3 -19 -17.5 -33.5t-34.5 -17.5q-22 3 -37 17.5t-15 33.5q0 23 15 37.5
t37 14.5q20 0 34.5 -14.5t17.5 -37.5zM491 53q-3 -19 -17.5 -33.5t-34.5 -17.5q-22 3 -36.5 17.5t-14.5 33.5q0 23 14.5 37.5t36.5 14.5q20 0 34.5 -14.5t17.5 -37.5zM103 183q-3 -20 -17.5 -34.5t-33.5 -17.5q-23 3 -37.5 17.5t-14.5 34.5q0 22 14.5 36.5t37.5 14.5
q19 0 33.5 -14.5t17.5 -36.5zM103 53q-3 -19 -17.5 -33.5t-33.5 -17.5q-23 3 -37.5 17.5t-14.5 33.5q0 23 14.5 37.5t37.5 14.5q19 0 33.5 -14.5t17.5 -37.5z" />
    <glyph glyph-name="c" unicode="c" horiz-adv-x="748" 
d="M103 440q-3 -19 -17.5 -33.5t-33.5 -18.5q-23 4 -37.5 18.5t-14.5 33.5q0 23 14.5 37.5t37.5 14.5q19 0 33.5 -14.5t17.5 -37.5zM103 311q-3 -20 -17.5 -34t-33.5 -17q-23 3 -37.5 17t-14.5 34q0 22 14.5 37t37.5 15q19 0 33.5 -15t17.5 -37zM233 569q-4 -19 -18.5 -33.5
t-33.5 -17.5q-23 3 -37.5 17.5t-14.5 33.5q0 23 14.5 37.5t37.5 14.5q19 0 33.5 -14.5t18.5 -37.5zM362 569q-3 -19 -17.5 -33.5t-34.5 -17.5q-22 3 -37 17.5t-15 33.5q0 23 15 37.5t37 14.5q20 0 34.5 -14.5t17.5 -37.5zM491 569q-3 -19 -17.5 -33.5t-34.5 -17.5
q-22 3 -36.5 17.5t-14.5 33.5q0 23 14.5 37.5t36.5 14.5q20 0 34.5 -14.5t17.5 -37.5zM620 569q-3 -19 -17.5 -33.5t-33.5 -17.5q-23 3 -37.5 17.5t-14.5 33.5q0 23 14.5 37.5t37.5 14.5q19 0 33.5 -14.5t17.5 -37.5zM233 53q-4 -19 -18.5 -33.5t-33.5 -17.5
q-23 3 -37.5 17.5t-14.5 33.5q0 23 14.5 37.5t37.5 14.5q19 0 33.5 -14.5t18.5 -37.5zM362 53q-3 -19 -17.5 -33.5t-34.5 -17.5q-22 3 -37 17.5t-15 33.5q0 23 15 37.5t37 14.5q20 0 34.5 -14.5t17.5 -37.5zM491 53q-3 -19 -17.5 -33.5t-34.5 -17.5q-22 3 -36.5 17.5
t-14.5 33.5q0 23 14.5 37.5t36.5 14.5q20 0 34.5 -14.5t17.5 -37.5zM620 53q-3 -19 -17.5 -33.5t-33.5 -17.5q-23 3 -37.5 17.5t-14.5 33.5q0 23 14.5 37.5t37.5 14.5q19 0 33.5 -14.5t17.5 -37.5zM103 183q-3 -20 -17.5 -34.5t-33.5 -17.5q-23 3 -37.5 17.5t-14.5 34.5
q0 22 14.5 36.5t37.5 14.5q19 0 33.5 -14.5t17.5 -36.5z" />
    <glyph glyph-name="d" unicode="d" horiz-adv-x="748" 
d="M103 440q-3 -19 -17.5 -33.5t-33.5 -18.5q-23 4 -37.5 18.5t-14.5 33.5q0 23 14.5 37.5t37.5 14.5q19 0 33.5 -14.5t17.5 -37.5zM103 311q-3 -20 -17.5 -34t-33.5 -17q-23 3 -37.5 17t-14.5 34q0 22 14.5 37t37.5 15q19 0 33.5 -15t17.5 -37zM620 311q-3 -20 -17.5 -34
t-33.5 -17q-23 3 -37.5 17t-14.5 34q0 22 14.5 37t37.5 15q19 0 33.5 -15t17.5 -37zM620 440q-3 -19 -17.5 -33.5t-33.5 -18.5q-23 4 -37.5 18.5t-14.5 33.5q0 23 14.5 37.5t37.5 14.5q19 0 33.5 -14.5t17.5 -37.5zM233 569q-4 -19 -18.5 -33.5t-33.5 -17.5
q-23 3 -37.5 17.5t-14.5 33.5q0 23 14.5 37.5t37.5 14.5q19 0 33.5 -14.5t18.5 -37.5zM362 569q-3 -19 -17.5 -33.5t-34.5 -17.5q-22 3 -37 17.5t-15 33.5q0 23 15 37.5t37 14.5q20 0 34.5 -14.5t17.5 -37.5zM491 569q-3 -19 -17.5 -33.5t-34.5 -17.5q-22 3 -36.5 17.5
t-14.5 33.5q0 23 14.5 37.5t36.5 14.5q20 0 34.5 -14.5t17.5 -37.5zM620 569q-3 -19 -17.5 -33.5t-33.5 -17.5q-23 3 -37.5 17.5t-14.5 33.5q0 23 14.5 37.5t37.5 14.5q19 0 33.5 -14.5t17.5 -37.5zM620 699q-3 -20 -17.5 -34.5t-33.5 -17.5q-23 3 -37.5 17.5t-14.5 34.5
q0 22 14.5 36.5t37.5 14.5q19 0 33.5 -14.5t17.5 -36.5zM620 828q-3 -20 -17.5 -34.5t-33.5 -17.5q-23 3 -37.5 17.5t-14.5 34.5q0 22 14.5 36.5t37.5 14.5q19 0 33.5 -14.5t17.5 -36.5zM620 183q-3 -20 -17.5 -34.5t-33.5 -17.5q-23 3 -37.5 17.5t-14.5 34.5
q0 22 14.5 36.5t37.5 14.5q19 0 33.5 -14.5t17.5 -36.5zM233 53q-4 -19 -18.5 -33.5t-33.5 -17.5q-23 3 -37.5 17.5t-14.5 33.5q0 23 14.5 37.5t37.5 14.5q19 0 33.5 -14.5t18.5 -37.5zM362 53q-3 -19 -17.5 -33.5t-34.5 -17.5q-22 3 -37 17.5t-15 33.5q0 23 15 37.5
t37 14.5q20 0 34.5 -14.5t17.5 -37.5zM491 53q-3 -19 -17.5 -33.5t-34.5 -17.5q-22 3 -36.5 17.5t-14.5 33.5q0 23 14.5 37.5t36.5 14.5q20 0 34.5 -14.5t17.5 -37.5zM620 53q-3 -19 -17.5 -33.5t-33.5 -17.5q-23 3 -37.5 17.5t-14.5 33.5q0 23 14.5 37.5t37.5 14.5
q19 0 33.5 -14.5t17.5 -37.5zM103 183q-3 -20 -17.5 -34.5t-33.5 -17.5q-23 3 -37.5 17.5t-14.5 34.5q0 22 14.5 36.5t37.5 14.5q19 0 33.5 -14.5t17.5 -36.5z" />
    <glyph glyph-name="e" unicode="e" horiz-adv-x="748" 
d="M103 440q-3 -19 -17.5 -33.5t-33.5 -18.5q-23 4 -37.5 18.5t-14.5 33.5q0 23 14.5 37.5t37.5 14.5q19 0 33.5 -14.5t17.5 -37.5zM103 311q-3 -20 -17.5 -34t-33.5 -17q-23 3 -37.5 17t-14.5 34q0 22 14.5 37t37.5 15q19 0 33.5 -15t17.5 -37zM233 311q-4 -20 -18.5 -34
t-33.5 -17q-23 3 -37.5 17t-14.5 34q0 22 14.5 37t37.5 15q19 0 33.5 -15t18.5 -37zM362 311q-3 -20 -17.5 -34t-34.5 -17q-22 3 -37 17t-15 34q0 22 15 37t37 15q20 0 34.5 -15t17.5 -37zM491 311q-3 -20 -17.5 -34t-34.5 -17q-22 3 -36.5 17t-14.5 34q0 22 14.5 37
t36.5 15q20 0 34.5 -15t17.5 -37zM620 311q-3 -20 -17.5 -34t-33.5 -17q-23 3 -37.5 17t-14.5 34q0 22 14.5 37t37.5 15q19 0 33.5 -15t17.5 -37zM620 440q-3 -19 -17.5 -33.5t-33.5 -18.5q-23 4 -37.5 18.5t-14.5 33.5q0 23 14.5 37.5t37.5 14.5q19 0 33.5 -14.5
t17.5 -37.5zM233 569q-4 -19 -18.5 -33.5t-33.5 -17.5q-23 3 -37.5 17.5t-14.5 33.5q0 23 14.5 37.5t37.5 14.5q19 0 33.5 -14.5t18.5 -37.5zM362 569q-3 -19 -17.5 -33.5t-34.5 -17.5q-22 3 -37 17.5t-15 33.5q0 23 15 37.5t37 14.5q20 0 34.5 -14.5t17.5 -37.5zM491 569
q-3 -19 -17.5 -33.5t-34.5 -17.5q-22 3 -36.5 17.5t-14.5 33.5q0 23 14.5 37.5t36.5 14.5q20 0 34.5 -14.5t17.5 -37.5zM233 53q-4 -19 -18.5 -33.5t-33.5 -17.5q-23 3 -37.5 17.5t-14.5 33.5q0 23 14.5 37.5t37.5 14.5q19 0 33.5 -14.5t18.5 -37.5zM362 53
q-3 -19 -17.5 -33.5t-34.5 -17.5q-22 3 -37 17.5t-15 33.5q0 23 15 37.5t37 14.5q20 0 34.5 -14.5t17.5 -37.5zM491 53q-3 -19 -17.5 -33.5t-34.5 -17.5q-22 3 -36.5 17.5t-14.5 33.5q0 23 14.5 37.5t36.5 14.5q20 0 34.5 -14.5t17.5 -37.5zM103 183q-3 -20 -17.5 -34.5
t-33.5 -17.5q-23 3 -37.5 17.5t-14.5 34.5q0 22 14.5 36.5t37.5 14.5q19 0 33.5 -14.5t17.5 -36.5z" />
    <glyph glyph-name="f" unicode="f" horiz-adv-x="748" 
d="M103 440q-3 -19 -17.5 -33.5t-33.5 -18.5q-23 4 -37.5 18.5t-14.5 33.5q0 23 14.5 37.5t37.5 14.5q19 0 33.5 -14.5t17.5 -37.5zM233 311q-4 -20 -18.5 -34t-33.5 -17q-23 3 -37.5 17t-14.5 34q0 22 14.5 37t37.5 15q19 0 33.5 -15t18.5 -37zM233 440q-4 -19 -18.5 -33.5
t-33.5 -18.5q-23 4 -37.5 18.5t-14.5 33.5q0 23 14.5 37.5t37.5 14.5q19 0 33.5 -14.5t18.5 -37.5zM362 440q-3 -19 -17.5 -33.5t-34.5 -18.5q-22 4 -37 18.5t-15 33.5q0 23 15 37.5t37 14.5q20 0 34.5 -14.5t17.5 -37.5zM491 440q-3 -19 -17.5 -33.5t-34.5 -18.5
q-22 4 -36.5 18.5t-14.5 33.5q0 23 14.5 37.5t36.5 14.5q20 0 34.5 -14.5t17.5 -37.5zM233 569q-4 -19 -18.5 -33.5t-33.5 -17.5q-23 3 -37.5 17.5t-14.5 33.5q0 23 14.5 37.5t37.5 14.5q19 0 33.5 -14.5t18.5 -37.5zM233 699q-4 -20 -18.5 -34.5t-33.5 -17.5
q-23 3 -37.5 17.5t-14.5 34.5q0 22 14.5 36.5t37.5 14.5q19 0 33.5 -14.5t18.5 -36.5zM362 828q-3 -20 -17.5 -34.5t-34.5 -17.5q-22 3 -37 17.5t-15 34.5q0 22 15 36.5t37 14.5q20 0 34.5 -14.5t17.5 -36.5zM491 828q-3 -20 -17.5 -34.5t-34.5 -17.5q-22 3 -36.5 17.5
t-14.5 34.5q0 22 14.5 36.5t36.5 14.5q20 0 34.5 -14.5t17.5 -36.5zM620 828q-3 -20 -17.5 -34.5t-33.5 -17.5q-23 3 -37.5 17.5t-14.5 34.5q0 22 14.5 36.5t37.5 14.5q19 0 33.5 -14.5t17.5 -36.5zM233 183q-4 -20 -18.5 -34.5t-33.5 -17.5q-23 3 -37.5 17.5t-14.5 34.5
q0 22 14.5 36.5t37.5 14.5q19 0 33.5 -14.5t18.5 -36.5zM233 53q-4 -19 -18.5 -33.5t-33.5 -17.5q-23 3 -37.5 17.5t-14.5 33.5q0 23 14.5 37.5t37.5 14.5q19 0 33.5 -14.5t18.5 -37.5z" />
    <glyph glyph-name="g" unicode="g" horiz-adv-x="748" 
d="M103 440q-3 -19 -17.5 -33.5t-33.5 -18.5q-23 4 -37.5 18.5t-14.5 33.5q0 23 14.5 37.5t37.5 14.5q19 0 33.5 -14.5t17.5 -37.5zM103 311q-3 -20 -17.5 -34t-33.5 -17q-23 3 -37.5 17t-14.5 34q0 22 14.5 37t37.5 15q19 0 33.5 -15t17.5 -37zM620 311q-3 -20 -17.5 -34
t-33.5 -17q-23 3 -37.5 17t-14.5 34q0 22 14.5 37t37.5 15q19 0 33.5 -15t17.5 -37zM620 440q-3 -19 -17.5 -33.5t-33.5 -18.5q-23 4 -37.5 18.5t-14.5 33.5q0 23 14.5 37.5t37.5 14.5q19 0 33.5 -14.5t17.5 -37.5zM233 569q-4 -19 -18.5 -33.5t-33.5 -17.5
q-23 3 -37.5 17.5t-14.5 33.5q0 23 14.5 37.5t37.5 14.5q19 0 33.5 -14.5t18.5 -37.5zM362 569q-3 -19 -17.5 -33.5t-34.5 -17.5q-22 3 -37 17.5t-15 33.5q0 23 15 37.5t37 14.5q20 0 34.5 -14.5t17.5 -37.5zM491 569q-3 -19 -17.5 -33.5t-34.5 -17.5q-22 3 -36.5 17.5
t-14.5 33.5q0 23 14.5 37.5t36.5 14.5q20 0 34.5 -14.5t17.5 -37.5zM620 569q-3 -19 -17.5 -33.5t-33.5 -17.5q-23 3 -37.5 17.5t-14.5 33.5q0 23 14.5 37.5t37.5 14.5q19 0 33.5 -14.5t17.5 -37.5zM233 183q-4 -20 -18.5 -34.5t-33.5 -17.5q-23 3 -37.5 17.5t-14.5 34.5
q0 22 14.5 36.5t37.5 14.5q19 0 33.5 -14.5t18.5 -36.5zM362 183q-3 -20 -17.5 -34.5t-34.5 -17.5q-22 3 -37 17.5t-15 34.5q0 22 15 36.5t37 14.5q20 0 34.5 -14.5t17.5 -36.5zM491 183q-3 -20 -17.5 -34.5t-34.5 -17.5q-22 3 -36.5 17.5t-14.5 34.5q0 22 14.5 36.5
t36.5 14.5q20 0 34.5 -14.5t17.5 -36.5zM620 183q-3 -20 -17.5 -34.5t-33.5 -17.5q-23 3 -37.5 17.5t-14.5 34.5q0 22 14.5 36.5t37.5 14.5q19 0 33.5 -14.5t17.5 -36.5zM620 53q-3 -19 -17.5 -33.5t-33.5 -17.5q-23 3 -37.5 17.5t-14.5 33.5q0 23 14.5 37.5t37.5 14.5
q19 0 33.5 -14.5t17.5 -37.5zM233 -76q-4 -19 -18.5 -33.5t-33.5 -18.5q-23 4 -37.5 18.5t-14.5 33.5q0 23 14.5 37.5t37.5 14.5q19 0 33.5 -14.5t18.5 -37.5zM362 -76q-3 -19 -17.5 -33.5t-34.5 -18.5q-22 4 -37 18.5t-15 33.5q0 23 15 37.5t37 14.5q20 0 34.5 -14.5
t17.5 -37.5zM491 -76q-3 -19 -17.5 -33.5t-34.5 -18.5q-22 4 -36.5 18.5t-14.5 33.5q0 23 14.5 37.5t36.5 14.5q20 0 34.5 -14.5t17.5 -37.5zM103 -76q-3 -19 -17.5 -33.5t-33.5 -18.5q-23 4 -37.5 18.5t-14.5 33.5q0 23 14.5 37.5t37.5 14.5q19 0 33.5 -14.5t17.5 -37.5z
" />
    <glyph glyph-name="h" unicode="h" horiz-adv-x="748" 
d="M103 699q-3 -20 -17.5 -34.5t-33.5 -17.5q-23 3 -37.5 17.5t-14.5 34.5q0 22 14.5 36.5t37.5 14.5q19 0 33.5 -14.5t17.5 -36.5zM103 569q-3 -19 -17.5 -33.5t-33.5 -17.5q-23 3 -37.5 17.5t-14.5 33.5q0 23 14.5 37.5t37.5 14.5q19 0 33.5 -14.5t17.5 -37.5zM103 440
q-3 -19 -17.5 -33.5t-33.5 -18.5q-23 4 -37.5 18.5t-14.5 33.5q0 23 14.5 37.5t37.5 14.5q19 0 33.5 -14.5t17.5 -37.5zM103 311q-3 -20 -17.5 -34t-33.5 -17q-23 3 -37.5 17t-14.5 34q0 22 14.5 37t37.5 15q19 0 33.5 -15t17.5 -37zM620 311q-3 -20 -17.5 -34t-33.5 -17
q-23 3 -37.5 17t-14.5 34q0 22 14.5 37t37.5 15q19 0 33.5 -15t17.5 -37zM620 440q-3 -19 -17.5 -33.5t-33.5 -18.5q-23 4 -37.5 18.5t-14.5 33.5q0 23 14.5 37.5t37.5 14.5q19 0 33.5 -14.5t17.5 -37.5zM233 569q-4 -19 -18.5 -33.5t-33.5 -17.5q-23 3 -37.5 17.5
t-14.5 33.5q0 23 14.5 37.5t37.5 14.5q19 0 33.5 -14.5t18.5 -37.5zM362 569q-3 -19 -17.5 -33.5t-34.5 -17.5q-22 3 -37 17.5t-15 33.5q0 23 15 37.5t37 14.5q20 0 34.5 -14.5t17.5 -37.5zM491 569q-3 -19 -17.5 -33.5t-34.5 -17.5q-22 3 -36.5 17.5t-14.5 33.5
q0 23 14.5 37.5t36.5 14.5q20 0 34.5 -14.5t17.5 -37.5zM103 828q-3 -20 -17.5 -34.5t-33.5 -17.5q-23 3 -37.5 17.5t-14.5 34.5q0 22 14.5 36.5t37.5 14.5q19 0 33.5 -14.5t17.5 -36.5zM620 183q-3 -20 -17.5 -34.5t-33.5 -17.5q-23 3 -37.5 17.5t-14.5 34.5
q0 22 14.5 36.5t37.5 14.5q19 0 33.5 -14.5t17.5 -36.5zM620 53q-3 -19 -17.5 -33.5t-33.5 -17.5q-23 3 -37.5 17.5t-14.5 33.5q0 23 14.5 37.5t37.5 14.5q19 0 33.5 -14.5t17.5 -37.5zM103 183q-3 -20 -17.5 -34.5t-33.5 -17.5q-23 3 -37.5 17.5t-14.5 34.5q0 22 14.5 36.5
t37.5 14.5q19 0 33.5 -14.5t17.5 -36.5zM103 53q-3 -19 -17.5 -33.5t-33.5 -17.5q-23 3 -37.5 17.5t-14.5 33.5q0 23 14.5 37.5t37.5 14.5q19 0 33.5 -14.5t17.5 -37.5z" />
    <glyph glyph-name="i" unicode="i" horiz-adv-x="490" 
d="M103 569q-3 -19 -17.5 -33.5t-33.5 -17.5q-23 3 -37.5 17.5t-14.5 33.5q0 23 14.5 37.5t37.5 14.5q19 0 33.5 -14.5t17.5 -37.5zM233 311q-4 -20 -18.5 -34t-33.5 -17q-23 3 -37.5 17t-14.5 34q0 22 14.5 37t37.5 15q19 0 33.5 -15t18.5 -37zM233 440q-4 -19 -18.5 -33.5
t-33.5 -18.5q-23 4 -37.5 18.5t-14.5 33.5q0 23 14.5 37.5t37.5 14.5q19 0 33.5 -14.5t18.5 -37.5zM233 569q-4 -19 -18.5 -33.5t-33.5 -17.5q-23 3 -37.5 17.5t-14.5 33.5q0 23 14.5 37.5t37.5 14.5q19 0 33.5 -14.5t18.5 -37.5zM233 828q-4 -20 -18.5 -34.5t-33.5 -17.5
q-23 3 -37.5 17.5t-14.5 34.5q0 22 14.5 36.5t37.5 14.5q19 0 33.5 -14.5t18.5 -36.5zM233 183q-4 -20 -18.5 -34.5t-33.5 -17.5q-23 3 -37.5 17.5t-14.5 34.5q0 22 14.5 36.5t37.5 14.5q19 0 33.5 -14.5t18.5 -36.5zM233 53q-4 -19 -18.5 -33.5t-33.5 -17.5
q-23 3 -37.5 17.5t-14.5 33.5q0 23 14.5 37.5t37.5 14.5q19 0 33.5 -14.5t18.5 -37.5zM362 53q-3 -19 -17.5 -33.5t-34.5 -17.5q-22 3 -37 17.5t-15 33.5q0 23 15 37.5t37 14.5q20 0 34.5 -14.5t17.5 -37.5zM103 53q-3 -19 -17.5 -33.5t-33.5 -17.5q-23 3 -37.5 17.5
t-14.5 33.5q0 23 14.5 37.5t37.5 14.5q19 0 33.5 -14.5t17.5 -37.5z" />
    <glyph glyph-name="j" unicode="j" horiz-adv-x="361" 
d="M103 569q-3 -19 -17.5 -33.5t-33.5 -17.5q-23 3 -37.5 17.5t-14.5 33.5q0 23 14.5 37.5t37.5 14.5q19 0 33.5 -14.5t17.5 -37.5zM233 311q-4 -20 -18.5 -34t-33.5 -17q-23 3 -37.5 17t-14.5 34q0 22 14.5 37t37.5 15q19 0 33.5 -15t18.5 -37zM233 440q-4 -19 -18.5 -33.5
t-33.5 -18.5q-23 4 -37.5 18.5t-14.5 33.5q0 23 14.5 37.5t37.5 14.5q19 0 33.5 -14.5t18.5 -37.5zM233 569q-4 -19 -18.5 -33.5t-33.5 -17.5q-23 3 -37.5 17.5t-14.5 33.5q0 23 14.5 37.5t37.5 14.5q19 0 33.5 -14.5t18.5 -37.5zM233 828q-4 -20 -18.5 -34.5t-33.5 -17.5
q-23 3 -37.5 17.5t-14.5 34.5q0 22 14.5 36.5t37.5 14.5q19 0 33.5 -14.5t18.5 -36.5zM233 183q-4 -20 -18.5 -34.5t-33.5 -17.5q-23 3 -37.5 17.5t-14.5 34.5q0 22 14.5 36.5t37.5 14.5q19 0 33.5 -14.5t18.5 -36.5zM233 53q-4 -19 -18.5 -33.5t-33.5 -17.5
q-23 3 -37.5 17.5t-14.5 33.5q0 23 14.5 37.5t37.5 14.5q19 0 33.5 -14.5t18.5 -37.5zM103 -76q-3 -19 -17.5 -33.5t-33.5 -18.5q-23 4 -37.5 18.5t-14.5 33.5q0 23 14.5 37.5t37.5 14.5q19 0 33.5 -14.5t17.5 -37.5z" />
    <glyph glyph-name="k" unicode="k" horiz-adv-x="748" 
d="M103 699q-3 -20 -17.5 -34.5t-33.5 -17.5q-23 3 -37.5 17.5t-14.5 34.5q0 22 14.5 36.5t37.5 14.5q19 0 33.5 -14.5t17.5 -36.5zM103 569q-3 -19 -17.5 -33.5t-33.5 -17.5q-23 3 -37.5 17.5t-14.5 33.5q0 23 14.5 37.5t37.5 14.5q19 0 33.5 -14.5t17.5 -37.5zM103 440
q-3 -19 -17.5 -33.5t-33.5 -18.5q-23 4 -37.5 18.5t-14.5 33.5q0 23 14.5 37.5t37.5 14.5q19 0 33.5 -14.5t17.5 -37.5zM103 311q-3 -20 -17.5 -34t-33.5 -17q-23 3 -37.5 17t-14.5 34q0 22 14.5 37t37.5 15q19 0 33.5 -15t17.5 -37zM233 311q-4 -20 -18.5 -34t-33.5 -17
q-23 3 -37.5 17t-14.5 34q0 22 14.5 37t37.5 15q19 0 33.5 -15t18.5 -37zM362 311q-3 -20 -17.5 -34t-34.5 -17q-22 3 -37 17t-15 34q0 22 15 37t37 15q20 0 34.5 -15t17.5 -37zM491 311q-3 -20 -17.5 -34t-34.5 -17q-22 3 -36.5 17t-14.5 34q0 22 14.5 37t36.5 15
q20 0 34.5 -15t17.5 -37zM362 440q-3 -19 -17.5 -33.5t-34.5 -18.5q-22 4 -37 18.5t-15 33.5q0 23 15 37.5t37 14.5q20 0 34.5 -14.5t17.5 -37.5zM491 569q-3 -19 -17.5 -33.5t-34.5 -17.5q-22 3 -36.5 17.5t-14.5 33.5q0 23 14.5 37.5t36.5 14.5q20 0 34.5 -14.5
t17.5 -37.5zM620 699q-3 -20 -17.5 -34.5t-33.5 -17.5q-23 3 -37.5 17.5t-14.5 34.5q0 22 14.5 36.5t37.5 14.5q19 0 33.5 -14.5t17.5 -36.5zM103 828q-3 -20 -17.5 -34.5t-33.5 -17.5q-23 3 -37.5 17.5t-14.5 34.5q0 22 14.5 36.5t37.5 14.5q19 0 33.5 -14.5t17.5 -36.5z
M620 183q-3 -20 -17.5 -34.5t-33.5 -17.5q-23 3 -37.5 17.5t-14.5 34.5q0 22 14.5 36.5t37.5 14.5q19 0 33.5 -14.5t17.5 -36.5zM620 53q-3 -19 -17.5 -33.5t-33.5 -17.5q-23 3 -37.5 17.5t-14.5 33.5q0 23 14.5 37.5t37.5 14.5q19 0 33.5 -14.5t17.5 -37.5zM103 183
q-3 -20 -17.5 -34.5t-33.5 -17.5q-23 3 -37.5 17.5t-14.5 34.5q0 22 14.5 36.5t37.5 14.5q19 0 33.5 -14.5t17.5 -36.5zM103 53q-3 -19 -17.5 -33.5t-33.5 -17.5q-23 3 -37.5 17.5t-14.5 33.5q0 23 14.5 37.5t37.5 14.5q19 0 33.5 -14.5t17.5 -37.5z" />
    <glyph glyph-name="l" unicode="l" horiz-adv-x="231" 
d="M103 699q-3 -20 -17.5 -34.5t-33.5 -17.5q-23 3 -37.5 17.5t-14.5 34.5q0 22 14.5 36.5t37.5 14.5q19 0 33.5 -14.5t17.5 -36.5zM103 569q-3 -19 -17.5 -33.5t-33.5 -17.5q-23 3 -37.5 17.5t-14.5 33.5q0 23 14.5 37.5t37.5 14.5q19 0 33.5 -14.5t17.5 -37.5zM103 440
q-3 -19 -17.5 -33.5t-33.5 -18.5q-23 4 -37.5 18.5t-14.5 33.5q0 23 14.5 37.5t37.5 14.5q19 0 33.5 -14.5t17.5 -37.5zM103 311q-3 -20 -17.5 -34t-33.5 -17q-23 3 -37.5 17t-14.5 34q0 22 14.5 37t37.5 15q19 0 33.5 -15t17.5 -37zM103 828q-3 -20 -17.5 -34.5
t-33.5 -17.5q-23 3 -37.5 17.5t-14.5 34.5q0 22 14.5 36.5t37.5 14.5q19 0 33.5 -14.5t17.5 -36.5zM103 183q-3 -20 -17.5 -34.5t-33.5 -17.5q-23 3 -37.5 17.5t-14.5 34.5q0 22 14.5 36.5t37.5 14.5q19 0 33.5 -14.5t17.5 -36.5zM103 53q-3 -19 -17.5 -33.5t-33.5 -17.5
q-23 3 -37.5 17.5t-14.5 33.5q0 23 14.5 37.5t37.5 14.5q19 0 33.5 -14.5t17.5 -37.5z" />
    <glyph glyph-name="m" unicode="m" horiz-adv-x="748" 
d="M103 569q-3 -19 -17.5 -33.5t-33.5 -17.5q-23 3 -37.5 17.5t-14.5 33.5q0 23 14.5 37.5t37.5 14.5q19 0 33.5 -14.5t17.5 -37.5zM103 440q-3 -19 -17.5 -33.5t-33.5 -18.5q-23 4 -37.5 18.5t-14.5 33.5q0 23 14.5 37.5t37.5 14.5q19 0 33.5 -14.5t17.5 -37.5zM103 311
q-3 -20 -17.5 -34t-33.5 -17q-23 3 -37.5 17t-14.5 34q0 22 14.5 37t37.5 15q19 0 33.5 -15t17.5 -37zM362 311q-3 -20 -17.5 -34t-34.5 -17q-22 3 -37 17t-15 34q0 22 15 37t37 15q20 0 34.5 -15t17.5 -37zM620 311q-3 -20 -17.5 -34t-33.5 -17q-23 3 -37.5 17t-14.5 34
q0 22 14.5 37t37.5 15q19 0 33.5 -15t17.5 -37zM362 440q-3 -19 -17.5 -33.5t-34.5 -18.5q-22 4 -37 18.5t-15 33.5q0 23 15 37.5t37 14.5q20 0 34.5 -14.5t17.5 -37.5zM620 440q-3 -19 -17.5 -33.5t-33.5 -18.5q-23 4 -37.5 18.5t-14.5 33.5q0 23 14.5 37.5t37.5 14.5
q19 0 33.5 -14.5t17.5 -37.5zM233 569q-4 -19 -18.5 -33.5t-33.5 -17.5q-23 3 -37.5 17.5t-14.5 33.5q0 23 14.5 37.5t37.5 14.5q19 0 33.5 -14.5t18.5 -37.5zM362 569q-3 -19 -17.5 -33.5t-34.5 -17.5q-22 3 -37 17.5t-15 33.5q0 23 15 37.5t37 14.5q20 0 34.5 -14.5
t17.5 -37.5zM491 569q-3 -19 -17.5 -33.5t-34.5 -17.5q-22 3 -36.5 17.5t-14.5 33.5q0 23 14.5 37.5t36.5 14.5q20 0 34.5 -14.5t17.5 -37.5zM362 183q-3 -20 -17.5 -34.5t-34.5 -17.5q-22 3 -37 17.5t-15 34.5q0 22 15 36.5t37 14.5q20 0 34.5 -14.5t17.5 -36.5zM620 183
q-3 -20 -17.5 -34.5t-33.5 -17.5q-23 3 -37.5 17.5t-14.5 34.5q0 22 14.5 36.5t37.5 14.5q19 0 33.5 -14.5t17.5 -36.5zM362 53q-3 -19 -17.5 -33.5t-34.5 -17.5q-22 3 -37 17.5t-15 33.5q0 23 15 37.5t37 14.5q20 0 34.5 -14.5t17.5 -37.5zM620 53q-3 -19 -17.5 -33.5
t-33.5 -17.5q-23 3 -37.5 17.5t-14.5 33.5q0 23 14.5 37.5t37.5 14.5q19 0 33.5 -14.5t17.5 -37.5zM103 183q-3 -20 -17.5 -34.5t-33.5 -17.5q-23 3 -37.5 17.5t-14.5 34.5q0 22 14.5 36.5t37.5 14.5q19 0 33.5 -14.5t17.5 -36.5zM103 53q-3 -19 -17.5 -33.5t-33.5 -17.5
q-23 3 -37.5 17.5t-14.5 33.5q0 23 14.5 37.5t37.5 14.5q19 0 33.5 -14.5t17.5 -37.5z" />
    <glyph glyph-name="n" unicode="n" horiz-adv-x="748" 
d="M103 569q-3 -19 -17.5 -33.5t-33.5 -17.5q-23 3 -37.5 17.5t-14.5 33.5q0 23 14.5 37.5t37.5 14.5q19 0 33.5 -14.5t17.5 -37.5zM103 440q-3 -19 -17.5 -33.5t-33.5 -18.5q-23 4 -37.5 18.5t-14.5 33.5q0 23 14.5 37.5t37.5 14.5q19 0 33.5 -14.5t17.5 -37.5zM103 311
q-3 -20 -17.5 -34t-33.5 -17q-23 3 -37.5 17t-14.5 34q0 22 14.5 37t37.5 15q19 0 33.5 -15t17.5 -37zM620 311q-3 -20 -17.5 -34t-33.5 -17q-23 3 -37.5 17t-14.5 34q0 22 14.5 37t37.5 15q19 0 33.5 -15t17.5 -37zM620 440q-3 -19 -17.5 -33.5t-33.5 -18.5
q-23 4 -37.5 18.5t-14.5 33.5q0 23 14.5 37.5t37.5 14.5q19 0 33.5 -14.5t17.5 -37.5zM233 569q-4 -19 -18.5 -33.5t-33.5 -17.5q-23 3 -37.5 17.5t-14.5 33.5q0 23 14.5 37.5t37.5 14.5q19 0 33.5 -14.5t18.5 -37.5zM362 569q-3 -19 -17.5 -33.5t-34.5 -17.5
q-22 3 -37 17.5t-15 33.5q0 23 15 37.5t37 14.5q20 0 34.5 -14.5t17.5 -37.5zM491 569q-3 -19 -17.5 -33.5t-34.5 -17.5q-22 3 -36.5 17.5t-14.5 33.5q0 23 14.5 37.5t36.5 14.5q20 0 34.5 -14.5t17.5 -37.5zM620 183q-3 -20 -17.5 -34.5t-33.5 -17.5q-23 3 -37.5 17.5
t-14.5 34.5q0 22 14.5 36.5t37.5 14.5q19 0 33.5 -14.5t17.5 -36.5zM620 53q-3 -19 -17.5 -33.5t-33.5 -17.5q-23 3 -37.5 17.5t-14.5 33.5q0 23 14.5 37.5t37.5 14.5q19 0 33.5 -14.5t17.5 -37.5zM103 183q-3 -20 -17.5 -34.5t-33.5 -17.5q-23 3 -37.5 17.5t-14.5 34.5
q0 22 14.5 36.5t37.5 14.5q19 0 33.5 -14.5t17.5 -36.5zM103 53q-3 -19 -17.5 -33.5t-33.5 -17.5q-23 3 -37.5 17.5t-14.5 33.5q0 23 14.5 37.5t37.5 14.5q19 0 33.5 -14.5t17.5 -37.5z" />
    <glyph glyph-name="o" unicode="o" horiz-adv-x="748" 
d="M103 440q-3 -19 -17.5 -33.5t-33.5 -18.5q-23 4 -37.5 18.5t-14.5 33.5q0 23 14.5 37.5t37.5 14.5q19 0 33.5 -14.5t17.5 -37.5zM103 311q-3 -20 -17.5 -34t-33.5 -17q-23 3 -37.5 17t-14.5 34q0 22 14.5 37t37.5 15q19 0 33.5 -15t17.5 -37zM362 311q-3 -20 -17.5 -34
t-34.5 -17q-22 3 -37 17t-15 34q0 22 15 37t37 15q20 0 34.5 -15t17.5 -37zM620 311q-3 -20 -17.5 -34t-33.5 -17q-23 3 -37.5 17t-14.5 34q0 22 14.5 37t37.5 15q19 0 33.5 -15t17.5 -37zM620 440q-3 -19 -17.5 -33.5t-33.5 -18.5q-23 4 -37.5 18.5t-14.5 33.5
q0 23 14.5 37.5t37.5 14.5q19 0 33.5 -14.5t17.5 -37.5zM233 569q-4 -19 -18.5 -33.5t-33.5 -17.5q-23 3 -37.5 17.5t-14.5 33.5q0 23 14.5 37.5t37.5 14.5q19 0 33.5 -14.5t18.5 -37.5zM362 569q-3 -19 -17.5 -33.5t-34.5 -17.5q-22 3 -37 17.5t-15 33.5q0 23 15 37.5
t37 14.5q20 0 34.5 -14.5t17.5 -37.5zM491 569q-3 -19 -17.5 -33.5t-34.5 -17.5q-22 3 -36.5 17.5t-14.5 33.5q0 23 14.5 37.5t36.5 14.5q20 0 34.5 -14.5t17.5 -37.5zM620 183q-3 -20 -17.5 -34.5t-33.5 -17.5q-23 3 -37.5 17.5t-14.5 34.5q0 22 14.5 36.5t37.5 14.5
q19 0 33.5 -14.5t17.5 -36.5zM233 53q-4 -19 -18.5 -33.5t-33.5 -17.5q-23 3 -37.5 17.5t-14.5 33.5q0 23 14.5 37.5t37.5 14.5q19 0 33.5 -14.5t18.5 -37.5zM362 53q-3 -19 -17.5 -33.5t-34.5 -17.5q-22 3 -37 17.5t-15 33.5q0 23 15 37.5t37 14.5q20 0 34.5 -14.5
t17.5 -37.5zM491 53q-3 -19 -17.5 -33.5t-34.5 -17.5q-22 3 -36.5 17.5t-14.5 33.5q0 23 14.5 37.5t36.5 14.5q20 0 34.5 -14.5t17.5 -37.5zM103 183q-3 -20 -17.5 -34.5t-33.5 -17.5q-23 3 -37.5 17.5t-14.5 34.5q0 22 14.5 36.5t37.5 14.5q19 0 33.5 -14.5t17.5 -36.5z
" />
    <glyph glyph-name="p" unicode="p" horiz-adv-x="748" 
d="M103 569q-3 -19 -17.5 -33.5t-33.5 -17.5q-23 3 -37.5 17.5t-14.5 33.5q0 23 14.5 37.5t37.5 14.5q19 0 33.5 -14.5t17.5 -37.5zM103 440q-3 -19 -17.5 -33.5t-33.5 -18.5q-23 4 -37.5 18.5t-14.5 33.5q0 23 14.5 37.5t37.5 14.5q19 0 33.5 -14.5t17.5 -37.5zM103 311
q-3 -20 -17.5 -34t-33.5 -17q-23 3 -37.5 17t-14.5 34q0 22 14.5 37t37.5 15q19 0 33.5 -15t17.5 -37zM620 311q-3 -20 -17.5 -34t-33.5 -17q-23 3 -37.5 17t-14.5 34q0 22 14.5 37t37.5 15q19 0 33.5 -15t17.5 -37zM620 440q-3 -19 -17.5 -33.5t-33.5 -18.5
q-23 4 -37.5 18.5t-14.5 33.5q0 23 14.5 37.5t37.5 14.5q19 0 33.5 -14.5t17.5 -37.5zM233 569q-4 -19 -18.5 -33.5t-33.5 -17.5q-23 3 -37.5 17.5t-14.5 33.5q0 23 14.5 37.5t37.5 14.5q19 0 33.5 -14.5t18.5 -37.5zM362 569q-3 -19 -17.5 -33.5t-34.5 -17.5
q-22 3 -37 17.5t-15 33.5q0 23 15 37.5t37 14.5q20 0 34.5 -14.5t17.5 -37.5zM491 569q-3 -19 -17.5 -33.5t-34.5 -17.5q-22 3 -36.5 17.5t-14.5 33.5q0 23 14.5 37.5t36.5 14.5q20 0 34.5 -14.5t17.5 -37.5zM233 183q-4 -20 -18.5 -34.5t-33.5 -17.5q-23 3 -37.5 17.5
t-14.5 34.5q0 22 14.5 36.5t37.5 14.5q19 0 33.5 -14.5t18.5 -36.5zM362 183q-3 -20 -17.5 -34.5t-34.5 -17.5q-22 3 -37 17.5t-15 34.5q0 22 15 36.5t37 14.5q20 0 34.5 -14.5t17.5 -36.5zM491 183q-3 -20 -17.5 -34.5t-34.5 -17.5q-22 3 -36.5 17.5t-14.5 34.5
q0 22 14.5 36.5t36.5 14.5q20 0 34.5 -14.5t17.5 -36.5zM103 183q-3 -20 -17.5 -34.5t-33.5 -17.5q-23 3 -37.5 17.5t-14.5 34.5q0 22 14.5 36.5t37.5 14.5q19 0 33.5 -14.5t17.5 -36.5zM103 53q-3 -19 -17.5 -33.5t-33.5 -17.5q-23 3 -37.5 17.5t-14.5 33.5q0 23 14.5 37.5
t37.5 14.5q19 0 33.5 -14.5t17.5 -37.5zM103 -76q-3 -19 -17.5 -33.5t-33.5 -18.5q-23 4 -37.5 18.5t-14.5 33.5q0 23 14.5 37.5t37.5 14.5q19 0 33.5 -14.5t17.5 -37.5z" />
    <glyph glyph-name="q" unicode="q" horiz-adv-x="748" 
d="M103 440q-3 -19 -17.5 -33.5t-33.5 -18.5q-23 4 -37.5 18.5t-14.5 33.5q0 23 14.5 37.5t37.5 14.5q19 0 33.5 -14.5t17.5 -37.5zM103 311q-3 -20 -17.5 -34t-33.5 -17q-23 3 -37.5 17t-14.5 34q0 22 14.5 37t37.5 15q19 0 33.5 -15t17.5 -37zM620 311q-3 -20 -17.5 -34
t-33.5 -17q-23 3 -37.5 17t-14.5 34q0 22 14.5 37t37.5 15q19 0 33.5 -15t17.5 -37zM620 440q-3 -19 -17.5 -33.5t-33.5 -18.5q-23 4 -37.5 18.5t-14.5 33.5q0 23 14.5 37.5t37.5 14.5q19 0 33.5 -14.5t17.5 -37.5zM233 569q-4 -19 -18.5 -33.5t-33.5 -17.5
q-23 3 -37.5 17.5t-14.5 33.5q0 23 14.5 37.5t37.5 14.5q19 0 33.5 -14.5t18.5 -37.5zM362 569q-3 -19 -17.5 -33.5t-34.5 -17.5q-22 3 -37 17.5t-15 33.5q0 23 15 37.5t37 14.5q20 0 34.5 -14.5t17.5 -37.5zM491 569q-3 -19 -17.5 -33.5t-34.5 -17.5q-22 3 -36.5 17.5
t-14.5 33.5q0 23 14.5 37.5t36.5 14.5q20 0 34.5 -14.5t17.5 -37.5zM620 569q-3 -19 -17.5 -33.5t-33.5 -17.5q-23 3 -37.5 17.5t-14.5 33.5q0 23 14.5 37.5t37.5 14.5q19 0 33.5 -14.5t17.5 -37.5zM233 183q-4 -20 -18.5 -34.5t-33.5 -17.5q-23 3 -37.5 17.5t-14.5 34.5
q0 22 14.5 36.5t37.5 14.5q19 0 33.5 -14.5t18.5 -36.5zM362 183q-3 -20 -17.5 -34.5t-34.5 -17.5q-22 3 -37 17.5t-15 34.5q0 22 15 36.5t37 14.5q20 0 34.5 -14.5t17.5 -36.5zM491 183q-3 -20 -17.5 -34.5t-34.5 -17.5q-22 3 -36.5 17.5t-14.5 34.5q0 22 14.5 36.5
t36.5 14.5q20 0 34.5 -14.5t17.5 -36.5zM620 183q-3 -20 -17.5 -34.5t-33.5 -17.5q-23 3 -37.5 17.5t-14.5 34.5q0 22 14.5 36.5t37.5 14.5q19 0 33.5 -14.5t17.5 -36.5zM620 53q-3 -19 -17.5 -33.5t-33.5 -17.5q-23 3 -37.5 17.5t-14.5 33.5q0 23 14.5 37.5t37.5 14.5
q19 0 33.5 -14.5t17.5 -37.5zM620 -76q-3 -19 -17.5 -33.5t-33.5 -18.5q-23 4 -37.5 18.5t-14.5 33.5q0 23 14.5 37.5t37.5 14.5q19 0 33.5 -14.5t17.5 -37.5z" />
    <glyph glyph-name="r" unicode="r" horiz-adv-x="748" 
d="M103 569q-3 -19 -17.5 -33.5t-33.5 -17.5q-23 3 -37.5 17.5t-14.5 33.5q0 23 14.5 37.5t37.5 14.5q19 0 33.5 -14.5t17.5 -37.5zM103 440q-3 -19 -17.5 -33.5t-33.5 -18.5q-23 4 -37.5 18.5t-14.5 33.5q0 23 14.5 37.5t37.5 14.5q19 0 33.5 -14.5t17.5 -37.5zM103 311
q-3 -20 -17.5 -34t-33.5 -17q-23 3 -37.5 17t-14.5 34q0 22 14.5 37t37.5 15q19 0 33.5 -15t17.5 -37zM233 440q-4 -19 -18.5 -33.5t-33.5 -18.5q-23 4 -37.5 18.5t-14.5 33.5q0 23 14.5 37.5t37.5 14.5q19 0 33.5 -14.5t18.5 -37.5zM362 569q-3 -19 -17.5 -33.5
t-34.5 -17.5q-22 3 -37 17.5t-15 33.5q0 23 15 37.5t37 14.5q20 0 34.5 -14.5t17.5 -37.5zM491 569q-3 -19 -17.5 -33.5t-34.5 -17.5q-22 3 -36.5 17.5t-14.5 33.5q0 23 14.5 37.5t36.5 14.5q20 0 34.5 -14.5t17.5 -37.5zM620 569q-3 -19 -17.5 -33.5t-33.5 -17.5
q-23 3 -37.5 17.5t-14.5 33.5q0 23 14.5 37.5t37.5 14.5q19 0 33.5 -14.5t17.5 -37.5zM103 183q-3 -20 -17.5 -34.5t-33.5 -17.5q-23 3 -37.5 17.5t-14.5 34.5q0 22 14.5 36.5t37.5 14.5q19 0 33.5 -14.5t17.5 -36.5zM103 53q-3 -19 -17.5 -33.5t-33.5 -17.5
q-23 3 -37.5 17.5t-14.5 33.5q0 23 14.5 37.5t37.5 14.5q19 0 33.5 -14.5t17.5 -37.5z" />
    <glyph glyph-name="s" unicode="s" horiz-adv-x="748" 
d="M103 440q-3 -19 -17.5 -33.5t-33.5 -18.5q-23 4 -37.5 18.5t-14.5 33.5q0 23 14.5 37.5t37.5 14.5q19 0 33.5 -14.5t17.5 -37.5zM233 311q-4 -20 -18.5 -34t-33.5 -17q-23 3 -37.5 17t-14.5 34q0 22 14.5 37t37.5 15q19 0 33.5 -15t18.5 -37zM362 311q-3 -20 -17.5 -34
t-34.5 -17q-22 3 -37 17t-15 34q0 22 15 37t37 15q20 0 34.5 -15t17.5 -37zM491 311q-3 -20 -17.5 -34t-34.5 -17q-22 3 -36.5 17t-14.5 34q0 22 14.5 37t36.5 15q20 0 34.5 -15t17.5 -37zM233 569q-4 -19 -18.5 -33.5t-33.5 -17.5q-23 3 -37.5 17.5t-14.5 33.5
q0 23 14.5 37.5t37.5 14.5q19 0 33.5 -14.5t18.5 -37.5zM362 569q-3 -19 -17.5 -33.5t-34.5 -17.5q-22 3 -37 17.5t-15 33.5q0 23 15 37.5t37 14.5q20 0 34.5 -14.5t17.5 -37.5zM491 569q-3 -19 -17.5 -33.5t-34.5 -17.5q-22 3 -36.5 17.5t-14.5 33.5q0 23 14.5 37.5
t36.5 14.5q20 0 34.5 -14.5t17.5 -37.5zM620 569q-3 -19 -17.5 -33.5t-33.5 -17.5q-23 3 -37.5 17.5t-14.5 33.5q0 23 14.5 37.5t37.5 14.5q19 0 33.5 -14.5t17.5 -37.5zM620 183q-3 -20 -17.5 -34.5t-33.5 -17.5q-23 3 -37.5 17.5t-14.5 34.5q0 22 14.5 36.5t37.5 14.5
q19 0 33.5 -14.5t17.5 -36.5zM233 53q-4 -19 -18.5 -33.5t-33.5 -17.5q-23 3 -37.5 17.5t-14.5 33.5q0 23 14.5 37.5t37.5 14.5q19 0 33.5 -14.5t18.5 -37.5zM362 53q-3 -19 -17.5 -33.5t-34.5 -17.5q-22 3 -37 17.5t-15 33.5q0 23 15 37.5t37 14.5q20 0 34.5 -14.5
t17.5 -37.5zM491 53q-3 -19 -17.5 -33.5t-34.5 -17.5q-22 3 -36.5 17.5t-14.5 33.5q0 23 14.5 37.5t36.5 14.5q20 0 34.5 -14.5t17.5 -37.5zM103 53q-3 -19 -17.5 -33.5t-33.5 -17.5q-23 3 -37.5 17.5t-14.5 33.5q0 23 14.5 37.5t37.5 14.5q19 0 33.5 -14.5t17.5 -37.5z" />
    <glyph glyph-name="t" unicode="t" horiz-adv-x="490" 
d="M104 311q-3 -20 -17.5 -34t-34.5 -17q-22 3 -37 17t-15 34q0 22 15 37t37 15q20 0 34.5 -15t17.5 -37zM104 440q-3 -19 -17.5 -33.5t-34.5 -18.5q-22 4 -37 18.5t-15 33.5q0 23 15 37.5t37 14.5q20 0 34.5 -14.5t17.5 -37.5zM104 569q-3 -19 -17.5 -33.5t-34.5 -17.5
q-22 3 -37 17.5t-15 33.5q0 23 15 37.5t37 14.5q20 0 34.5 -14.5t17.5 -37.5zM233 569q-3 -19 -17.5 -33.5t-34.5 -17.5q-22 3 -36.5 17.5t-14.5 33.5q0 23 14.5 37.5t36.5 14.5q20 0 34.5 -14.5t17.5 -37.5zM362 569q-3 -19 -17.5 -33.5t-33.5 -17.5q-23 3 -37.5 17.5
t-14.5 33.5q0 23 14.5 37.5t37.5 14.5q19 0 33.5 -14.5t17.5 -37.5zM104 699q-3 -20 -17.5 -34.5t-34.5 -17.5q-22 3 -37 17.5t-15 34.5q0 22 15 36.5t37 14.5q20 0 34.5 -14.5t17.5 -36.5zM104 828q-3 -20 -17.5 -34.5t-34.5 -17.5q-22 3 -37 17.5t-15 34.5q0 22 15 36.5
t37 14.5q20 0 34.5 -14.5t17.5 -36.5zM104 183q-3 -20 -17.5 -34.5t-34.5 -17.5q-22 3 -37 17.5t-15 34.5q0 22 15 36.5t37 14.5q20 0 34.5 -14.5t17.5 -36.5zM233 53q-3 -19 -17.5 -33.5t-34.5 -17.5q-22 3 -36.5 17.5t-14.5 33.5q0 23 14.5 37.5t36.5 14.5
q20 0 34.5 -14.5t17.5 -37.5zM362 53q-3 -19 -17.5 -33.5t-33.5 -17.5q-23 3 -37.5 17.5t-14.5 33.5q0 23 14.5 37.5t37.5 14.5q19 0 33.5 -14.5t17.5 -37.5z" />
    <glyph glyph-name="u" unicode="u" horiz-adv-x="748" 
d="M103 569q-3 -19 -17.5 -33.5t-33.5 -17.5q-23 3 -37.5 17.5t-14.5 33.5q0 23 14.5 37.5t37.5 14.5q19 0 33.5 -14.5t17.5 -37.5zM103 440q-3 -19 -17.5 -33.5t-33.5 -18.5q-23 4 -37.5 18.5t-14.5 33.5q0 23 14.5 37.5t37.5 14.5q19 0 33.5 -14.5t17.5 -37.5zM103 311
q-3 -20 -17.5 -34t-33.5 -17q-23 3 -37.5 17t-14.5 34q0 22 14.5 37t37.5 15q19 0 33.5 -15t17.5 -37zM620 311q-3 -20 -17.5 -34t-33.5 -17q-23 3 -37.5 17t-14.5 34q0 22 14.5 37t37.5 15q19 0 33.5 -15t17.5 -37zM620 440q-3 -19 -17.5 -33.5t-33.5 -18.5
q-23 4 -37.5 18.5t-14.5 33.5q0 23 14.5 37.5t37.5 14.5q19 0 33.5 -14.5t17.5 -37.5zM620 569q-3 -19 -17.5 -33.5t-33.5 -17.5q-23 3 -37.5 17.5t-14.5 33.5q0 23 14.5 37.5t37.5 14.5q19 0 33.5 -14.5t17.5 -37.5zM620 183q-3 -20 -17.5 -34.5t-33.5 -17.5
q-23 3 -37.5 17.5t-14.5 34.5q0 22 14.5 36.5t37.5 14.5q19 0 33.5 -14.5t17.5 -36.5zM233 53q-4 -19 -18.5 -33.5t-33.5 -17.5q-23 3 -37.5 17.5t-14.5 33.5q0 23 14.5 37.5t37.5 14.5q19 0 33.5 -14.5t18.5 -37.5zM362 53q-3 -19 -17.5 -33.5t-34.5 -17.5q-22 3 -37 17.5
t-15 33.5q0 23 15 37.5t37 14.5q20 0 34.5 -14.5t17.5 -37.5zM491 53q-3 -19 -17.5 -33.5t-34.5 -17.5q-22 3 -36.5 17.5t-14.5 33.5q0 23 14.5 37.5t36.5 14.5q20 0 34.5 -14.5t17.5 -37.5zM620 53q-3 -19 -17.5 -33.5t-33.5 -17.5q-23 3 -37.5 17.5t-14.5 33.5
q0 23 14.5 37.5t37.5 14.5q19 0 33.5 -14.5t17.5 -37.5zM103 183q-3 -20 -17.5 -34.5t-33.5 -17.5q-23 3 -37.5 17.5t-14.5 34.5q0 22 14.5 36.5t37.5 14.5q19 0 33.5 -14.5t17.5 -36.5z" />
    <glyph glyph-name="v" unicode="v" horiz-adv-x="748" 
d="M103 569q-3 -19 -17.5 -33.5t-33.5 -17.5q-23 3 -37.5 17.5t-14.5 33.5q0 23 14.5 37.5t37.5 14.5q19 0 33.5 -14.5t17.5 -37.5zM103 440q-3 -19 -17.5 -33.5t-33.5 -18.5q-23 4 -37.5 18.5t-14.5 33.5q0 23 14.5 37.5t37.5 14.5q19 0 33.5 -14.5t17.5 -37.5zM103 311
q-3 -20 -17.5 -34t-33.5 -17q-23 3 -37.5 17t-14.5 34q0 22 14.5 37t37.5 15q19 0 33.5 -15t17.5 -37zM620 311q-3 -20 -17.5 -34t-33.5 -17q-23 3 -37.5 17t-14.5 34q0 22 14.5 37t37.5 15q19 0 33.5 -15t17.5 -37zM620 440q-3 -19 -17.5 -33.5t-33.5 -18.5
q-23 4 -37.5 18.5t-14.5 33.5q0 23 14.5 37.5t37.5 14.5q19 0 33.5 -14.5t17.5 -37.5zM620 569q-3 -19 -17.5 -33.5t-33.5 -17.5q-23 3 -37.5 17.5t-14.5 33.5q0 23 14.5 37.5t37.5 14.5q19 0 33.5 -14.5t17.5 -37.5zM233 183q-4 -20 -18.5 -34.5t-33.5 -17.5
q-23 3 -37.5 17.5t-14.5 34.5q0 22 14.5 36.5t37.5 14.5q19 0 33.5 -14.5t18.5 -36.5zM491 183q-3 -20 -17.5 -34.5t-34.5 -17.5q-22 3 -36.5 17.5t-14.5 34.5q0 22 14.5 36.5t36.5 14.5q20 0 34.5 -14.5t17.5 -36.5zM362 53q-3 -19 -17.5 -33.5t-34.5 -17.5q-22 3 -37 17.5
t-15 33.5q0 23 15 37.5t37 14.5q20 0 34.5 -14.5t17.5 -37.5z" />
    <glyph glyph-name="w" unicode="w" horiz-adv-x="748" 
d="M103 569q-3 -19 -17.5 -33.5t-33.5 -17.5q-23 3 -37.5 17.5t-14.5 33.5q0 23 14.5 37.5t37.5 14.5q19 0 33.5 -14.5t17.5 -37.5zM103 440q-3 -19 -17.5 -33.5t-33.5 -18.5q-23 4 -37.5 18.5t-14.5 33.5q0 23 14.5 37.5t37.5 14.5q19 0 33.5 -14.5t17.5 -37.5zM103 311
q-3 -20 -17.5 -34t-33.5 -17q-23 3 -37.5 17t-14.5 34q0 22 14.5 37t37.5 15q19 0 33.5 -15t17.5 -37zM362 311q-3 -20 -17.5 -34t-34.5 -17q-22 3 -37 17t-15 34q0 22 15 37t37 15q20 0 34.5 -15t17.5 -37zM620 311q-3 -20 -17.5 -34t-33.5 -17q-23 3 -37.5 17t-14.5 34
q0 22 14.5 37t37.5 15q19 0 33.5 -15t17.5 -37zM362 440q-3 -19 -17.5 -33.5t-34.5 -18.5q-22 4 -37 18.5t-15 33.5q0 23 15 37.5t37 14.5q20 0 34.5 -14.5t17.5 -37.5zM620 440q-3 -19 -17.5 -33.5t-33.5 -18.5q-23 4 -37.5 18.5t-14.5 33.5q0 23 14.5 37.5t37.5 14.5
q19 0 33.5 -14.5t17.5 -37.5zM362 569q-3 -19 -17.5 -33.5t-34.5 -17.5q-22 3 -37 17.5t-15 33.5q0 23 15 37.5t37 14.5q20 0 34.5 -14.5t17.5 -37.5zM620 569q-3 -19 -17.5 -33.5t-33.5 -17.5q-23 3 -37.5 17.5t-14.5 33.5q0 23 14.5 37.5t37.5 14.5q19 0 33.5 -14.5
t17.5 -37.5zM362 183q-3 -20 -17.5 -34.5t-34.5 -17.5q-22 3 -37 17.5t-15 34.5q0 22 15 36.5t37 14.5q20 0 34.5 -14.5t17.5 -36.5zM620 183q-3 -20 -17.5 -34.5t-33.5 -17.5q-23 3 -37.5 17.5t-14.5 34.5q0 22 14.5 36.5t37.5 14.5q19 0 33.5 -14.5t17.5 -36.5zM233 53
q-4 -19 -18.5 -33.5t-33.5 -17.5q-23 3 -37.5 17.5t-14.5 33.5q0 23 14.5 37.5t37.5 14.5q19 0 33.5 -14.5t18.5 -37.5zM362 53q-3 -19 -17.5 -33.5t-34.5 -17.5q-22 3 -37 17.5t-15 33.5q0 23 15 37.5t37 14.5q20 0 34.5 -14.5t17.5 -37.5zM491 53q-3 -19 -17.5 -33.5
t-34.5 -17.5q-22 3 -36.5 17.5t-14.5 33.5q0 23 14.5 37.5t36.5 14.5q20 0 34.5 -14.5t17.5 -37.5zM103 183q-3 -20 -17.5 -34.5t-33.5 -17.5q-23 3 -37.5 17.5t-14.5 34.5q0 22 14.5 36.5t37.5 14.5q19 0 33.5 -14.5t17.5 -36.5z" />
    <glyph glyph-name="x" unicode="x" horiz-adv-x="748" 
d="M103 569q-3 -19 -17.5 -33.5t-33.5 -17.5q-23 3 -37.5 17.5t-14.5 33.5q0 23 14.5 37.5t37.5 14.5q19 0 33.5 -14.5t17.5 -37.5zM362 311q-3 -20 -17.5 -34t-34.5 -17q-22 3 -37 17t-15 34q0 22 15 37t37 15q20 0 34.5 -15t17.5 -37zM362 440q-3 -19 -17.5 -33.5
t-34.5 -18.5q-22 4 -37 18.5t-15 33.5q0 23 15 37.5t37 14.5q20 0 34.5 -14.5t17.5 -37.5zM233 569q-4 -19 -18.5 -33.5t-33.5 -17.5q-23 3 -37.5 17.5t-14.5 33.5q0 23 14.5 37.5t37.5 14.5q19 0 33.5 -14.5t18.5 -37.5zM491 569q-3 -19 -17.5 -33.5t-34.5 -17.5
q-22 3 -36.5 17.5t-14.5 33.5q0 23 14.5 37.5t36.5 14.5q20 0 34.5 -14.5t17.5 -37.5zM620 569q-3 -19 -17.5 -33.5t-33.5 -17.5q-23 3 -37.5 17.5t-14.5 33.5q0 23 14.5 37.5t37.5 14.5q19 0 33.5 -14.5t17.5 -37.5zM362 183q-3 -20 -17.5 -34.5t-34.5 -17.5
q-22 3 -37 17.5t-15 34.5q0 22 15 36.5t37 14.5q20 0 34.5 -14.5t17.5 -36.5zM233 53q-4 -19 -18.5 -33.5t-33.5 -17.5q-23 3 -37.5 17.5t-14.5 33.5q0 23 14.5 37.5t37.5 14.5q19 0 33.5 -14.5t18.5 -37.5zM491 53q-3 -19 -17.5 -33.5t-34.5 -17.5q-22 3 -36.5 17.5
t-14.5 33.5q0 23 14.5 37.5t36.5 14.5q20 0 34.5 -14.5t17.5 -37.5zM620 53q-3 -19 -17.5 -33.5t-33.5 -17.5q-23 3 -37.5 17.5t-14.5 33.5q0 23 14.5 37.5t37.5 14.5q19 0 33.5 -14.5t17.5 -37.5zM103 53q-3 -19 -17.5 -33.5t-33.5 -17.5q-23 3 -37.5 17.5t-14.5 33.5
q0 23 14.5 37.5t37.5 14.5q19 0 33.5 -14.5t17.5 -37.5z" />
    <glyph glyph-name="y" unicode="y" horiz-adv-x="748" 
d="M103 569q-3 -19 -17.5 -33.5t-33.5 -17.5q-23 3 -37.5 17.5t-14.5 33.5q0 23 14.5 37.5t37.5 14.5q19 0 33.5 -14.5t17.5 -37.5zM103 440q-3 -19 -17.5 -33.5t-33.5 -18.5q-23 4 -37.5 18.5t-14.5 33.5q0 23 14.5 37.5t37.5 14.5q19 0 33.5 -14.5t17.5 -37.5zM103 311
q-3 -20 -17.5 -34t-33.5 -17q-23 3 -37.5 17t-14.5 34q0 22 14.5 37t37.5 15q19 0 33.5 -15t17.5 -37zM620 311q-3 -20 -17.5 -34t-33.5 -17q-23 3 -37.5 17t-14.5 34q0 22 14.5 37t37.5 15q19 0 33.5 -15t17.5 -37zM620 440q-3 -19 -17.5 -33.5t-33.5 -18.5
q-23 4 -37.5 18.5t-14.5 33.5q0 23 14.5 37.5t37.5 14.5q19 0 33.5 -14.5t17.5 -37.5zM620 569q-3 -19 -17.5 -33.5t-33.5 -17.5q-23 3 -37.5 17.5t-14.5 33.5q0 23 14.5 37.5t37.5 14.5q19 0 33.5 -14.5t17.5 -37.5zM233 183q-4 -20 -18.5 -34.5t-33.5 -17.5
q-23 3 -37.5 17.5t-14.5 34.5q0 22 14.5 36.5t37.5 14.5q19 0 33.5 -14.5t18.5 -36.5zM362 183q-3 -20 -17.5 -34.5t-34.5 -17.5q-22 3 -37 17.5t-15 34.5q0 22 15 36.5t37 14.5q20 0 34.5 -14.5t17.5 -36.5zM491 183q-3 -20 -17.5 -34.5t-34.5 -17.5q-22 3 -36.5 17.5
t-14.5 34.5q0 22 14.5 36.5t36.5 14.5q20 0 34.5 -14.5t17.5 -36.5zM620 183q-3 -20 -17.5 -34.5t-33.5 -17.5q-23 3 -37.5 17.5t-14.5 34.5q0 22 14.5 36.5t37.5 14.5q19 0 33.5 -14.5t17.5 -36.5zM620 53q-3 -19 -17.5 -33.5t-33.5 -17.5q-23 3 -37.5 17.5t-14.5 33.5
q0 23 14.5 37.5t37.5 14.5q19 0 33.5 -14.5t17.5 -37.5zM233 -76q-4 -19 -18.5 -33.5t-33.5 -18.5q-23 4 -37.5 18.5t-14.5 33.5q0 23 14.5 37.5t37.5 14.5q19 0 33.5 -14.5t18.5 -37.5zM362 -76q-3 -19 -17.5 -33.5t-34.5 -18.5q-22 4 -37 18.5t-15 33.5q0 23 15 37.5
t37 14.5q20 0 34.5 -14.5t17.5 -37.5zM491 -76q-3 -19 -17.5 -33.5t-34.5 -18.5q-22 4 -36.5 18.5t-14.5 33.5q0 23 14.5 37.5t36.5 14.5q20 0 34.5 -14.5t17.5 -37.5zM103 -76q-3 -19 -17.5 -33.5t-33.5 -18.5q-23 4 -37.5 18.5t-14.5 33.5q0 23 14.5 37.5t37.5 14.5
q19 0 33.5 -14.5t17.5 -37.5z" />
    <glyph glyph-name="z" unicode="z" horiz-adv-x="748" 
d="M103 569q-3 -19 -17.5 -33.5t-33.5 -17.5q-23 3 -37.5 17.5t-14.5 33.5q0 23 14.5 37.5t37.5 14.5q19 0 33.5 -14.5t17.5 -37.5zM233 311q-4 -20 -18.5 -34t-33.5 -17q-23 3 -37.5 17t-14.5 34q0 22 14.5 37t37.5 15q19 0 33.5 -15t18.5 -37zM362 311q-3 -20 -17.5 -34
t-34.5 -17q-22 3 -37 17t-15 34q0 22 15 37t37 15q20 0 34.5 -15t17.5 -37zM491 311q-3 -20 -17.5 -34t-34.5 -17q-22 3 -36.5 17t-14.5 34q0 22 14.5 37t36.5 15q20 0 34.5 -15t17.5 -37zM620 440q-3 -19 -17.5 -33.5t-33.5 -18.5q-23 4 -37.5 18.5t-14.5 33.5
q0 23 14.5 37.5t37.5 14.5q19 0 33.5 -14.5t17.5 -37.5zM233 569q-4 -19 -18.5 -33.5t-33.5 -17.5q-23 3 -37.5 17.5t-14.5 33.5q0 23 14.5 37.5t37.5 14.5q19 0 33.5 -14.5t18.5 -37.5zM362 569q-3 -19 -17.5 -33.5t-34.5 -17.5q-22 3 -37 17.5t-15 33.5q0 23 15 37.5
t37 14.5q20 0 34.5 -14.5t17.5 -37.5zM491 569q-3 -19 -17.5 -33.5t-34.5 -17.5q-22 3 -36.5 17.5t-14.5 33.5q0 23 14.5 37.5t36.5 14.5q20 0 34.5 -14.5t17.5 -37.5zM620 569q-3 -19 -17.5 -33.5t-33.5 -17.5q-23 3 -37.5 17.5t-14.5 33.5q0 23 14.5 37.5t37.5 14.5
q19 0 33.5 -14.5t17.5 -37.5zM233 53q-4 -19 -18.5 -33.5t-33.5 -17.5q-23 3 -37.5 17.5t-14.5 33.5q0 23 14.5 37.5t37.5 14.5q19 0 33.5 -14.5t18.5 -37.5zM362 53q-3 -19 -17.5 -33.5t-34.5 -17.5q-22 3 -37 17.5t-15 33.5q0 23 15 37.5t37 14.5q20 0 34.5 -14.5
t17.5 -37.5zM491 53q-3 -19 -17.5 -33.5t-34.5 -17.5q-22 3 -36.5 17.5t-14.5 33.5q0 23 14.5 37.5t36.5 14.5q20 0 34.5 -14.5t17.5 -37.5zM620 53q-3 -19 -17.5 -33.5t-33.5 -17.5q-23 3 -37.5 17.5t-14.5 33.5q0 23 14.5 37.5t37.5 14.5q19 0 33.5 -14.5t17.5 -37.5z
M103 183q-3 -20 -17.5 -34.5t-33.5 -17.5q-23 3 -37.5 17.5t-14.5 34.5q0 22 14.5 36.5t37.5 14.5q19 0 33.5 -14.5t17.5 -36.5zM103 53q-3 -19 -17.5 -33.5t-33.5 -17.5q-23 3 -37.5 17.5t-14.5 33.5q0 23 14.5 37.5t37.5 14.5q19 0 33.5 -14.5t17.5 -37.5z" />
    <glyph glyph-name="braceleft" unicode="{" horiz-adv-x="490" 
d="M103 440q-3 -19 -17.5 -33.5t-33.5 -18.5q-23 4 -37.5 18.5t-14.5 33.5q0 23 14.5 37.5t37.5 14.5q19 0 33.5 -14.5t17.5 -37.5zM233 311q-4 -20 -18.5 -34t-33.5 -17q-23 3 -37.5 17t-14.5 34q0 22 14.5 37t37.5 15q19 0 33.5 -15t18.5 -37zM233 440q-4 -19 -18.5 -33.5
t-33.5 -18.5q-23 4 -37.5 18.5t-14.5 33.5q0 23 14.5 37.5t37.5 14.5q19 0 33.5 -14.5t18.5 -37.5zM233 569q-4 -19 -18.5 -33.5t-33.5 -17.5q-23 3 -37.5 17.5t-14.5 33.5q0 23 14.5 37.5t37.5 14.5q19 0 33.5 -14.5t18.5 -37.5zM233 699q-4 -20 -18.5 -34.5t-33.5 -17.5
q-23 3 -37.5 17.5t-14.5 34.5q0 22 14.5 36.5t37.5 14.5q19 0 33.5 -14.5t18.5 -36.5zM362 828q-3 -20 -17.5 -34.5t-34.5 -17.5q-22 3 -37 17.5t-15 34.5q0 22 15 36.5t37 14.5q20 0 34.5 -14.5t17.5 -36.5zM233 183q-4 -20 -18.5 -34.5t-33.5 -17.5q-23 3 -37.5 17.5
t-14.5 34.5q0 22 14.5 36.5t37.5 14.5q19 0 33.5 -14.5t18.5 -36.5zM362 53q-3 -19 -17.5 -33.5t-34.5 -17.5q-22 3 -37 17.5t-15 33.5q0 23 15 37.5t37 14.5q20 0 34.5 -14.5t17.5 -37.5z" />
    <glyph glyph-name="bar" unicode="|" horiz-adv-x="231" 
d="M103 699q-3 -20 -17.5 -34.5t-33.5 -17.5q-23 3 -37.5 17.5t-14.5 34.5q0 22 14.5 36.5t37.5 14.5q19 0 33.5 -14.5t17.5 -36.5zM103 569q-3 -19 -17.5 -33.5t-33.5 -17.5q-23 3 -37.5 17.5t-14.5 33.5q0 23 14.5 37.5t37.5 14.5q19 0 33.5 -14.5t17.5 -37.5zM103 440
q-3 -19 -17.5 -33.5t-33.5 -18.5q-23 4 -37.5 18.5t-14.5 33.5q0 23 14.5 37.5t37.5 14.5q19 0 33.5 -14.5t17.5 -37.5zM103 311q-3 -20 -17.5 -34t-33.5 -17q-23 3 -37.5 17t-14.5 34q0 22 14.5 37t37.5 15q19 0 33.5 -15t17.5 -37zM103 828q-3 -20 -17.5 -34.5
t-33.5 -17.5q-23 3 -37.5 17.5t-14.5 34.5q0 22 14.5 36.5t37.5 14.5q19 0 33.5 -14.5t17.5 -36.5zM103 183q-3 -20 -17.5 -34.5t-33.5 -17.5q-23 3 -37.5 17.5t-14.5 34.5q0 22 14.5 36.5t37.5 14.5q19 0 33.5 -14.5t17.5 -36.5zM103 53q-3 -19 -17.5 -33.5t-33.5 -17.5
q-23 3 -37.5 17.5t-14.5 33.5q0 23 14.5 37.5t37.5 14.5q19 0 33.5 -14.5t17.5 -37.5z" />
    <glyph glyph-name="braceright" unicode="}" 
d="M233 311q-4 -20 -18.5 -34t-33.5 -17q-23 3 -37.5 17t-14.5 34q0 22 14.5 37t37.5 15q19 0 33.5 -15t18.5 -37zM233 440q-4 -19 -18.5 -33.5t-33.5 -18.5q-23 4 -37.5 18.5t-14.5 33.5q0 23 14.5 37.5t37.5 14.5q19 0 33.5 -14.5t18.5 -37.5zM362 440q-3 -19 -17.5 -33.5
t-34.5 -18.5q-22 4 -37 18.5t-15 33.5q0 23 15 37.5t37 14.5q20 0 34.5 -14.5t17.5 -37.5zM233 569q-4 -19 -18.5 -33.5t-33.5 -17.5q-23 3 -37.5 17.5t-14.5 33.5q0 23 14.5 37.5t37.5 14.5q19 0 33.5 -14.5t18.5 -37.5zM233 699q-4 -20 -18.5 -34.5t-33.5 -17.5
q-23 3 -37.5 17.5t-14.5 34.5q0 22 14.5 36.5t37.5 14.5q19 0 33.5 -14.5t18.5 -36.5zM103 828q-3 -20 -17.5 -34.5t-33.5 -17.5q-23 3 -37.5 17.5t-14.5 34.5q0 22 14.5 36.5t37.5 14.5q19 0 33.5 -14.5t17.5 -36.5zM233 183q-4 -20 -18.5 -34.5t-33.5 -17.5
q-23 3 -37.5 17.5t-14.5 34.5q0 22 14.5 36.5t37.5 14.5q19 0 33.5 -14.5t18.5 -36.5zM103 53q-3 -19 -17.5 -33.5t-33.5 -17.5q-23 3 -37.5 17.5t-14.5 33.5q0 23 14.5 37.5t37.5 14.5q19 0 33.5 -14.5t17.5 -37.5z" />
    <glyph glyph-name="asciitilde" unicode="~" horiz-adv-x="619" 
d="M103 699q-3 -20 -17.5 -34.5t-33.5 -17.5q-23 3 -37.5 17.5t-14.5 34.5q0 22 14.5 36.5t37.5 14.5q19 0 33.5 -14.5t17.5 -36.5zM362 699q-3 -20 -17.5 -34.5t-34.5 -17.5q-22 3 -37 17.5t-15 34.5q0 22 15 36.5t37 14.5q20 0 34.5 -14.5t17.5 -36.5zM233 828
q-4 -20 -18.5 -34.5t-33.5 -17.5q-23 3 -37.5 17.5t-14.5 34.5q0 22 14.5 36.5t37.5 14.5q19 0 33.5 -14.5t18.5 -36.5zM491 828q-3 -20 -17.5 -34.5t-34.5 -17.5q-22 3 -36.5 17.5t-14.5 34.5q0 22 14.5 36.5t36.5 14.5q20 0 34.5 -14.5t17.5 -36.5z" />
    <glyph glyph-name="uni00A0" unicode="&#xa0;" 
 />
    <glyph glyph-name="exclamdown" unicode="&#xa1;" 
 />
    <glyph glyph-name="cent" unicode="&#xa2;" 
 />
    <glyph glyph-name="sterling" unicode="&#xa3;" 
 />
    <glyph glyph-name="currency" unicode="&#xa4;" 
 />
    <glyph glyph-name="yen" unicode="&#xa5;" 
 />
    <glyph glyph-name="brokenbar" unicode="&#xa6;" 
 />
    <glyph glyph-name="section" unicode="&#xa7;" 
 />
    <glyph glyph-name="dieresis" unicode="&#xa8;" 
 />
    <glyph glyph-name="copyright" unicode="&#xa9;" 
 />
    <glyph glyph-name="ordfeminine" unicode="&#xaa;" 
 />
    <glyph glyph-name="guillemotleft" unicode="&#xab;" 
 />
    <glyph glyph-name="logicalnot" unicode="&#xac;" 
 />
    <glyph glyph-name="uni00AD" unicode="&#xad;" 
 />
    <glyph glyph-name="registered" unicode="&#xae;" 
 />
    <glyph glyph-name="macron" unicode="&#xaf;" 
 />
    <glyph glyph-name="degree" unicode="&#xb0;" 
 />
    <glyph glyph-name="plusminus" unicode="&#xb1;" 
 />
    <glyph glyph-name="uni00B2" unicode="&#xb2;" 
 />
    <glyph glyph-name="uni00B3" unicode="&#xb3;" 
 />
    <glyph glyph-name="acute" unicode="&#xb4;" 
 />
    <glyph glyph-name="mu" unicode="&#xb5;" 
 />
    <glyph glyph-name="paragraph" unicode="&#xb6;" 
 />
    <glyph glyph-name="periodcentered" unicode="&#xb7;" 
 />
    <glyph glyph-name="cedilla" unicode="&#xb8;" 
 />
    <glyph glyph-name="uni00B9" unicode="&#xb9;" 
 />
    <glyph glyph-name="ordmasculine" unicode="&#xba;" 
 />
    <glyph glyph-name="guillemotright" unicode="&#xbb;" 
 />
    <glyph glyph-name="onequarter" unicode="&#xbc;" 
 />
    <glyph glyph-name="onehalf" unicode="&#xbd;" 
 />
    <glyph glyph-name="threequarters" unicode="&#xbe;" 
 />
    <glyph glyph-name="questiondown" unicode="&#xbf;" 
 />
    <glyph glyph-name="Agrave" unicode="&#xc0;" 
 />
    <glyph glyph-name="Aacute" unicode="&#xc1;" 
 />
    <glyph glyph-name="Acircumflex" unicode="&#xc2;" 
 />
    <glyph glyph-name="Atilde" unicode="&#xc3;" 
 />
    <glyph glyph-name="Adieresis" unicode="&#xc4;" 
 />
    <glyph glyph-name="Aring" unicode="&#xc5;" 
 />
    <glyph glyph-name="AE" unicode="&#xc6;" 
 />
    <glyph glyph-name="Ccedilla" unicode="&#xc7;" 
 />
    <glyph glyph-name="Egrave" unicode="&#xc8;" 
 />
    <glyph glyph-name="Eacute" unicode="&#xc9;" 
 />
    <glyph glyph-name="Ecircumflex" unicode="&#xca;" 
 />
    <glyph glyph-name="Edieresis" unicode="&#xcb;" 
 />
    <glyph glyph-name="Igrave" unicode="&#xcc;" 
 />
    <glyph glyph-name="Iacute" unicode="&#xcd;" 
 />
    <glyph glyph-name="Icircumflex" unicode="&#xce;" 
 />
    <glyph glyph-name="Idieresis" unicode="&#xcf;" 
 />
    <glyph glyph-name="Eth" unicode="&#xd0;" 
 />
    <glyph glyph-name="Ntilde" unicode="&#xd1;" 
 />
    <glyph glyph-name="Ograve" unicode="&#xd2;" 
 />
    <glyph glyph-name="Oacute" unicode="&#xd3;" 
 />
    <glyph glyph-name="Ocircumflex" unicode="&#xd4;" 
 />
    <glyph glyph-name="Otilde" unicode="&#xd5;" 
 />
    <glyph glyph-name="Odieresis" unicode="&#xd6;" 
 />
    <glyph glyph-name="multiply" unicode="&#xd7;" 
 />
    <glyph glyph-name="Oslash" unicode="&#xd8;" 
 />
    <glyph glyph-name="Ugrave" unicode="&#xd9;" 
 />
    <glyph glyph-name="Uacute" unicode="&#xda;" 
 />
    <glyph glyph-name="Ucircumflex" unicode="&#xdb;" 
 />
    <glyph glyph-name="Udieresis" unicode="&#xdc;" 
 />
    <glyph glyph-name="Yacute" unicode="&#xdd;" 
 />
    <glyph glyph-name="Thorn" unicode="&#xde;" 
 />
    <glyph glyph-name="germandbls" unicode="&#xdf;" 
 />
    <glyph glyph-name="agrave" unicode="&#xe0;" 
 />
    <glyph glyph-name="aacute" unicode="&#xe1;" 
 />
    <glyph glyph-name="acircumflex" unicode="&#xe2;" 
 />
    <glyph glyph-name="atilde" unicode="&#xe3;" 
 />
    <glyph glyph-name="adieresis" unicode="&#xe4;" 
 />
    <glyph glyph-name="aring" unicode="&#xe5;" 
 />
    <glyph glyph-name="ae" unicode="&#xe6;" 
 />
    <glyph glyph-name="ccedilla" unicode="&#xe7;" 
 />
    <glyph glyph-name="egrave" unicode="&#xe8;" 
 />
    <glyph glyph-name="eacute" unicode="&#xe9;" 
 />
    <glyph glyph-name="ecircumflex" unicode="&#xea;" 
 />
    <glyph glyph-name="edieresis" unicode="&#xeb;" 
 />
    <glyph glyph-name="igrave" unicode="&#xec;" 
 />
    <glyph glyph-name="iacute" unicode="&#xed;" 
 />
    <glyph glyph-name="icircumflex" unicode="&#xee;" 
 />
    <glyph glyph-name="idieresis" unicode="&#xef;" 
 />
    <glyph glyph-name="eth" unicode="&#xf0;" 
 />
    <glyph glyph-name="ntilde" unicode="&#xf1;" 
 />
    <glyph glyph-name="ograve" unicode="&#xf2;" 
 />
    <glyph glyph-name="oacute" unicode="&#xf3;" 
 />
    <glyph glyph-name="ocircumflex" unicode="&#xf4;" 
 />
    <glyph glyph-name="otilde" unicode="&#xf5;" 
 />
    <glyph glyph-name="odieresis" unicode="&#xf6;" 
 />
    <glyph glyph-name="divide" unicode="&#xf7;" 
 />
    <glyph glyph-name="oslash" unicode="&#xf8;" 
 />
    <glyph glyph-name="ugrave" unicode="&#xf9;" 
 />
    <glyph glyph-name="uacute" unicode="&#xfa;" 
 />
    <glyph glyph-name="ucircumflex" unicode="&#xfb;" 
 />
    <glyph glyph-name="udieresis" unicode="&#xfc;" 
 />
    <glyph glyph-name="yacute" unicode="&#xfd;" 
 />
    <glyph glyph-name="thorn" unicode="&#xfe;" 
 />
    <glyph glyph-name="ydieresis" unicode="&#xff;" 
 />
    <glyph glyph-name="OE" unicode="&#x152;" 
 />
    <glyph glyph-name="oe" unicode="&#x153;" 
 />
    <glyph glyph-name="Scaron" unicode="&#x160;" 
 />
    <glyph glyph-name="scaron" unicode="&#x161;" 
 />
    <glyph glyph-name="Ydieresis" unicode="&#x178;" 
 />
    <glyph glyph-name="Zcaron" unicode="&#x17d;" 
 />
    <glyph glyph-name="zcaron" unicode="&#x17e;" 
 />
    <glyph glyph-name="florin" unicode="&#x192;" 
 />
    <glyph glyph-name="circumflex" unicode="&#x2c6;" 
 />
    <glyph glyph-name="tilde" unicode="&#x2dc;" 
 />
    <glyph glyph-name="endash" unicode="&#x2013;" 
 />
    <glyph glyph-name="emdash" unicode="&#x2014;" 
 />
    <glyph glyph-name="quoteleft" unicode="&#x2018;" 
 />
    <glyph glyph-name="quoteright" unicode="&#x2019;" 
 />
    <glyph glyph-name="quotesinglbase" unicode="&#x201a;" 
 />
    <glyph glyph-name="quotedblleft" unicode="&#x201c;" 
 />
    <glyph glyph-name="quotedblright" unicode="&#x201d;" 
 />
    <glyph glyph-name="quotedblbase" unicode="&#x201e;" 
 />
    <glyph glyph-name="dagger" unicode="&#x2020;" 
 />
    <glyph glyph-name="daggerdbl" unicode="&#x2021;" 
 />
    <glyph glyph-name="bullet" unicode="&#x2022;" 
 />
    <glyph glyph-name="ellipsis" unicode="&#x2026;" 
 />
    <glyph glyph-name="perthousand" unicode="&#x2030;" 
 />
    <glyph glyph-name="guilsinglleft" unicode="&#x2039;" 
 />
    <glyph glyph-name="guilsinglright" unicode="&#x203a;" 
 />
    <glyph glyph-name="Euro" unicode="&#x20ac;" 
 />
    <glyph glyph-name="trademark" unicode="&#x2122;" 
 />
    <glyph glyph-name="uni2219" unicode="&#x2219;" 
 />
  </font>
</defs>
</svg>
